<?xml version="1.0" standalone="no"?>
 <!DOCTYPE svg PUBLIC "-//W3C//DTD SVG 1.1//EN" 
 "http://www.w3.org/Graphics/SVG/1.1/DTD/svg11.dtd"> 
<svg
  xmlns:svg="http://www.w3.org/2000/svg"
  xmlns="http://www.w3.org/2000/svg"
  xmlns:xlink="http://www.w3.org/1999/xlink"
  version="1.1"
  width="2.504440cm" height="2.898140cm" viewBox="0 0 25044400 28981400">
<title>SVG Picture created as EchoHelloLedButton-F_Cu.svg date 2022/02/18 01:42:35 </title>
  <desc>Picture generated by PCBNEW </desc>
<g style="fill:#000000; fill-opacity:1.000000;stroke:#000000; stroke-opacity:1.000000;
stroke-linecap:round; stroke-linejoin:round;"
 transform="translate(0 0) scale(1 1)">
</g>
<g style="fill:#000000; fill-opacity:0.0; 
stroke:#000000; stroke-width:0.000000; stroke-opacity:1; 
stroke-linecap:round; stroke-linejoin:round;">
<g >
</g>
<g style="fill:#000000; fill-opacity:0.0; 
stroke:#000000; stroke-width:1.000000; stroke-opacity:1; 
stroke-linecap:round; stroke-linejoin:round;">
</g>
<g style="fill:#000000; fill-opacity:1.0; 
stroke:#000000; stroke-width:1.000000; stroke-opacity:1; 
stroke-linecap:round; stroke-linejoin:round;">
<path style="fill:#000000; fill-opacity:1.0; 
stroke:#000000; stroke-width:1.000000; stroke-opacity:1; 
stroke-linecap:round; stroke-linejoin:round;fill-rule:evenodd;"
d="M 6452499.000000,20629999.000000
5652501.000000,20629999.000000
5652501.000000,18630001.000000
6452499.000000,18630001.000000
Z" /> 
<path style="fill:#000000; fill-opacity:1.0; 
stroke:#000000; stroke-width:1.000000; stroke-opacity:1; 
stroke-linecap:round; stroke-linejoin:round;fill-rule:evenodd;"
d="M 7722499.000000,20629999.000000
6922501.000000,20629999.000000
6922501.000000,18630001.000000
7722499.000000,18630001.000000
Z" /> 
<path style="fill:#000000; fill-opacity:1.0; 
stroke:#000000; stroke-width:1.000000; stroke-opacity:1; 
stroke-linecap:round; stroke-linejoin:round;fill-rule:evenodd;"
d="M 8992499.000000,20629999.000000
8192501.000000,20629999.000000
8192501.000000,18630001.000000
8992499.000000,18630001.000000
Z" /> 
<path style="fill:#000000; fill-opacity:1.0; 
stroke:#000000; stroke-width:1.000000; stroke-opacity:1; 
stroke-linecap:round; stroke-linejoin:round;fill-rule:evenodd;"
d="M 10262499.000000,20629999.000000
9462501.000000,20629999.000000
9462501.000000,18630001.000000
10262499.000000,18630001.000000
Z" /> 
<path style="fill:#000000; fill-opacity:1.0; 
stroke:#000000; stroke-width:1.000000; stroke-opacity:1; 
stroke-linecap:round; stroke-linejoin:round;fill-rule:evenodd;"
d="M 10262499.000000,15029999.000000
9462501.000000,15029999.000000
9462501.000000,13030001.000000
10262499.000000,13030001.000000
Z" /> 
<path style="fill:#000000; fill-opacity:1.0; 
stroke:#000000; stroke-width:1.000000; stroke-opacity:1; 
stroke-linecap:round; stroke-linejoin:round;fill-rule:evenodd;"
d="M 8992499.000000,15029999.000000
8192501.000000,15029999.000000
8192501.000000,13030001.000000
8992499.000000,13030001.000000
Z" /> 
<path style="fill:#000000; fill-opacity:1.0; 
stroke:#000000; stroke-width:1.000000; stroke-opacity:1; 
stroke-linecap:round; stroke-linejoin:round;fill-rule:evenodd;"
d="M 7722499.000000,15029999.000000
6922501.000000,15029999.000000
6922501.000000,13030001.000000
7722499.000000,13030001.000000
Z" /> 
<path style="fill:#000000; fill-opacity:1.0; 
stroke:#000000; stroke-width:1.000000; stroke-opacity:1; 
stroke-linecap:round; stroke-linejoin:round;fill-rule:evenodd;"
d="M 6452499.000000,15029999.000000
5652501.000000,15029999.000000
5652501.000000,13030001.000000
6452499.000000,13030001.000000
Z" /> 
</g>
<g >
</g>
<g style="fill:#000000; fill-opacity:1.0; 
stroke:#000000; stroke-width:1.000000; stroke-opacity:1; 
stroke-linecap:round; stroke-linejoin:round;">
<path style="fill:#000000; fill-opacity:1.0; 
stroke:#000000; stroke-width:1.000000; stroke-opacity:1; 
stroke-linecap:round; stroke-linejoin:round;fill-rule:evenodd;"
d="M 6667501.000000,1920001.000000
8167499.000000,1920001.000000
8167499.000000,4419999.000000
6667501.000000,4419999.000000
Z" /> 
<path style="fill:#000000; fill-opacity:1.0; 
stroke:#000000; stroke-width:1.000000; stroke-opacity:1; 
stroke-linecap:round; stroke-linejoin:round;fill-rule:evenodd;"
d="M 6667501.000000,8920001.000000
8167499.000000,8920001.000000
8167499.000000,11419999.000000
6667501.000000,11419999.000000
Z" /> 
<path style="fill:#000000; fill-opacity:1.0; 
stroke:#000000; stroke-width:1.000000; stroke-opacity:1; 
stroke-linecap:round; stroke-linejoin:round;fill-rule:evenodd;"
d="M 2667501.000000,1920001.000000
4167499.000000,1920001.000000
4167499.000000,4419999.000000
2667501.000000,4419999.000000
Z" /> 
<path style="fill:#000000; fill-opacity:1.0; 
stroke:#000000; stroke-width:1.000000; stroke-opacity:1; 
stroke-linecap:round; stroke-linejoin:round;fill-rule:evenodd;"
d="M 2667501.000000,8920001.000000
4167499.000000,8920001.000000
4167499.000000,11419999.000000
2667501.000000,11419999.000000
Z" /> 
</g>
<g >
</g>
<g style="fill:#000000; fill-opacity:1.0; 
stroke:#000000; stroke-width:1.000000; stroke-opacity:1; 
stroke-linecap:round; stroke-linejoin:round;">
<path style="fill:#000000; fill-opacity:1.0; 
stroke:#000000; stroke-width:1.000000; stroke-opacity:1; 
stroke-linecap:round; stroke-linejoin:round;fill-rule:evenodd;"
d="M 10917501.000000,2400001.000000
12617499.000000,2400001.000000
12617499.000000,4399999.000000
10917501.000000,4399999.000000
Z" /> 
<path style="fill:#000000; fill-opacity:1.0; 
stroke:#000000; stroke-width:1.000000; stroke-opacity:1; 
stroke-linecap:round; stroke-linejoin:round;fill-rule:evenodd;"
d="M 10917501.000000,6400001.000000
12617499.000000,6400001.000000
12617499.000000,8399999.000000
10917501.000000,8399999.000000
Z" /> 
</g>
<g >
</g>
<g style="fill:#000000; fill-opacity:1.0; 
stroke:#000000; stroke-width:1.000000; stroke-opacity:1; 
stroke-linecap:round; stroke-linejoin:round;">
<path style="fill:#000000; fill-opacity:1.0; 
stroke:#000000; stroke-width:1.000000; stroke-opacity:1; 
stroke-linecap:round; stroke-linejoin:round;fill-rule:evenodd;"
d="M 6957499.000000,24870001.000000
6957499.000000,26569999.000000
4957501.000000,26569999.000000
4957501.000000,24870001.000000
Z" /> 
<path style="fill:#000000; fill-opacity:1.0; 
stroke:#000000; stroke-width:1.000000; stroke-opacity:1; 
stroke-linecap:round; stroke-linejoin:round;fill-rule:evenodd;"
d="M 10957499.000000,24870001.000000
10957499.000000,26569999.000000
8957501.000000,26569999.000000
8957501.000000,24870001.000000
Z" /> 
</g>
<g >
</g>
<g style="fill:#000000; fill-opacity:1.0; 
stroke:#000000; stroke-width:1.000000; stroke-opacity:1; 
stroke-linecap:round; stroke-linejoin:round;">
<path style="fill:#000000; fill-opacity:1.0; 
stroke:#000000; stroke-width:1.000000; stroke-opacity:1; 
stroke-linecap:round; stroke-linejoin:round;fill-rule:evenodd;"
d="M 15837501.000000,8779999.000000
15837501.000000,7080001.000000
18337499.000000,7080001.000000
18337499.000000,8779999.000000
Z" /> 
<path style="fill:#000000; fill-opacity:1.0; 
stroke:#000000; stroke-width:1.000000; stroke-opacity:1; 
stroke-linecap:round; stroke-linejoin:round;fill-rule:evenodd;"
d="M 15837501.000000,6239999.000000
15837501.000000,4540001.000000
18337499.000000,4540001.000000
18337499.000000,6239999.000000
Z" /> 
<path style="fill:#000000; fill-opacity:1.0; 
stroke:#000000; stroke-width:1.000000; stroke-opacity:1; 
stroke-linecap:round; stroke-linejoin:round;fill-rule:evenodd;"
d="M 15837501.000000,3699999.000000
15837501.000000,2000001.000000
18337499.000000,2000001.000000
18337499.000000,3699999.000000
Z" /> 
</g>
<g >
</g>
<g style="fill:#000000; fill-opacity:1.0; 
stroke:#000000; stroke-width:1.000000; stroke-opacity:1; 
stroke-linecap:round; stroke-linejoin:round;">
<path style="fill:#000000; fill-opacity:1.0; 
stroke:#000000; stroke-width:1.000000; stroke-opacity:1; 
stroke-linecap:round; stroke-linejoin:round;fill-rule:evenodd;"
d="M 15837501.000000,26569999.000000
15837501.000000,24870001.000000
18337499.000000,24870001.000000
18337499.000000,26569999.000000
Z" /> 
<path style="fill:#000000; fill-opacity:1.0; 
stroke:#000000; stroke-width:1.000000; stroke-opacity:1; 
stroke-linecap:round; stroke-linejoin:round;fill-rule:evenodd;"
d="M 15837501.000000,24029999.000000
15837501.000000,22330001.000000
18337499.000000,22330001.000000
18337499.000000,24029999.000000
Z" /> 
<path style="fill:#000000; fill-opacity:1.0; 
stroke:#000000; stroke-width:1.000000; stroke-opacity:1; 
stroke-linecap:round; stroke-linejoin:round;fill-rule:evenodd;"
d="M 15837501.000000,21489999.000000
15837501.000000,19790001.000000
18337499.000000,19790001.000000
18337499.000000,21489999.000000
Z" /> 
<path style="fill:#000000; fill-opacity:1.0; 
stroke:#000000; stroke-width:1.000000; stroke-opacity:1; 
stroke-linecap:round; stroke-linejoin:round;fill-rule:evenodd;"
d="M 15837501.000000,18949999.000000
15837501.000000,17250001.000000
18337499.000000,17250001.000000
18337499.000000,18949999.000000
Z" /> 
<path style="fill:#000000; fill-opacity:1.0; 
stroke:#000000; stroke-width:1.000000; stroke-opacity:1; 
stroke-linecap:round; stroke-linejoin:round;fill-rule:evenodd;"
d="M 15837501.000000,16409999.000000
15837501.000000,14710001.000000
18337499.000000,14710001.000000
18337499.000000,16409999.000000
Z" /> 
<path style="fill:#000000; fill-opacity:1.0; 
stroke:#000000; stroke-width:1.000000; stroke-opacity:1; 
stroke-linecap:round; stroke-linejoin:round;fill-rule:evenodd;"
d="M 15837501.000000,13869999.000000
15837501.000000,12170001.000000
18337499.000000,12170001.000000
18337499.000000,13869999.000000
Z" /> 
</g>
<g >
</g>
<g style="fill:#000000; fill-opacity:1.0; 
stroke:#000000; stroke-width:1.000000; stroke-opacity:1; 
stroke-linecap:round; stroke-linejoin:round;">
<path style="fill:#000000; fill-opacity:1.0; 
stroke:#000000; stroke-width:1.000000; stroke-opacity:1; 
stroke-linecap:round; stroke-linejoin:round;fill-rule:evenodd;"
d="M 3727499.000000,26179999.000000
2027501.000000,26179999.000000
2027501.000000,24180001.000000
3727499.000000,24180001.000000
Z" /> 
<path style="fill:#000000; fill-opacity:1.0; 
stroke:#000000; stroke-width:1.000000; stroke-opacity:1; 
stroke-linecap:round; stroke-linejoin:round;fill-rule:evenodd;"
d="M 3727499.000000,22179999.000000
2027501.000000,22179999.000000
2027501.000000,20180001.000000
3727499.000000,20180001.000000
Z" /> 
</g>
<g >
</g>
<g style="fill:#000000; fill-opacity:1.0; 
stroke:#000000; stroke-width:1.000000; stroke-opacity:1; 
stroke-linecap:round; stroke-linejoin:round;">
<path style="fill:#000000; fill-opacity:1.0; 
stroke:#000000; stroke-width:1.000000; stroke-opacity:1; 
stroke-linecap:round; stroke-linejoin:round;fill-rule:evenodd;"
d="M 3727499.000000,18559999.000000
2027501.000000,18559999.000000
2027501.000000,16560001.000000
3727499.000000,16560001.000000
Z" /> 
<path style="fill:#000000; fill-opacity:1.0; 
stroke:#000000; stroke-width:1.000000; stroke-opacity:1; 
stroke-linecap:round; stroke-linejoin:round;fill-rule:evenodd;"
d="M 3727499.000000,14559999.000000
2027501.000000,14559999.000000
2027501.000000,12560001.000000
3727499.000000,12560001.000000
Z" /> 
</g>
<g >
</g>
<g >
</g>
<g style="fill:#000000; fill-opacity:1.0; 
stroke:#000000; stroke-width:1.000000; stroke-opacity:1; 
stroke-linecap:round; stroke-linejoin:round;">
</g>
<g style="fill:#000000; fill-opacity:1.0; 
stroke:#000000; stroke-width:400000.000000; stroke-opacity:1; 
stroke-linecap:round; stroke-linejoin:round;">
</g>
<g style="fill:#000000; fill-opacity:0.0; 
stroke:#000000; stroke-width:400000.000000; stroke-opacity:1; 
stroke-linecap:round; stroke-linejoin:round;">
<path d="M17546522 18100000
L18787011 19340489
" />
<path d="M18787011 19340489
L18787011 27244000
" />
<path d="M18787011 27244000
L7957500 27244000
" />
<path d="M7957500 27244000
L7957500 25179279
" />
<path d="M7957500 25179279
L6052500 23274279
" />
<path d="M6052500 23274279
L6052500 19630000
" />
<path d="M17087500 2850000
L17487500 2850000
" />
<path d="M17487500 2850000
L19436531 4799031
" />
<path d="M19436531 4799031
L19436531 16209991
" />
<path d="M19436531 16209991
L17546522 18100000
" />
<path d="M17087500 13020000
L18787011 11320489
" />
<path d="M18787011 11320489
L18787011 6689511
" />
<path d="M18787011 6689511
L17487500 5390000
" />
<path d="M17487500 5390000
L17087500 5390000
" />
<path d="M8592500 14030000
L8592500 12630000
" />
<path d="M8592500 12630000
L8703469 12519031
" />
<path d="M8703469 12519031
L12498469 12519031
" />
<path d="M12498469 12519031
L17087500 7930000
" />
<path d="M6052500 14030000
L6052500 12630000
" />
<path d="M6052500 12630000
L6812989 11869511
" />
<path d="M6812989 11869511
L10377989 11869511
" />
<path d="M10377989 11869511
L16857500 5390000
" />
<path d="M16857500 5390000
L17087500 5390000
" />
<path d="M17087500 5390000
L10676060 5390000
" />
<path d="M10676060 5390000
L8617011 3330951
" />
<path d="M8617011 3330951
L8617011 1470489
" />
<path d="M8617011 1470489
L5117011 1470489
" />
<path d="M5117011 1470489
L3417500 3170000
" />
<path d="M17087500 18100000
L17546522 18100000
" />
<path d="M7322500 19630000
L7322500 18735000
" />
<path d="M7322500 18735000
L5202989 16615489
" />
<path d="M5202989 16615489
L5202989 12384511
" />
<path d="M5202989 12384511
L7417500 10170000
" />
<path d="M7417500 3170000
L7537500 3170000
" />
<path d="M7537500 3170000
L11767500 7400000
" />
<path d="M11767500 7400000
L10187500 7400000
" />
<path d="M10187500 7400000
L7417500 10170000
" />
<path d="M3417500 10170000
L3417500 13020000
" />
<path d="M3417500 13020000
L2877500 13560000
" />
<path d="M3417500 3170000
L3417500 10170000
" />
<path d="M2877500 21180000
L4502500 21180000
" />
<path d="M4502500 21180000
L6052500 19630000
" />
<path d="M2877500 21180000
L2877500 17560000
" />
<path d="M5957500 25720000
L3417500 25720000
" />
<path d="M3417500 25720000
L2877500 25180000
" />
<path d="M9957500 25720000
L8592500 24355000
" />
<path d="M8592500 24355000
L8592500 19630000
" />
<path d="M17087500 2850000
L12317500 2850000
" />
<path d="M12317500 2850000
L11767500 3400000
" />
<path d="M17087500 23180000
L13412500 23180000
" />
<path d="M13412500 23180000
L9862500 19630000
" />
<path d="M17087500 20640000
L15792011 20640000
" />
<path d="M15792011 20640000
L9862500 14710489
" />
<path d="M9862500 14710489
L9862500 14030000
" />
</g>
<g >
</g>
<g style="fill:#000000; fill-opacity:0.0; 
stroke:#000000; stroke-width:400000.000000; stroke-opacity:1; 
stroke-linecap:round; stroke-linejoin:round;">
<g >
</g>
<g style="fill:#000000; fill-opacity:1.0; 
stroke:#000000; stroke-width:1.000000; stroke-opacity:1; 
stroke-linecap:round; stroke-linejoin:round;">
<path style="fill:#000000; fill-opacity:1.0; 
stroke:#000000; stroke-width:1.000000; stroke-opacity:1; 
stroke-linecap:round; stroke-linejoin:round;fill-rule:evenodd;"
d="M 23991621.000000,1028002.000000
24038114.000000,1081658.000000
24049500.000000,1134000.000000
24049500.000000,27866000.000000
24029498.000000,27934121.000000
23975842.000000,27980614.000000
23923500.000000,27992000.000000
19349865.000000,27992000.000000
19281744.000000,27971998.000000
19235251.000000,27918342.000000
19225147.000000,27848068.000000
19254641.000000,27783488.000000
19258191.000000,27779908.000000
19258992.000000,27779357.000000
19281106.000000,27754537.000000
19292349.000000,27743412.000000
19311670.000000,27726557.000000
19311673.000000,27726553.000000
19317396.000000,27721561.000000
19321764.000000,27715347.000000
19321766.000000,27715344.000000
19339032.000000,27690778.000000
19348039.000000,27679414.000000
19357589.000000,27668694.000000
19373068.000000,27651321.000000
19376620.000000,27644612.000000
19376623.000000,27644608.000000
19388622.000000,27621946.000000
19396887.000000,27608459.000000
19411630.000000,27587481.000000
19411632.000000,27587478.000000
19416001.000000,27581261.000000
19418762.000000,27574180.000000
19418764.000000,27574176.000000
19429668.000000,27546210.000000
19435705.000000,27533023.000000
19449757.000000,27506482.000000
19449758.000000,27506480.000000
19453311.000000,27499769.000000
19455160.000000,27492409.000000
19455162.000000,27492403.000000
19461408.000000,27467534.000000
19466220.000000,27452457.000000
19475532.000000,27428573.000000
19475532.000000,27428572.000000
19478293.000000,27421491.000000
19483203.000000,27384193.000000
19485921.000000,27369941.000000
19493236.000000,27340818.000000
19495087.000000,27333451.000000
19495298.000000,27293324.000000
19495346.000000,27291965.000000
19495511.000000,27290706.000000
19495511.000000,27252762.000000
19495513.000000,27252102.000000
19495962.000000,27166372.000000
19495962.000000,27166371.000000
19495985.000000,27161969.000000
19495621.000000,27160452.000000
19495511.000000,27158550.000000
19495511.000000,19369401.000000
19495803.000000,19360831.000000
19499220.000000,19310713.000000
19499220.000000,19310709.000000
19499736.000000,19303137.000000
19488750.000000,19240192.000000
19487788.000000,19233671.000000
19481026.000000,19177793.000000
19480113.000000,19170247.000000
19477427.000000,19163139.000000
19476790.000000,19160545.000000
19472329.000000,19144239.000000
19471559.000000,19141688.000000
19470253.000000,19134205.000000
19444572.000000,19075701.000000
19442080.000000,19069594.000000
19422184.000000,19016941.000000
19422184.000000,19016940.000000
19419498.000000,19009833.000000
19415195.000000,19003572.000000
19413958.000000,19001206.000000
19405731.000000,18986426.000000
19404380.000000,18984141.000000
19401326.000000,18977184.000000
19396706.000000,18971164.000000
19396703.000000,18971158.000000
19371987.000000,18938950.000000
19362424.000000,18926487.000000
19358552.000000,18921157.000000
19326672.000000,18874769.000000
19326667.000000,18874764.000000
19322368.000000,18868508.000000
19275840.000000,18827053.000000
19270565.000000,18822073.000000
18882905.000000,18434413.000000
18848879.000000,18372101.000000
18846000.000000,18345318.000000
18846000.000000,17854682.000000
18866002.000000,17786561.000000
18882905.000000,17765587.000000
19917059.000000,16731434.000000
19923324.000000,16725580.000000
19961195.000000,16692543.000000
19961196.000000,16692542.000000
19966916.000000,16687552.000000
20003667.000000,16635262.000000
20007559.000000,16630020.000000
20047007.000000,16579709.000000
20050131.000000,16572790.000000
20051519.000000,16570498.000000
20059888.000000,16555826.000000
20061153.000000,16553466.000000
20065521.000000,16547252.000000
20088734.000000,16487714.000000
20091290.000000,16481633.000000
20103444.000000,16454717.000000
20117576.000000,16423418.000000
20118961.000000,16415945.000000
20119765.000000,16413379.000000
20124386.000000,16397156.000000
20125051.000000,16394564.000000
20127813.000000,16387482.000000
20136153.000000,16324130.000000
20137185.000000,16317614.000000
20147442.000000,16262272.000000
20148826.000000,16254805.000000
20145240.000000,16192611.000000
20145031.000000,16185358.000000
20145031.000000,4827943.000000
20145323.000000,4819373.000000
20148740.000000,4769255.000000
20148740.000000,4769251.000000
20149256.000000,4761679.000000
20138269.000000,4698728.000000
20137307.000000,4692206.000000
20135091.000000,4673891.000000
20129633.000000,4628789.000000
20126950.000000,4621688.000000
20126309.000000,4619079.000000
20121846.000000,4602769.000000
20121081.000000,4600233.000000
20119774.000000,4592747.000000
20094087.000000,4534231.000000
20091596.000000,4528127.000000
20089414.000000,4522351.000000
20069018.000000,4468375.000000
20064714.000000,4462112.000000
20063477.000000,4459746.000000
20055232.000000,4444934.000000
20053899.000000,4442680.000000
20050846.000000,4435726.000000
20011944.000000,4385029.000000
20008072.000000,4379699.000000
19976192.000000,4333311.000000
19976187.000000,4333306.000000
19971888.000000,4327050.000000
19925360.000000,4285595.000000
19920085.000000,4280615.000000
18882905.000000,3243435.000000
18848879.000000,3181123.000000
18846000.000000,3154340.000000
18846000.000000,1951866.000000
18839245.000000,1889684.000000
18788115.000000,1753295.000000
18700761.000000,1636739.000000
18584205.000000,1549385.000000
18447816.000000,1498255.000000
18385634.000000,1491500.000000
15789366.000000,1491500.000000
15727184.000000,1498255.000000
15590795.000000,1549385.000000
15474239.000000,1636739.000000
15386885.000000,1753295.000000
15335755.000000,1889684.000000
15329000.000000,1951866.000000
15329000.000000,2015500.000000
15308998.000000,2083621.000000
15255342.000000,2130114.000000
15203000.000000,2141500.000000
13122302.000000,2141500.000000
13054181.000000,2121498.000000
13021476.000000,2091065.000000
12986142.000000,2043919.000000
12980761.000000,2036739.000000
12864205.000000,1949385.000000
12727816.000000,1898255.000000
12665634.000000,1891500.000000
10869366.000000,1891500.000000
10807184.000000,1898255.000000
10670795.000000,1949385.000000
10554239.000000,2036739.000000
10466885.000000,2153295.000000
10415755.000000,2289684.000000
10409000.000000,2351866.000000
10409000.000000,4448134.000000
10415755.000000,4510316.000000
10466885.000000,4646705.000000
10554239.000000,4763261.000000
10670795.000000,4850615.000000
10807184.000000,4901745.000000
10869366.000000,4908500.000000
12665634.000000,4908500.000000
12727816.000000,4901745.000000
12864205.000000,4850615.000000
12980761.000000,4763261.000000
13068115.000000,4646705.000000
13119245.000000,4510316.000000
13126000.000000,4448134.000000
13126000.000000,3684500.000000
13146002.000000,3616379.000000
13199658.000000,3569886.000000
13252000.000000,3558500.000000
15203000.000000,3558500.000000
15271121.000000,3578502.000000
15317614.000000,3632158.000000
15329000.000000,3684500.000000
15329000.000000,3748134.000000
15335755.000000,3810316.000000
15386885.000000,3946705.000000
15392271.000000,3953891.000000
15460442.000000,4044852.000000
15485290.000000,4111358.000000
15470237.000000,4180741.000000
15460442.000000,4195982.000000
15392714.000000,4286351.000000
15384176.000000,4301946.000000
15339022.000000,4422394.000000
15335395.000000,4437649.000000
15329869.000000,4488514.000000
15329500.000000,4495328.000000
15329500.000000,5117885.000000
15333975.000000,5133124.000000
15335365.000000,5134329.000000
15343048.000000,5136000.000000
17215500.000000,5136000.000000
17283621.000000,5156002.000000
17330114.000000,5209658.000000
17341500.000000,5262000.000000
17341500.000000,5518000.000000
17321498.000000,5586121.000000
17267842.000000,5632614.000000
17215500.000000,5644000.000000
15347616.000000,5644000.000000
15332377.000000,5648475.000000
15331172.000000,5649865.000000
15329501.000000,5657548.000000
15329501.000000,6284669.000000
15329871.000000,6291490.000000
15335395.000000,6342352.000000
15339021.000000,6357604.000000
15384176.000000,6478054.000000
15392714.000000,6493649.000000
15460442.000000,6584018.000000
15485290.000000,6650525.000000
15470237.000000,6719907.000000
15460442.000000,6735148.000000
15453981.000000,6743769.000000
15386885.000000,6833295.000000
15335755.000000,6969684.000000
15329000.000000,7031866.000000
15329000.000000,8634340.000000
15308998.000000,8702461.000000
15292095.000000,8723435.000000
12241904.000000,11773626.000000
12179592.000000,11807652.000000
12152809.000000,11810531.000000
8745995.000000,11810531.000000
8677874.000000,11790529.000000
8631381.000000,11736873.000000
8621277.000000,11666599.000000
8628013.000000,11640301.000000
8666471.000000,11537715.000000
8669245.000000,11530316.000000
8676000.000000,11468134.000000
8676000.000000,9965660.000000
8696002.000000,9897539.000000
8712905.000000,9876565.000000
10196815.000000,8392655.000000
10259127.000000,8358629.000000
10329942.000000,8363694.000000
10386778.000000,8406241.000000
10411173.000000,8468141.000000
10411942.000000,8475214.000000
10415755.000000,8510316.000000
10466885.000000,8646705.000000
10554239.000000,8763261.000000
10670795.000000,8850615.000000
10807184.000000,8901745.000000
10869366.000000,8908500.000000
12665634.000000,8908500.000000
12727816.000000,8901745.000000
12864205.000000,8850615.000000
12980761.000000,8763261.000000
13068115.000000,8646705.000000
13119245.000000,8510316.000000
13126000.000000,8448134.000000
13126000.000000,6351866.000000
13119245.000000,6289684.000000
13068115.000000,6153295.000000
12980761.000000,6036739.000000
12864205.000000,5949385.000000
12727816.000000,5898255.000000
12665634.000000,5891500.000000
11313160.000000,5891500.000000
11245039.000000,5871498.000000
11224065.000000,5854595.000000
8712905.000000,3343435.000000
8678879.000000,3281123.000000
8676000.000000,3254340.000000
8676000.000000,1871866.000000
8669245.000000,1809684.000000
8618115.000000,1673295.000000
8530761.000000,1556739.000000
8414205.000000,1469385.000000
8277816.000000,1418255.000000
8215634.000000,1411500.000000
6619366.000000,1411500.000000
6557184.000000,1418255.000000
6420795.000000,1469385.000000
6304239.000000,1556739.000000
6216885.000000,1673295.000000
6165755.000000,1809684.000000
6159000.000000,1871866.000000
6159000.000000,4468134.000000
6165755.000000,4530316.000000
6216885.000000,4666705.000000
6304239.000000,4783261.000000
6420795.000000,4870615.000000
6557184.000000,4921745.000000
6619366.000000,4928500.000000
8215634.000000,4928500.000000
8219024.000000,4928132.000000
8219038.000000,4928131.000000
8226336.000000,4927338.000000
8296219.000000,4939868.000000
8329036.000000,4963506.000000
9919314.000000,6553784.000000
9953340.000000,6616096.000000
9948275.000000,6686911.000000
9905728.000000,6743747.000000
9874760.000000,6760743.000000
9856844.000000,6767513.000000
9850585.000000,6771815.000000
9848220.000000,6773051.000000
9833448.000000,6781273.000000
9831156.000000,6782628.000000
9824195.000000,6785684.000000
9818168.000000,6790309.000000
9818164.000000,6790311.000000
9773487.000000,6824593.000000
9768162.000000,6828462.000000
9715519.000000,6864643.000000
9710467.000000,6870313.000000
9710466.000000,6870314.000000
9674073.000000,6911161.000000
9669092.000000,6916437.000000
8210935.000000,8374595.000000
8148623.000000,8408620.000000
8121840.000000,8411500.000000
6619366.000000,8411500.000000
6557184.000000,8418255.000000
6420795.000000,8469385.000000
6304239.000000,8556739.000000
6216885.000000,8673295.000000
6165755.000000,8809684.000000
6159000.000000,8871866.000000
6159000.000000,10374340.000000
6138998.000000,10442461.000000
6122095.000000,10463435.000000
4848141.000000,11737389.000000
4785829.000000,11771415.000000
4715014.000000,11766350.000000
4658178.000000,11723803.000000
4633367.000000,11657283.000000
4641064.000000,11604064.000000
4665978.000000,11537606.000000
4669605.000000,11522351.000000
4675131.000000,11471486.000000
4675500.000000,11464672.000000
4675500.000000,10442115.000000
4671025.000000,10426876.000000
4669635.000000,10425671.000000
4661952.000000,10424000.000000
2177616.000000,10424000.000000
2162377.000000,10428475.000000
2161172.000000,10429865.000000
2159501.000000,10437548.000000
2159501.000000,11464669.000000
2159871.000000,11471490.000000
2165395.000000,11522352.000000
2169021.000000,11537604.000000
2214176.000000,11658054.000000
2222714.000000,11673649.000000
2299215.000000,11775724.000000
2311776.000000,11788285.000000
2360998.000000,11825175.000000
2403513.000000,11882034.000000
2408539.000000,11952853.000000
2374479.000000,12015146.000000
2312148.000000,12049136.000000
2285433.000000,12052001.000000
1982831.000000,12052001.000000
1976010.000000,12052371.000000
1925148.000000,12057895.000000
1909896.000000,12061521.000000
1789446.000000,12106676.000000
1773851.000000,12115214.000000
1671776.000000,12191715.000000
1659215.000000,12204276.000000
1582714.000000,12306351.000000
1574176.000000,12321946.000000
1529022.000000,12442394.000000
1525395.000000,12457649.000000
1519869.000000,12508514.000000
1519500.000000,12515328.000000
1519500.000000,13287885.000000
1523975.000000,13303124.000000
1525365.000000,13304329.000000
1533048.000000,13306000.000000
4217384.000000,13306000.000000
4232623.000000,13301525.000000
4233828.000000,13300135.000000
4235499.000000,13292452.000000
4235499.000000,12515331.000000
4235129.000000,12508510.000000
4229605.000000,12457648.000000
4225979.000000,12442396.000000
4180824.000000,12321946.000000
4172286.000000,12306351.000000
4095785.000000,12204276.000000
4083224.000000,12191715.000000
4034002.000000,12154825.000000
3991487.000000,12097966.000000
3986461.000000,12027147.000000
4020521.000000,11964854.000000
4082852.000000,11930864.000000
4109567.000000,11927999.000000
4212169.000000,11927999.000000
4218990.000000,11927629.000000
4269852.000000,11922105.000000
4285104.000000,11918479.000000
4413962.000000,11870172.000000
4414417.000000,11871387.000000
4474907.000000,11858156.000000
4541456.000000,11882891.000000
4584067.000000,11939678.000000
4589213.000000,12010488.000000
4577537.000000,12042217.000000
4573999.000000,12047250.000000
4571240.000000,12054326.000000
4571238.000000,12054330.000000
4550787.000000,12106786.000000
4548236.000000,12112855.000000
4521944.000000,12171084.000000
4520560.000000,12178551.000000
4519759.000000,12181106.000000
4515130.000000,12197359.000000
4514467.000000,12199939.000000
4511707.000000,12207020.000000
4503484.000000,12269484.000000
4503368.000000,12270363.000000
4502337.000000,12276870.000000
4490693.000000,12339697.000000
4491130.000000,12347277.000000
4491130.000000,12347278.000000
4494280.000000,12401903.000000
4494489.000000,12409157.000000
4494489.000000,16586577.000000
4494197.000000,16595147.000000
4490264.000000,16652841.000000
4491569.000000,16660318.000000
4491569.000000,16660319.000000
4501250.000000,16715788.000000
4502212.000000,16722310.000000
4509887.000000,16785731.000000
4512570.000000,16792832.000000
4513211.000000,16795441.000000
4517674.000000,16811751.000000
4518439.000000,16814287.000000
4519746.000000,16821773.000000
4523358.000000,16830000.000000
4545431.000000,16880284.000000
4547922.000000,16886388.000000
4570502.000000,16946145.000000
4574806.000000,16952408.000000
4576043.000000,16954774.000000
4584288.000000,16969586.000000
4585621.000000,16971840.000000
4588674.000000,16978794.000000
4613927.000000,17011703.000000
4627568.000000,17029480.000000
4631448.000000,17034821.000000
4663328.000000,17081209.000000
4663333.000000,17081214.000000
4667632.000000,17087470.000000
4673302.000000,17092521.000000
4673303.000000,17092523.000000
4714159.000000,17128924.000000
4719435.000000,17133905.000000
5528614.000000,17943084.000000
5562640.000000,18005396.000000
5557575.000000,18076211.000000
5515028.000000,18133047.000000
5483749.000000,18150161.000000
5447904.000000,18163599.000000
5405795.000000,18179385.000000
5289239.000000,18266739.000000
5201885.000000,18383295.000000
5150755.000000,18519684.000000
5144000.000000,18581866.000000
5144000.000000,19484340.000000
5123998.000000,19552461.000000
5107095.000000,19573435.000000
4451095.000000,20229435.000000
4388783.000000,20263461.000000
4317968.000000,20258396.000000
4261132.000000,20215849.000000
4236321.000000,20149329.000000
4236000.000000,20140340.000000
4236000.000000,20131866.000000
4229245.000000,20069684.000000
4178115.000000,19933295.000000
4090761.000000,19816739.000000
3974205.000000,19729385.000000
3837816.000000,19678255.000000
3775634.000000,19671500.000000
3712000.000000,19671500.000000
3643879.000000,19651498.000000
3597386.000000,19597842.000000
3586000.000000,19545500.000000
3586000.000000,19194500.000000
3606002.000000,19126379.000000
3659658.000000,19079886.000000
3712000.000000,19068500.000000
3775634.000000,19068500.000000
3837816.000000,19061745.000000
3974205.000000,19010615.000000
4090761.000000,18923261.000000
4178115.000000,18806705.000000
4229245.000000,18670316.000000
4236000.000000,18608134.000000
4236000.000000,16511866.000000
4229245.000000,16449684.000000
4178115.000000,16313295.000000
4090761.000000,16196739.000000
3974205.000000,16109385.000000
3837816.000000,16058255.000000
3775634.000000,16051500.000000
1979366.000000,16051500.000000
1917184.000000,16058255.000000
1780795.000000,16109385.000000
1664239.000000,16196739.000000
1576885.000000,16313295.000000
1525755.000000,16449684.000000
1519000.000000,16511866.000000
1519000.000000,18608134.000000
1525755.000000,18670316.000000
1576885.000000,18806705.000000
1664239.000000,18923261.000000
1780795.000000,19010615.000000
1917184.000000,19061745.000000
1979366.000000,19068500.000000
2043000.000000,19068500.000000
2111121.000000,19088502.000000
2157614.000000,19142158.000000
2169000.000000,19194500.000000
2169000.000000,19545500.000000
2148998.000000,19613621.000000
2095342.000000,19660114.000000
2043000.000000,19671500.000000
1979366.000000,19671500.000000
1917184.000000,19678255.000000
1780795.000000,19729385.000000
1664239.000000,19816739.000000
1576885.000000,19933295.000000
1525755.000000,20069684.000000
1519000.000000,20131866.000000
1519000.000000,22228134.000000
1525755.000000,22290316.000000
1576885.000000,22426705.000000
1664239.000000,22543261.000000
1780795.000000,22630615.000000
1917184.000000,22681745.000000
1979366.000000,22688500.000000
3775634.000000,22688500.000000
3837816.000000,22681745.000000
3974205.000000,22630615.000000
4090761.000000,22543261.000000
4178115.000000,22426705.000000
4229245.000000,22290316.000000
4236000.000000,22228134.000000
4236000.000000,22014500.000000
4256002.000000,21946379.000000
4309658.000000,21899886.000000
4362000.000000,21888500.000000
4473588.000000,21888500.000000
4482158.000000,21888792.000000
4532276.000000,21892209.000000
4532280.000000,21892209.000000
4539852.000000,21892725.000000
4547329.000000,21891420.000000
4547330.000000,21891420.000000
4573808.000000,21886799.000000
4602803.000000,21881738.000000
4609321.000000,21880777.000000
4672742.000000,21873102.000000
4679843.000000,21870419.000000
4682452.000000,21869778.000000
4698762.000000,21865315.000000
4701298.000000,21864550.000000
4708784.000000,21863243.000000
4767300.000000,21837556.000000
4773404.000000,21835065.000000
4775072.000000,21834435.000000
4833156.000000,21812487.000000
4839419.000000,21808183.000000
4841785.000000,21806946.000000
4856597.000000,21798701.000000
4858851.000000,21797368.000000
4865805.000000,21794315.000000
4916502.000000,21755413.000000
4921832.000000,21751541.000000
4968220.000000,21719661.000000
4968225.000000,21719656.000000
4974481.000000,21715357.000000
5015936.000000,21668829.000000
5020916.000000,21663554.000000
5128905.000000,21555565.000000
5191217.000000,21521539.000000
5262032.000000,21526604.000000
5318868.000000,21569151.000000
5343679.000000,21635671.000000
5344000.000000,21644660.000000
5344000.000000,23245367.000000
5343708.000000,23253937.000000
5339775.000000,23311631.000000
5341080.000000,23319108.000000
5341080.000000,23319109.000000
5350761.000000,23374578.000000
5351723.000000,23381100.000000
5359398.000000,23444521.000000
5362081.000000,23451622.000000
5362722.000000,23454231.000000
5367185.000000,23470541.000000
5367950.000000,23473077.000000
5369257.000000,23480563.000000
5372311.000000,23487520.000000
5394942.000000,23539074.000000
5397433.000000,23545178.000000
5420013.000000,23604935.000000
5424317.000000,23611198.000000
5425554.000000,23613564.000000
5433799.000000,23628376.000000
5435132.000000,23630630.000000
5438185.000000,23637584.000000
5471523.000000,23681029.000000
5477079.000000,23688270.000000
5480959.000000,23693611.000000
5512839.000000,23739999.000000
5512844.000000,23740004.000000
5517143.000000,23746260.000000
5522813.000000,23751311.000000
5522814.000000,23751313.000000
5563670.000000,23787714.000000
5568946.000000,23792695.000000
5922656.000000,24146405.000000
5956682.000000,24208717.000000
5951617.000000,24279532.000000
5909070.000000,24336368.000000
5842550.000000,24361179.000000
5833561.000000,24361500.000000
4909366.000000,24361500.000000
4847184.000000,24368255.000000
4710795.000000,24419385.000000
4594239.000000,24506739.000000
4506885.000000,24623295.000000
4503733.000000,24631703.000000
4503732.000000,24631705.000000
4479982.000000,24695058.000000
4437341.000000,24751823.000000
4370779.000000,24776523.000000
4301430.000000,24761316.000000
4251312.000000,24711030.000000
4236000.000000,24650829.000000
4236000.000000,24131866.000000
4229245.000000,24069684.000000
4178115.000000,23933295.000000
4090761.000000,23816739.000000
3974205.000000,23729385.000000
3837816.000000,23678255.000000
3775634.000000,23671500.000000
1979366.000000,23671500.000000
1917184.000000,23678255.000000
1780795.000000,23729385.000000
1664239.000000,23816739.000000
1576885.000000,23933295.000000
1525755.000000,24069684.000000
1519000.000000,24131866.000000
1519000.000000,26228134.000000
1525755.000000,26290316.000000
1576885.000000,26426705.000000
1664239.000000,26543261.000000
1780795.000000,26630615.000000
1917184.000000,26681745.000000
1979366.000000,26688500.000000
3775634.000000,26688500.000000
3837816.000000,26681745.000000
3974205.000000,26630615.000000
4090761.000000,26543261.000000
4138971.000000,26478935.000000
4195831.000000,26436420.000000
4239797.000000,26428500.000000
4323000.000000,26428500.000000
4391121.000000,26448502.000000
4437614.000000,26502158.000000
4449000.000000,26554500.000000
4449000.000000,26618134.000000
4455755.000000,26680316.000000
4506885.000000,26816705.000000
4594239.000000,26933261.000000
4710795.000000,27020615.000000
4847184.000000,27071745.000000
4909366.000000,27078500.000000
7005634.000000,27078500.000000
7067816.000000,27071745.000000
7075216.000000,27068971.000000
7078775.000000,27067637.000000
7081738.000000,27067420.000000
7082900.000000,27067144.000000
7082945.000000,27067332.000000
7149582.000000,27062457.000000
7211950.000000,27096380.000000
7246077.000000,27158637.000000
7249000.000000,27185621.000000
7249000.000000,27235238.000000
7248998.000000,27235898.000000
7248526.000000,27326031.000000
7252076.000000,27340818.000000
7257310.000000,27362621.000000
7259878.000000,27376895.000000
7264398.000000,27414242.000000
7267083.000000,27421349.000000
7267084.000000,27421351.000000
7276145.000000,27445330.000000
7280799.000000,27460457.000000
7286785.000000,27485394.000000
7286787.000000,27485398.000000
7288558.000000,27492777.000000
7305818.000000,27526219.000000
7311713.000000,27539459.000000
7325013.000000,27574656.000000
7343845.000000,27602056.000000
7351959.000000,27615613.000000
7367209.000000,27645161.000000
7372200.000000,27650882.000000
7372204.000000,27650888.000000
7391942.000000,27673513.000000
7400836.000000,27684979.000000
7417839.000000,27709720.000000
7417844.000000,27709725.000000
7422143.000000,27715981.000000
7446962.000000,27738094.000000
7458088.000000,27749338.000000
7474945.000000,27768661.000000
7474948.000000,27768663.000000
7479939.000000,27774385.000000
7480583.000000,27774838.000000
7516298.000000,27832814.000000
7514944.000000,27903798.000000
7475428.000000,27962781.000000
7410296.000000,27991037.000000
7394747.000000,27992000.000000
1191500.000000,27992000.000000
1123379.000000,27971998.000000
1076886.000000,27918342.000000
1065500.000000,27866000.000000
1065500.000000,14604669.000000
1519501.000000,14604669.000000
1519871.000000,14611490.000000
1525395.000000,14662352.000000
1529021.000000,14677604.000000
1574176.000000,14798054.000000
1582714.000000,14813649.000000
1659215.000000,14915724.000000
1671776.000000,14928285.000000
1773851.000000,15004786.000000
1789446.000000,15013324.000000
1909894.000000,15058478.000000
1925149.000000,15062105.000000
1976014.000000,15067631.000000
1982828.000000,15068000.000000
2605385.000000,15068000.000000
2620624.000000,15063525.000000
2621829.000000,15062135.000000
2623500.000000,15054452.000000
2623500.000000,15049884.000000
3131500.000000,15049884.000000
3135975.000000,15065123.000000
3137365.000000,15066328.000000
3145048.000000,15067999.000000
3772169.000000,15067999.000000
3778990.000000,15067629.000000
3829852.000000,15062105.000000
3845104.000000,15058479.000000
3965554.000000,15013324.000000
3981149.000000,15004786.000000
4083224.000000,14928285.000000
4095785.000000,14915724.000000
4172286.000000,14813649.000000
4180824.000000,14798054.000000
4225978.000000,14677606.000000
4229605.000000,14662351.000000
4235131.000000,14611486.000000
4235500.000000,14604672.000000
4235500.000000,13832115.000000
4231025.000000,13816876.000000
4229635.000000,13815671.000000
4221952.000000,13814000.000000
3149615.000000,13814000.000000
3134376.000000,13818475.000000
3133171.000000,13819865.000000
3131500.000000,13827548.000000
3131500.000000,15049884.000000
2623500.000000,15049884.000000
2623500.000000,13832115.000000
2619025.000000,13816876.000000
2617635.000000,13815671.000000
2609952.000000,13814000.000000
1537616.000000,13814000.000000
1522377.000000,13818475.000000
1521172.000000,13819865.000000
1519501.000000,13827548.000000
1519501.000000,14604669.000000
1065500.000000,14604669.000000
1065500.000000,9897885.000000
2159500.000000,9897885.000000
2163975.000000,9913124.000000
2165365.000000,9914329.000000
2173048.000000,9916000.000000
3145385.000000,9916000.000000
3160624.000000,9911525.000000
3161829.000000,9910135.000000
3163500.000000,9902452.000000
3163500.000000,9897885.000000
3671500.000000,9897885.000000
3675975.000000,9913124.000000
3677365.000000,9914329.000000
3685048.000000,9916000.000000
4657384.000000,9916000.000000
4672623.000000,9911525.000000
4673828.000000,9910135.000000
4675499.000000,9902452.000000
4675499.000000,8875331.000000
4675129.000000,8868510.000000
4669605.000000,8817648.000000
4665979.000000,8802396.000000
4620824.000000,8681946.000000
4612286.000000,8666351.000000
4535785.000000,8564276.000000
4523224.000000,8551715.000000
4421149.000000,8475214.000000
4405554.000000,8466676.000000
4285106.000000,8421522.000000
4269851.000000,8417895.000000
4218986.000000,8412369.000000
4212172.000000,8412000.000000
3689615.000000,8412000.000000
3674376.000000,8416475.000000
3673171.000000,8417865.000000
3671500.000000,8425548.000000
3671500.000000,9897885.000000
3163500.000000,9897885.000000
3163500.000000,8430116.000000
3159025.000000,8414877.000000
3157635.000000,8413672.000000
3149952.000000,8412001.000000
2622831.000000,8412001.000000
2616010.000000,8412371.000000
2565148.000000,8417895.000000
2549896.000000,8421521.000000
2429446.000000,8466676.000000
2413851.000000,8475214.000000
2311776.000000,8551715.000000
2299215.000000,8564276.000000
2222714.000000,8666351.000000
2214176.000000,8681946.000000
2169022.000000,8802394.000000
2165395.000000,8817649.000000
2159869.000000,8868514.000000
2159500.000000,8875328.000000
2159500.000000,9897885.000000
1065500.000000,9897885.000000
1065500.000000,4464669.000000
2159501.000000,4464669.000000
2159871.000000,4471490.000000
2165395.000000,4522352.000000
2169021.000000,4537604.000000
2214176.000000,4658054.000000
2222714.000000,4673649.000000
2299215.000000,4775724.000000
2311776.000000,4788285.000000
2413851.000000,4864786.000000
2429446.000000,4873324.000000
2549894.000000,4918478.000000
2565149.000000,4922105.000000
2616014.000000,4927631.000000
2622828.000000,4928000.000000
3145385.000000,4928000.000000
3160624.000000,4923525.000000
3161829.000000,4922135.000000
3163500.000000,4914452.000000
3163500.000000,4909884.000000
3671500.000000,4909884.000000
3675975.000000,4925123.000000
3677365.000000,4926328.000000
3685048.000000,4927999.000000
4212169.000000,4927999.000000
4218990.000000,4927629.000000
4269852.000000,4922105.000000
4285104.000000,4918479.000000
4405554.000000,4873324.000000
4421149.000000,4864786.000000
4523224.000000,4788285.000000
4535785.000000,4775724.000000
4612286.000000,4673649.000000
4620824.000000,4658054.000000
4665978.000000,4537606.000000
4669605.000000,4522351.000000
4675131.000000,4471486.000000
4675500.000000,4464672.000000
4675500.000000,3442115.000000
4671025.000000,3426876.000000
4669635.000000,3425671.000000
4661952.000000,3424000.000000
3689615.000000,3424000.000000
3674376.000000,3428475.000000
3673171.000000,3429865.000000
3671500.000000,3437548.000000
3671500.000000,4909884.000000
3163500.000000,4909884.000000
3163500.000000,3442115.000000
3159025.000000,3426876.000000
3157635.000000,3425671.000000
3149952.000000,3424000.000000
2177616.000000,3424000.000000
2162377.000000,3428475.000000
2161172.000000,3429865.000000
2159501.000000,3437548.000000
2159501.000000,4464669.000000
1065500.000000,4464669.000000
1065500.000000,2897885.000000
2159500.000000,2897885.000000
2163975.000000,2913124.000000
2165365.000000,2914329.000000
2173048.000000,2916000.000000
3145385.000000,2916000.000000
3160624.000000,2911525.000000
3161829.000000,2910135.000000
3163500.000000,2902452.000000
3163500.000000,2897885.000000
3671500.000000,2897885.000000
3675975.000000,2913124.000000
3677365.000000,2914329.000000
3685048.000000,2916000.000000
4657384.000000,2916000.000000
4672623.000000,2911525.000000
4673828.000000,2910135.000000
4675499.000000,2902452.000000
4675499.000000,1875331.000000
4675129.000000,1868510.000000
4669605.000000,1817648.000000
4665979.000000,1802396.000000
4620824.000000,1681946.000000
4612286.000000,1666351.000000
4535785.000000,1564276.000000
4523224.000000,1551715.000000
4421149.000000,1475214.000000
4405554.000000,1466676.000000
4285106.000000,1421522.000000
4269851.000000,1417895.000000
4218986.000000,1412369.000000
4212172.000000,1412000.000000
3689615.000000,1412000.000000
3674376.000000,1416475.000000
3673171.000000,1417865.000000
3671500.000000,1425548.000000
3671500.000000,2897885.000000
3163500.000000,2897885.000000
3163500.000000,1430116.000000
3159025.000000,1414877.000000
3157635.000000,1413672.000000
3149952.000000,1412001.000000
2622831.000000,1412001.000000
2616010.000000,1412371.000000
2565148.000000,1417895.000000
2549896.000000,1421521.000000
2429446.000000,1466676.000000
2413851.000000,1475214.000000
2311776.000000,1551715.000000
2299215.000000,1564276.000000
2222714.000000,1666351.000000
2214176.000000,1681946.000000
2169022.000000,1802394.000000
2165395.000000,1817649.000000
2159869.000000,1868514.000000
2159500.000000,1875328.000000
2159500.000000,2897885.000000
1065500.000000,2897885.000000
1065500.000000,1134000.000000
1085502.000000,1065879.000000
1139158.000000,1019386.000000
1191500.000000,1008000.000000
23923500.000000,1008000.000000
Z" /> 
<path style="fill:#000000; fill-opacity:1.0; 
stroke:#000000; stroke-width:1.000000; stroke-opacity:1; 
stroke-linecap:round; stroke-linejoin:round;fill-rule:evenodd;"
d="M 6248621.000000,13796002.000000
6295114.000000,13849658.000000
6306500.000000,13902000.000000
6306500.000000,15519884.000000
6310975.000000,15535123.000000
6312365.000000,15536328.000000
6320048.000000,15537999.000000
6497169.000000,15537999.000000
6503990.000000,15537629.000000
6554852.000000,15532105.000000
6570104.000000,15528479.000000
6642558.000000,15501317.000000
6713365.000000,15496134.000000
6731016.000000,15501316.000000
6812184.000000,15531745.000000
6874366.000000,15538500.000000
7770634.000000,15538500.000000
7832816.000000,15531745.000000
7913270.000000,15501584.000000
7984077.000000,15496401.000000
8001729.000000,15501584.000000
8082184.000000,15531745.000000
8144366.000000,15538500.000000
9040634.000000,15538500.000000
9102816.000000,15531745.000000
9183270.000000,15501584.000000
9254077.000000,15496401.000000
9271729.000000,15501584.000000
9352184.000000,15531745.000000
9414366.000000,15538500.000000
9636351.000000,15538500.000000
9704472.000000,15558502.000000
9725446.000000,15575405.000000
15270561.000000,21120520.000000
15276415.000000,21126786.000000
15297949.000000,21151471.000000
15327657.000000,21215953.000000
15329000.000000,21234300.000000
15329000.000000,21538134.000000
15335755.000000,21600316.000000
15386885.000000,21736705.000000
15439528.000000,21806946.000000
15460130.000000,21834435.000000
15484978.000000,21900941.000000
15469925.000000,21970324.000000
15460132.000000,21985562.000000
15386885.000000,22083295.000000
15335755.000000,22219684.000000
15329000.000000,22281866.000000
15329000.000000,22345500.000000
15308998.000000,22413621.000000
15255342.000000,22460114.000000
15203000.000000,22471500.000000
13758160.000000,22471500.000000
13690039.000000,22451498.000000
13669065.000000,22434595.000000
10807905.000000,19573435.000000
10773879.000000,19511123.000000
10771000.000000,19484340.000000
10771000.000000,18581866.000000
10764245.000000,18519684.000000
10713115.000000,18383295.000000
10625761.000000,18266739.000000
10509205.000000,18179385.000000
10372816.000000,18128255.000000
10310634.000000,18121500.000000
9414366.000000,18121500.000000
9352184.000000,18128255.000000
9293750.000000,18150161.000000
9271730.000000,18158416.000000
9200923.000000,18163599.000000
9183270.000000,18158416.000000
9161250.000000,18150161.000000
9102816.000000,18128255.000000
9040634.000000,18121500.000000
8144366.000000,18121500.000000
8082184.000000,18128255.000000
8023750.000000,18150161.000000
8001730.000000,18158416.000000
7930923.000000,18163599.000000
7913270.000000,18158416.000000
7891250.000000,18150161.000000
7832816.000000,18128255.000000
7770634.000000,18121500.000000
7763160.000000,18121500.000000
7695039.000000,18101498.000000
7674065.000000,18084595.000000
5948394.000000,16358924.000000
5914368.000000,16296612.000000
5911489.000000,16269829.000000
5911489.000000,13902000.000000
5931491.000000,13833879.000000
5985147.000000,13787386.000000
6037489.000000,13776000.000000
6180500.000000,13776000.000000
Z" /> 
<path style="fill:#000000; fill-opacity:1.0; 
stroke:#000000; stroke-width:1.000000; stroke-opacity:1; 
stroke-linecap:round; stroke-linejoin:round;fill-rule:evenodd;"
d="M 18690977.000000,9269251.000000
18725107.000000,9331506.000000
18728031.000000,9358495.000000
18728031.000000,11592039.000000
18708029.000000,11660160.000000
18654373.000000,11706653.000000
18584099.000000,11716757.000000
18557801.000000,11710021.000000
18455106.000000,11671522.000000
18439851.000000,11667895.000000
18388986.000000,11662369.000000
18382172.000000,11662000.000000
17359615.000000,11662000.000000
17344376.000000,11666475.000000
17343171.000000,11667865.000000
17341500.000000,11675548.000000
17341500.000000,13148000.000000
17321498.000000,13216121.000000
17267842.000000,13262614.000000
17215500.000000,13274000.000000
15347616.000000,13274000.000000
15332377.000000,13278475.000000
15331172.000000,13279865.000000
15329501.000000,13287548.000000
15329501.000000,13914669.000000
15329871.000000,13921490.000000
15335395.000000,13972352.000000
15339021.000000,13987604.000000
15384176.000000,14108054.000000
15392714.000000,14123649.000000
15460442.000000,14214018.000000
15485290.000000,14280525.000000
15470237.000000,14349907.000000
15460442.000000,14365148.000000
15386885.000000,14463295.000000
15335755.000000,14599684.000000
15329000.000000,14661866.000000
15329000.000000,16458134.000000
15335755.000000,16520316.000000
15386885.000000,16656705.000000
15460130.000000,16754435.000000
15484978.000000,16820941.000000
15469925.000000,16890324.000000
15460132.000000,16905562.000000
15386885.000000,17003295.000000
15335755.000000,17139684.000000
15329000.000000,17201866.000000
15329000.000000,18870829.000000
15308998.000000,18938950.000000
15255342.000000,18985443.000000
15185068.000000,18995547.000000
15120488.000000,18966053.000000
15113905.000000,18959924.000000
10807905.000000,14653924.000000
10773879.000000,14591612.000000
10771000.000000,14564829.000000
10771000.000000,13353531.000000
10791002.000000,13285410.000000
10844658.000000,13238917.000000
10897000.000000,13227531.000000
12469557.000000,13227531.000000
12478127.000000,13227823.000000
12528245.000000,13231240.000000
12528249.000000,13231240.000000
12535821.000000,13231756.000000
12543298.000000,13230451.000000
12543299.000000,13230451.000000
12569777.000000,13225830.000000
12598772.000000,13220769.000000
12605290.000000,13219808.000000
12668711.000000,13212133.000000
12675812.000000,13209450.000000
12678421.000000,13208809.000000
12694731.000000,13204346.000000
12697267.000000,13203581.000000
12704753.000000,13202274.000000
12763269.000000,13176587.000000
12769373.000000,13174096.000000
12822017.000000,13154204.000000
12822018.000000,13154203.000000
12829125.000000,13151518.000000
12835388.000000,13147214.000000
12837754.000000,13145977.000000
12852566.000000,13137732.000000
12854820.000000,13136399.000000
12861774.000000,13133346.000000
12912471.000000,13094444.000000
12917801.000000,13090572.000000
12964189.000000,13058692.000000
12964194.000000,13058687.000000
12970450.000000,13054388.000000
13011905.000000,13007860.000000
13016885.000000,13002585.000000
13271585.000000,12747885.000000
15329500.000000,12747885.000000
15333975.000000,12763124.000000
15335365.000000,12764329.000000
15343048.000000,12766000.000000
16815385.000000,12766000.000000
16830624.000000,12761525.000000
16831829.000000,12760135.000000
16833500.000000,12752452.000000
16833500.000000,11680116.000000
16829025.000000,11664877.000000
16827635.000000,11663672.000000
16819952.000000,11662001.000000
15792831.000000,11662001.000000
15786010.000000,11662371.000000
15735148.000000,11667895.000000
15719896.000000,11671521.000000
15599446.000000,11716676.000000
15583851.000000,11725214.000000
15481776.000000,11801715.000000
15469215.000000,11814276.000000
15392714.000000,11916351.000000
15384176.000000,11931946.000000
15339022.000000,12052394.000000
15335395.000000,12067649.000000
15329869.000000,12118514.000000
15329500.000000,12125328.000000
15329500.000000,12747885.000000
13271585.000000,12747885.000000
16694065.000000,9325405.000000
16756377.000000,9291379.000000
16783160.000000,9288500.000000
18385634.000000,9288500.000000
18447816.000000,9281745.000000
18557802.000000,9240513.000000
18628608.000000,9235330.000000
Z" /> 
<path style="fill:#000000; fill-opacity:1.0; 
stroke:#000000; stroke-width:1.000000; stroke-opacity:1; 
stroke-linecap:round; stroke-linejoin:round;fill-rule:evenodd;"
d="M 8050833.000000,11948502.000000
8097326.000000,12002158.000000
8107430.000000,12072432.000000
8077936.000000,12137012.000000
8070651.000000,12144323.000000
8067841.000000,12147444.000000
8062115.000000,12152439.000000
8036044.000000,12189534.000000
8025372.000000,12204719.000000
8021439.000000,12210014.000000
7982024.000000,12260282.000000
7978901.000000,12267198.000000
7977517.000000,12269484.000000
7969143.000000,12284165.000000
7967878.000000,12286525.000000
7963510.000000,12292739.000000
7960750.000000,12299818.000000
7960749.000000,12299820.000000
7940298.000000,12352275.000000
7937747.000000,12358344.000000
7911455.000000,12416573.000000
7910071.000000,12424041.000000
7907798.000000,12431292.000000
7905329.000000,12430518.000000
7878837.000000,12482829.000000
7817610.000000,12518770.000000
7777457.000000,12521525.000000
7777428.000000,12522053.000000
7774031.000000,12521869.000000
7770634.000000,12521500.000000
6874366.000000,12521500.000000
6812184.000000,12528255.000000
6731017.000000,12558683.000000
6660211.000000,12563866.000000
6642558.000000,12558683.000000
6570106.000000,12531522.000000
6554851.000000,12527895.000000
6503986.000000,12522369.000000
6497172.000000,12522000.000000
6371660.000000,12522000.000000
6303539.000000,12501998.000000
6257046.000000,12448342.000000
6246942.000000,12378068.000000
6276436.000000,12313488.000000
6282565.000000,12306905.000000
6624065.000000,11965405.000000
6686377.000000,11931379.000000
6713160.000000,11928500.000000
7982712.000000,11928500.000000
Z" /> 
</g>
</g>
</g>
<g style="fill:#FFFFFF; fill-opacity:1.0; 
stroke:#FFFFFF; stroke-width:1.000000; stroke-opacity:1; 
stroke-linecap:round; stroke-linejoin:round;">
</g>
<g style="fill:#000000; fill-opacity:1.0; 
stroke:#000000; stroke-width:1.000000; stroke-opacity:1; 
stroke-linecap:round; stroke-linejoin:round;">
</g> 
</svg>
