<?xml version="1.0" encoding="UTF-8" standalone="no"?>
<!-- Created with Inkscape (http://www.inkscape.org/) -->

<svg
   width="311.07285mm"
   height="320.78497mm"
   viewBox="0 0 311.07285 320.78497"
   version="1.1"
   id="svg9622"
   inkscape:version="1.1.1 (3bf5ae0d25, 2021-09-20)"
   sodipodi:docname="autotrace.svg"
   xmlns:inkscape="http://www.inkscape.org/namespaces/inkscape"
   xmlns:sodipodi="http://sodipodi.sourceforge.net/DTD/sodipodi-0.dtd"
   xmlns="http://www.w3.org/2000/svg"
   xmlns:svg="http://www.w3.org/2000/svg">
  <sodipodi:namedview
     id="namedview9624"
     pagecolor="#ffffff"
     bordercolor="#666666"
     borderopacity="1.0"
     inkscape:pageshadow="2"
     inkscape:pageopacity="0.0"
     inkscape:pagecheckerboard="0"
     inkscape:document-units="mm"
     showgrid="false"
     inkscape:zoom="0.65032267"
     inkscape:cx="632.76281"
     inkscape:cy="527.43048"
     inkscape:window-width="1920"
     inkscape:window-height="1025"
     inkscape:window-x="0"
     inkscape:window-y="27"
     inkscape:window-maximized="1"
     inkscape:current-layer="layer1" />
  <defs
     id="defs9619" />
  <g
     inkscape:label="Layer 1"
     inkscape:groupmode="layer"
     id="layer1"
     transform="translate(65.215878,56.239068)">
    <a
       id="a9606"
       transform="matrix(0.26458333,0,0,0.26458333,-503.63725,-112.85826)">
      <path
         style="fill:#f51409;stroke:none"
         d="m 2199.7295,214.94482 c -17.242,2.46912 -34.901,3.02686 -52,6.18678 -22.396,4.1389 -44.364,12.4991 -66,19.3564 -18.557,5.8815 -38.053,10.2156 -56,17.9014 -35.937,15.39 -66.49,37.9565 -100,57.4612 -11.5,6.694 -18.724,16.377 -28.104,25.238 -11.776,11.123 -25.119,20.664 -36.621,32.093 -5.232,5.198 -8.859,19.05 0.74,21.759 11.03,3.111 28.208,-15.489 35.985,-22.013 30.36,-25.472 57.053,-51.07 93,-69.0406 37.777,-18.8858 77.839,-37.1807 119,-48.4499 63.478,-17.3792 131.986,-18.2756 197,-11.75 56.559,5.6769 116.627,28.1671 166,55.0309 18.379,10.0001 37.2,17.8706 54,30.6826 21.647,16.509 39.931,36.614 62,52.692 6.426,4.681 15.129,15.317 23.995,12.848 5.782,-1.611 6.669,-7.209 5.626,-12.424 -2.103,-10.518 -12.406,-14.909 -19.197,-22.086 -27.105,-28.644 -58.557,-50.1507 -91.424,-71.7049 -35.664,-23.3881 -75.699,-36.1691 -116,-48.6451 -21.111,-6.5353 -42.234,-14.402 -64,-18.7561 -29.102,-5.82157 -58.393,-6.8079 -88,-6.8079 -13.059,0 -27.065,-1.42395 -40,0.42822 m -463,45.57178 c -0.2886,13.9098 -13.618,22.4424 -20.3704,34 -4.7369,8.1079 -2.981,15.2272 -3.9112,24 -0.4572,4.312 1.5426,17.683 -3.9885,19.654 -3.3724,1.202 -4.8717,-4.493 -5.547,-6.654 -1.0558,-3.378 -0.5744,-7.902 -2.7863,-10.772 -2.741,-3.555 -24.6494,-15.6184 -25.8148,-7.135 -0.6014,4.378 5.7756,7.393 8.4028,9.95 5.149,5.012 10.3412,12.907 12.2075,19.957 2.3949,9.047 -8.6425,14.562 -4.2369,25 4.5561,10.795 14.4243,14.571 20.446,24 4.5341,7.1 3.3691,17.255 7.8727,24.83 3.8542,6.483 10.8456,10.816 14.9074,17.17 5.3756,8.409 5.2323,21.426 7.8696,31 1.2722,4.618 3.941,8.079 3.9491,13 -12.9557,-15.602 -28.8693,-31.951 -36.6474,-51 -5.5617,-13.622 -7.2032,-35.582 -22.3526,-42 l 3,34 c -24.7974,1.732 -18.7308,-27.873 -22,-43 -20.5865,7.797 -5.3728,35.365 -4.1042,49 1.4743,15.845 -5.3379,39.807 2.9437,54 5.9543,10.204 15.5318,13.03 24.0702,19.783 3.3955,2.686 7.3197,6.354 5.4823,11.159 -3.4022,8.898 -18.7531,4.148 -25.392,7.058 3.4095,6.498 17.9907,5.265 19.0787,12.936 0.4473,3.153 -4.59,5.018 -6.2006,7.197 -5.3621,7.252 -15.7322,16.934 -10.6991,26.863 4.2696,8.423 15.9117,9.807 20.7423,18.008 4.0406,6.86 0.061,18.282 7.1875,23.254 6.0505,4.22 15.9722,2.343 22.8912,2.831 2.3722,0.168 7.6725,0.357 8.5386,3.221 2.1313,7.048 -12.696,9.248 -16.5347,10.915 -7.12,3.09 -11.155,11.579 -19.0039,13.341 -11.0018,2.471 -17.9169,-7.267 -28,-7.566 0,15.128 7.9452,18.44 17.6204,27.43 4.0321,3.746 5.5246,8.22 10.3842,11.381 3.7989,2.471 13.5018,9.297 9.348,14.876 -4.8286,6.485 -17.5151,3.685 -24.3526,5.313 2.2512,7.149 23.7683,12.632 31,12.961 22.1769,1.008 44.639,-2.962 67,-2.961 6.662,0 21.208,-0.999 26.44,3.742 8.81,7.982 3.314,21.354 -7.44,23.059 -12.623,2.001 -26.555,-1.413 -37.961,-6.701 -4.704,-2.182 -12.0208,-9.608 -17.7203,-7.403 -4.3693,1.69 -0.6372,8.078 1.0756,10.303 3.6356,4.723 8.2643,10.666 12.7897,14.526 2.407,2.052 6.081,2.939 7.788,5.738 4.022,6.592 -1.979,14.514 6.072,19.731 5.891,3.817 18.231,1.525 22.018,7.153 3.931,5.843 1.216,15.606 -0.062,21.852 5.442,-0.847 8.102,-8.241 13.04,-8.044 12.828,0.511 20.219,12.945 34.945,10.855 6.138,-0.871 10.135,-7.007 16.015,-9.111 18.218,-6.52 36.968,-8.026 56,-4.389 13.819,2.641 28.577,6.489 31.789,21.689 0.758,3.585 1.858,7.446 -0.379,10.714 -10.186,14.89 -19.368,-1.876 -31.41,-2.62 -11.59,-0.716 -34.359,10.51 -42,18.906 7.454,2.203 15.341,-0.009 23,1.118 7.484,1.101 14.989,5.367 21.039,9.72 6.636,4.774 16.007,10.453 21.432,16.463 9.849,10.912 10.631,21.328 26.529,25.709 11.16,3.076 22.971,-3.462 34,-0.58 4.63,1.209 8.48,5.055 12.285,7.784 3.338,2.393 8.996,4.216 9.548,8.83 0.568,4.756 -2.966,9.327 -7.833,9.38 -13.318,0.143 -27.021,-8.797 -38.606,2.966 -1.546,1.569 -2.564,3.548 -3.285,5.611 -6.327,18.099 12.64,6.758 19.033,15.278 4.579,6.102 -1.524,14.224 2.867,20.578 5.934,8.587 17.123,1.221 23.558,6.746 2.316,1.989 2.743,5.494 4.732,7.821 12.734,14.889 27.36,29.767 48.701,23.517 6.546,-1.918 10.116,-8.349 16.039,-11.221 6.19,-3.001 11.896,-0.557 12.961,6.28 5.933,0 13.46,-1.173 18.571,2.474 7.132,5.09 6.058,13.671 16.429,14.436 17.038,1.256 28.176,-15.931 44,-15.646 16.214,0.292 27.221,11.724 41,17.647 5.628,2.419 16.796,2.776 23,2.959 10.833,0.32 25.038,-1.055 35,-5.338 11.109,-4.776 18.57,-11.838 31,-14.155 19.253,-3.591 31.979,14.906 51,13.533 10.314,-0.745 10.292,-8.579 17.429,-13.878 5.264,-3.908 11.823,-0.041 17.258,-2.635 3.291,-1.572 3.235,-5.765 7.332,-6.784 8.414,-2.093 13.079,6.467 19.151,10.188 6.247,3.829 19.989,4.797 26.83,1.971 10.165,-4.198 19.601,-15.111 26.567,-23.348 2.179,-2.576 2.536,-6.606 5.58,-8.396 6.464,-3.801 16.386,1.81 21.844,-5.33 4.524,-5.92 -0.352,-14.412 3.188,-20.565 5.411,-9.403 23.625,2.13 19.998,-14.133 -0.383,-1.718 -0.869,-3.416 -1.746,-4.956 -7.279,-12.785 -25.121,-8.487 -36.431,-6.164 -6.185,1.271 -11.978,-0.331 -11.887,-7.875 0.069,-5.7 5.942,-7.442 9.887,-10.294 3.768,-2.725 7.327,-6.251 12,-7.317 10.862,-2.478 22.019,3.308 33,0.566 17.825,-4.452 17.102,-16.941 29.104,-27.686 10.375,-9.288 25.112,-20.509 38.896,-23.864 7.628,-1.856 16.21,-0.41 24,-0.41 -1.961,-6.079 -9.605,-7.939 -15,-10.128 -9.911,-4.021 -18.503,-11.88 -30,-9.389 -6.977,1.512 -10.516,8.782 -17.986,8.65 -12.628,-0.225 -11.539,-14.97 -8.671,-23.129 3.025,-8.602 14.753,-11.778 22.657,-13.658 21.432,-5.098 40.946,-5.127 62,1.747 6.469,2.113 11.503,9.053 18.015,9.798 14.165,1.622 20.455,-7.385 32.985,-10.518 4.63,-1.158 10.34,9.553 13.2,6.795 4.16,-4 -3.42,-16.312 2.12,-21.85 4.7,-4.698 14.79,-2.268 20.68,-6.056 8.61,-5.545 2.46,-11.991 6.32,-19.157 3.66,-6.808 14.29,-13.319 19.64,-19.529 2.02,-2.356 5.82,-7.655 3.69,-10.958 -2.48,-3.825 -11.16,1.744 -13.65,3.243 -12.27,7.377 -28.57,12.515 -43.04,9.955 -10.8,-1.912 -15.87,-13.706 -8.15,-22.383 4.8,-5.383 19.53,-4.43 26.19,-4.433 22.86,-0.009 46.38,4.577 69,2.91 6.83,-0.504 27.9,-6.242 30,-12.91 -5.33,-1.268 -10.69,-0.357 -16,-1.376 -9.98,-1.914 -12.4,-9.031 -3.9,-15.744 5.86,-4.622 9.75,-9.737 15.11,-14.566 4.81,-4.33 9.56,-5.32 13.29,-11.353 2.22,-3.576 6.04,-9.231 3.9,-13.642 -2.32,-4.756 -18.45,4.89 -23.4,5.391 -9.43,0.954 -14.08,-7.825 -21.09,-12.366 -3.35,-2.173 -7.32,-2.145 -10.91,-3.711 -2.77,-1.21 -6.77,-3.437 -7.65,-6.591 -1.04,-3.672 4.13,-4.58 6.65,-4.868 7.37,-0.841 17.16,1.391 23.89,-2.492 8.29,-4.78 3.51,-18.248 8.83,-25.508 4.93,-6.724 17.66,-8.718 19.96,-17.263 2.71,-10.065 -5.24,-18.261 -10.68,-25.687 -1.72,-2.342 -6.71,-3.867 -6.65,-7.174 0.11,-6.84 20.01,-6.6 17.9,-12.696 -0.92,-2.663 -5.24,-1.529 -7.25,-1.443 -5.57,0.237 -16.74,-0.638 -17.22,-7.926 -0.29,-4.535 3.97,-7.689 7.22,-10.137 7.92,-5.961 16.69,-8.896 22.43,-17.852 9.28,-14.501 2.15,-39.607 3.67,-55.996 0.94,-10.043 6.08,-18.822 5.9,-28.996 -0.13,-6.525 -4.08,-15.973 -10,-19.004 -3.04,12.052 1.84,26.223 -7.6,36.593 -2.99,3.281 -10.29,11.424 -14.28,4.128 -5.11,-9.328 4.42,-22.421 2.88,-31.721 -11.23,3.817 -12.45,14.37 -16.26,24 -5.26,13.324 -9.7,26.087 -18.06,37.996 -7.08,10.075 -19.13,19.648 -23.68,31.004 h -1 c -0.44,-5.37 2.56,-9.898 3.99,-15 2.42,-8.684 2.28,-20.307 7,-28.015 4.15,-6.77 11.53,-11.44 15.45,-18.194 4.6,-7.909 3.23,-18.755 8.28,-25.776 6.06,-8.435 15.14,-12.136 19.63,-22.015 4.95,-10.888 -6.39,-16.905 -4.07,-26 1.94,-7.568 7.99,-16.312 13.81,-21.335 2.49,-2.147 8.43,-5.397 6.73,-9.518 -3.38,-8.2418 -12.17,2.377 -15.86,3.821 -3.38,1.324 -7.75,0.909 -9.93,4.376 -2.07,3.274 -1.93,8.885 -3.3,12.651 -0.78,2.131 -2.29,6.339 -5.32,4.253 -7.63,-5.264 -2.52,-26.358 -3.85,-34.248 -2.31,-13.6119 -14.97,-21.141 -21.7,-32.0393 -2.02,-3.267 -1.79,-7.3707 -2.86,-10.9607 h -2 c -4.87,16.4806 8.41,26.2274 9.87,41 0.94,9.596 -9.56,10.016 -11.85,18.015 -2.74,9.562 2.5,19.13 0.75,28.985 -1.3,7.35 -7.86,10.207 -12.27,15.259 -3.22,3.68 -4.41,7.702 -8.5,10.741 -3.9,-13.87 -0.1,-29.638 -6.57,-42.999 -4.29,-8.86 -15.04,-9.243 -21.04,-16.109 -5.48,-6.2636 -4.06,-14.7183 -7.3,-21.8913 -3.59,-7.9519 -12.64,-10.9433 -20.09,-14.4707 -2.31,-1.0924 -6.69,-4.224 -9.26,-2.4475 -5.2,3.5968 0.7,11.9794 3.25,14.9175 10.59,12.2024 22.23,28.14 28.76,43 15.13,34.409 2.82,80.735 -12.45,113 -3.62,7.652 -6.2,16.95 -10.99,23.911 -18.09,26.3 -36.33,54.234 -57.886,78 -64.922,71.577 -144.969,129.214 -224.424,183.283 -25.545,17.384 -52.581,32.342 -78.714,48.882 -6.021,3.811 -20.1,17.273 -27.193,16.544 -5.502,-0.566 -5.689,-8.78 -4.25,-12.62 6.698,-17.878 15.111,-31.416 6.346,-51 -7.393,-16.519 -21.361,-19.359 -35.189,-27.776 -7.761,-4.723 -13.927,-12.204 -19.536,-19.224 -9.899,-12.387 -12.74,-28.96 -16.115,-44 -1.318,-5.875 -3.666,-13.956 -2.031,-19.941 1.003,-3.675 5.322,-3.726 6.365,-7.206 3.615,-12.067 4.237,-26.034 12.312,-36.69 3.097,-4.088 7.955,-0.892 11.626,-3.767 6.239,-4.886 10.013,-15.126 12.379,-22.396 h 2 c 5.188,18.463 -0.46,37.473 -6.692,55 -2.917,8.203 -7.772,17.218 -8.265,26 -0.449,8.012 0.455,16.07 5.09,22.895 1.758,2.59 6.031,6.133 9.353,4.034 2.444,-1.545 2.42,-5.412 2.785,-7.929 1.057,-7.288 3.61,-13.043 5.729,-20 h 2 c 2.741,11.847 11.512,23.891 11.956,36 0.41,11.192 -6.893,19.022 -17.956,17 l -1,1 c 10.676,21.024 39.37,4.046 47.791,-10 5.378,-8.971 13.174,-22.497 14.104,-33 0.962,-10.859 -5.147,-19.883 -7.431,-30 -1.751,-7.756 -0.172,-15.33 -1.487,-22.995 -1.37,-7.982 -6.322,-4.349 -8.523,0.996 -3.477,8.439 -5.876,27.982 -16.307,10.999 -3.918,-6.38 -2.147,-14.86 -2.147,-22 0,-21.728 7.457,-42.107 5.911,-64 -0.788,-11.147 -11.619,-19.997 -14.357,-31 -2.195,-8.82 -2.553,-19.906 -2.554,-29 0,-3.891 1.215,-10.509 -1.603,-13.663 -6.031,-6.748 -8.217,7.773 -12.282,7.033 -4.396,-0.801 -7.633,-8.745 -8.625,-12.371 -1.433,-5.237 -4.703,-10.413 -4.6,-15.999 0.124,-6.759 4.967,-13.256 6.11,-20 -13.044,-2.275 -19.834,12.181 -20.771,23 -1.285,14.835 4.407,27.679 6.471,42 1.816,12.601 0.271,28.835 -3.133,40.961 -4.949,17.63 -27.464,17.79 -37.748,28.737 -9.021,9.602 -2.274,29.52 -9.186,40.169 -5.109,7.871 -22.626,10.355 -25.199,19.177 -4.822,16.531 5.659,36.02 8.343,51.956 1.986,11.793 1.951,25.349 8.566,35.741 6.832,10.734 23.939,21.246 25.804,34.259 1.258,8.772 -7.942,14.195 -9.664,22.004 -3.433,15.567 3.096,30.094 8.308,43.996 1.439,3.838 2.784,12.634 -2.019,14.839 -2.811,1.291 -7.257,-1.307 -9.513,-2.906 -8.282,-5.872 -16.32,-12.777 -24.683,-18.808 -3.444,-2.483 -7.888,-2.726 -11.302,-5.199 -27.876,-20.195 -58.372,-38.282 -87.274,-57.891 -79.216,-53.742 -158.581,-115.126 -217.514,-191.035 -15.896,-20.475 -33.704,-41.127 -44.316,-65 -19.691,-44.298 -37.213,-97.36 -7.031,-141 7.012,-10.1383 14.504,-19.9244 21.543,-30 1.737,-2.486 3.113,-8.8241 -0.282,-10.8427 -2.623,-1.56 -7.091,1.6136 -9.4,2.7123 -7.63,3.6311 -16.577,6.7061 -19.881,15.1304 -2.854,7.2759 -1.628,15.6655 -7.499,21.661 -5.837,5.961 -15.758,6.607 -19.946,14.354 -6.761,12.507 -4.661,30.292 -6.674,43.985 -6.299,-3.632 -19.7919,-18.574 -20.8557,-26 -1.4105,-9.846 3.2212,-19.509 0.4622,-28.996 -2.3968,-8.242 -12.8037,-8.867 -11.3959,-19.004 2.0293,-14.6105 13.6588,-23.7474 9.7894,-40 h -3 m -3,639 h -1 l -24.0856,-32.17 -44.9144,-70.83 -4,1 c 2.3116,12.451 2.2336,25.472 4.3256,38 4.4875,26.873 13.1262,55.466 22.6258,81 8.0351,21.597 21.0719,41.014 32.3719,61 35.0247,61.947 79.7117,114.157 132.8467,161.624 32.24,28.801 70.519,47.214 107.83,67.966 9.468,5.27 18.715,10.03 29,13.55 3.579,1.22 9.159,3.11 12.697,0.83 3.126,-2.01 3.101,-6.7 3.574,-9.97 1.293,-8.947 2.822,-17.989 3.555,-27 0.995,-12.217 -29.137,-21.68 -38.822,-26.39 -15.074,-7.33 -28.858,-19.204 -42.004,-29.607 -19.565,-15.483 -39.213,-31.117 -55.541,-50.173 -53.169,-62.054 -99.004,-131.305 -118.5609,-211.83 -3.6207,-14.909 -8.0833,-30.734 -9.7245,-46 -1.5809,-14.705 -1.2273,-29.377 -3.9776,-44 -1.3774,-7.323 1.5124,-24.127 -5.4244,-28.725 -1.9268,-1.278 -4.5455,-2.103 -6.7716,-2.666 -20.6381,-5.224 -13.0699,23.019 -11.8341,34.391 1.5508,14.271 0.4853,28.779 2.0077,43 2.7623,25.801 10.0434,51.774 15.8264,77 m 797,238 c -0.346,8.105 -9.142,10.103 -15,13.786 -8.011,5.036 -16.284,10.92 -25,14.673 -5.84,2.515 -17.442,5.903 -21.397,10.885 -4.731,5.962 -0.305,19.847 0.668,26.656 0.701,4.909 0.257,12.43 3.046,16.68 2.184,3.33 7.43,2.38 10.683,1.56 9.197,-2.32 17.675,-6.6 26,-11.02 19.317,-10.255 39.486,-18.874 58,-30.656 14.506,-9.231 27.136,-20.313 41,-30.405 23.553,-17.145 42.958,-37.501 63.43,-58.159 54.34,-54.842 97.14,-121.036 122.27,-194 8.38,-24.337 16.67,-48.281 19.47,-74 1,-9.194 3.53,-18.871 0.83,-28 l -19.43,28 -27.47,43 -24.1,32 c -0.92,-13.72 5.99,-32.386 8.88,-46 4.93,-23.169 6.64,-45.433 7.38,-69 0.26,-8.327 8.79,-33.549 -1.56,-38.397 -6.89,-3.228 -18.53,0.791 -20.22,8.402 -7.18,32.322 -3.1,65.999 -12.97,97.995 -10.68,34.608 -19.88,69.819 -35.31,103 -20.68,44.505 -53.094,89.868 -87.406,124.7 -7.877,7.997 -17.392,13.567 -25.495,20.846 -14.886,13.371 -27.202,29.109 -46.299,37.454 m -284,-274 h -2 c -1.746,-7.087 -5.239,-14.016 -6.701,-21 -2.677,-12.781 -3.071,-26.242 -6.628,-39 -2.158,-7.739 -8.133,-17.278 -3.929,-25.686 1.272,-2.544 4.77,-2.905 6.78,-4.746 10.557,-9.667 11.477,-7.727 21.817,0.709 2.305,1.881 5.905,2.462 6.695,5.781 1.273,5.351 -3.114,15.334 -4.019,20.942 -2.373,14.693 -5.504,29.532 -8.626,44 -1.378,6.385 -0.807,12.88 -3.389,19 m -40,161 c 8.441,2.588 32.626,7.297 24.552,21.945 -3.342,6.063 -10.983,6.088 -12.327,14.055 -1.6,9.482 7.1,19.768 1.836,28.996 -4.298,7.535 -14.729,13.169 -22.061,17.35 -18.797,10.718 -42.686,17.507 -58.812,32.172 -7.077,6.436 -6.048,16.444 -9.938,24.482 -1.666,3.443 -4.69,9.842 -8.383,11.397 -5.929,2.496 -30.788,-2.747 -17.867,10.603 -11.839,7.282 14.721,8.981 19,10 l -20.387,20.04 -6.788,23.75 -26.786,17.14 -10.043,6.81 -16.996,-5.74 c -0.594,5.22 2.965,9.83 1.681,15 -1.685,6.78 -11.028,7.35 -6.108,15.94 5.596,9.78 23.231,-0.47 29.155,8.12 3.805,5.52 4.715,12.74 6.967,18.94 3.632,10.01 8.84,19.73 11.671,30 1.567,5.69 0.873,10.65 4.153,15.98 4.917,8 16.471,5.16 20.836,11.26 6.004,8.38 6.33,22.3 15.174,28.82 10.622,7.84 18.662,-7.09 27.323,-3.45 3.936,1.65 4.037,8.99 6.257,12.39 6.268,9.61 18.996,17.62 30.891,15.57 2.104,-0.36 4.142,-1.34 5.995,-2.37 16.898,-9.36 -9.925,-8.36 -13.785,-11.63 -5.759,-4.89 -12.007,-17.26 -2.209,-21.48 5.351,-2.31 9.302,5.44 14.088,6.61 11.235,2.73 25.358,3.3 36.911,3.3 33.359,0.01 66.471,-14.79 93.856,-33.36 6.633,-4.5 7.552,-23.16 8.313,-30.64 2.236,-21.98 8.9,-39.63 1.178,-61 -2.997,-8.29 -7.073,-18.4 -16.347,-21 1.473,5.25 5.961,8.19 8.308,13 1.653,3.39 0.433,6.58 1.369,10 2.957,10.81 4.767,16.21 -2.841,26.68 -3.336,4.59 -15.39,-5.27 -16.374,2.47 -0.871,6.85 9.327,8.49 9.83,14.85 0.362,4.59 -4.231,7.76 -6.464,11.17 -6.247,9.55 -10.328,21.03 -24.828,19.73 -6.896,-0.62 -19.355,-5.62 -23.722,-10.92 -9.46,-11.46 -8.995,-22.77 -27.273,-21.96 -11.582,0.51 0.126,11.14 -0.941,16.98 -2.977,16.31 -20.809,13.35 -31.064,7.05 -11.515,-7.08 -27.536,-17.23 -31.366,-31.05 -2.961,-10.68 1.218,-26.63 3.871,-37 2.691,-10.52 1.468,-25.32 16.495,-27 2.327,28.45 32.588,43.81 58,44 9.812,0.07 21.099,-0.7 28.467,-8.3 9.332,-9.63 -7.551,-14.03 -13.467,-5.7 -3.644,-2.28 -7.485,-4.81 -9.107,-9 -1.128,-2.92 -0.161,-7.04 -2.496,-9.4 -2.754,-2.78 -8.003,-1.3 -8.105,-6.62 -0.098,-5.07 6.598,-10.68 4.972,-15.66 -1.298,-3.98 -7.328,-1.2 -10.117,-2.09 -3.168,-1.02 -4.618,-6.37 -5.463,-9.23 -1.854,-6.27 1.386,-15.44 6.62,-19.397 2.762,-2.089 6.723,-1.464 8.668,-4.751 5.241,-8.856 -0.512,-17.829 11.029,-24.485 17.826,-10.283 31.609,-21.223 47.038,-34.938 3.443,-3.06 11.327,-8.844 14.724,-2.201 1.895,3.707 -2.34,8.789 -4.227,11.772 -6.429,10.164 -21.265,17.345 -24.536,29 22.019,2.445 35.875,-15.712 49.425,-29.829 6.539,-6.813 13.203,-11.535 15.938,-21.171 3.454,-12.172 -0.048,-29.907 -2.749,-42 -5.026,-22.507 -19.053,-39.54 -36.614,-52.899 -3.98,-3.027 -7.385,-7.548 -12,-9.588 -15.889,-7.022 -37.091,-7.292 -54,-5.683 -11.955,1.138 -24.236,-1.795 -36,-0.254 -4.875,0.638 -9.366,-0.352 -12,4.424 m -14.454,5.032 c -6.167,4.32 -2.065,12.524 -2.065,18.057 0,10.812 -11.154,25.018 5.519,24.91 2.196,-0.014 4.673,0.173 6.625,-1.027 12.421,-7.638 8.932,-23.26 4.085,-33.896 -1.735,-3.807 -9.528,-11.291 -14.164,-8.044 z"
         id="path9449" />
    </a>
  </g>
</svg>
