<?xml version="1.0" encoding="UTF-8" standalone="no"?>
<!-- Created with Inkscape (http://www.inkscape.org/) -->

<svg
   width="310.89545mm"
   height="320.34259mm"
   viewBox="0 0 310.89545 320.34259"
   version="1.1"
   id="svg8831"
   inkscape:version="1.1.1 (3bf5ae0d25, 2021-09-20)"
   sodipodi:docname="brightness_cutoff.svg"
   xmlns:inkscape="http://www.inkscape.org/namespaces/inkscape"
   xmlns:sodipodi="http://sodipodi.sourceforge.net/DTD/sodipodi-0.dtd"
   xmlns="http://www.w3.org/2000/svg"
   xmlns:svg="http://www.w3.org/2000/svg">
  <sodipodi:namedview
     id="namedview8833"
     pagecolor="#ffffff"
     bordercolor="#666666"
     borderopacity="1.0"
     inkscape:pageshadow="2"
     inkscape:pageopacity="0.0"
     inkscape:pagecheckerboard="0"
     inkscape:document-units="mm"
     showgrid="false"
     inkscape:zoom="0.65032267"
     inkscape:cx="648.13979"
     inkscape:cy="516.66659"
     inkscape:window-width="1920"
     inkscape:window-height="1025"
     inkscape:window-x="0"
     inkscape:window-y="27"
     inkscape:window-maximized="1"
     inkscape:current-layer="layer1" />
  <defs
     id="defs8828" />
  <g
     inkscape:label="Layer 1"
     inkscape:groupmode="layer"
     id="layer1"
     transform="translate(69.195742,85.718)">
    <path
       style="fill:#000000;stroke-width:0.264583"
       d="m 69.088061,234.49868 c -1.666108,-0.17267 -4.435052,-2.21504 -5.82512,-4.2966 -0.240268,-0.3598 -0.436853,-1.08013 -0.436853,-1.60073 0,-1.24039 -0.387535,-1.58154 -1.796574,-1.58154 -0.959485,0 -1.282779,0.13811 -1.858089,0.79375 -0.61722,0.70339 -0.862965,0.79332 -2.158947,0.79012 -0.804334,-0.003 -1.700557,-0.0676 -1.991598,-0.14597 -0.704506,-0.18955 -2.643664,-3.60992 -3.577193,-6.30962 l -0.739881,-2.13974 -1.148768,-0.0817 c -0.631799,-0.045 -1.754135,-0.36653 -2.494042,-0.71464 -1.136438,-0.53467 -1.475317,-0.87688 -2.182812,-2.20427 -0.586899,-1.10114 -0.837513,-1.93112 -0.837513,-2.77365 0,-0.68901 -0.293343,-1.91572 -0.68707,-2.87338 -0.377877,-0.91908 -1.079764,-2.62358 -1.559745,-3.78775 -1.025763,-2.48795 -1.353396,-3.41852 -1.583663,-4.49791 -0.09313,-0.43657 -0.386107,-1.27 -0.651087,-1.85209 -0.264954,-0.58208 -0.557609,-1.28159 -0.650319,-1.55445 -0.142082,-0.4181 -0.33864,-0.46895 -1.249627,-0.32327 -0.594572,0.0951 -2.140188,0.0929 -3.434715,-0.005 -2.280973,-0.17219 -2.365957,-0.20228 -2.751032,-0.97415 -0.568695,-1.13998 -0.52541,-2.30266 0.08573,-2.30266 0.265668,0 0.741918,-0.27557 1.058333,-0.61238 0.720011,-0.76642 0.806477,-2.92695 0.146315,-3.65641 -0.238363,-0.26342 -0.354833,-0.66717 -0.262123,-0.90879 0.214524,-0.55899 1.253887,-0.32973 2.557383,0.56409 1.043491,0.71551 2.644617,0.86087 3.208047,0.29128 0.192299,-0.19442 0.771578,-0.81949 1.28733,-1.38906 1.355963,-1.49754 2.594875,-2.33053 4.001373,-2.69034 1.253199,-0.32059 3.105388,-1.41068 3.454506,-2.03314 0.10533,-0.1878 0.30771,-1.36395 0.449712,-2.61366 0.381027,-3.35338 0.639313,-3.71938 4.681247,-6.63371 1.493519,-1.07685 2.295366,-2.28931 1.825042,-2.7596 -0.151447,-0.15145 -1.816338,-0.42286 -4.567819,-0.74467 -1.1244,-0.13153 -1.389063,-0.25707 -1.389063,-0.65887 0,-0.30924 0.187325,-0.49641 0.496782,-0.49641 0.273209,0 0.63881,-0.17119 0.812456,-0.38039 0.257387,-0.31015 0.165629,-0.45802 -0.496755,-0.80055 -0.574807,-0.29731 -0.812483,-0.61174 -0.812483,-1.0749 v -0.65466 h 2.795508 c 2.644458,0 3.819076,-0.24291 3.819076,-0.7898 0,-0.13309 0.332581,-0.75399 0.73906,-1.37975 0.791581,-1.21859 1.220523,-2.36652 1.505665,-4.02926 0.479636,-2.79718 2.159317,-4.51387 5.972333,-6.10402 0.937631,-0.39103 2.002473,-0.99121 2.366275,-1.33374 0.363802,-0.34253 2.429219,-1.46428 4.589833,-2.4928 5.864251,-2.79151 9.703435,-5.4116 10.41101,-7.10501 0.426217,-1.0201 0.231563,-3.71163 -0.35179,-4.86445 -0.907018,-1.79239 -0.07255,-4.41457 1.578186,-4.95935 0.472493,-0.15594 1.063652,-0.62984 1.313683,-1.05312 0.391239,-0.66233 0.412803,-0.96459 0.154623,-2.16839 -0.383593,-1.78866 -1.307889,-2.74862 -2.892558,-3.00424 -0.647329,-0.1044 -1.440656,-0.357 -1.762945,-0.56128 -0.322315,-0.20429 -0.897784,-0.37145 -1.278837,-0.37145 -0.43606,0 -0.652357,-0.12256 -0.583671,-0.33073 0.176292,-0.53427 2.46642,-0.67371 11.520541,-0.70144 l 8.542866,-0.0262 3.363383,0.81597 c 3.033213,0.73589 3.467293,0.91583 4.421723,1.83293 0.58208,0.55933 2.10211,1.72606 3.37783,2.59276 1.27574,0.86669 2.68044,2.02999 3.12158,2.58508 0.84421,1.06231 4.4808,8.30358 4.4808,8.92228 0,0.19839 0.0891,0.44985 0.19809,0.55878 0.39463,0.39465 0.85482,3.80854 1.01947,7.56303 0.23987,5.46928 0.19666,5.55323 -6.00642,11.67487 -3.67164,3.62342 -5.01097,4.78251 -5.75315,4.97891 -3.04567,0.80594 -4.862436,1.12053 -5.099847,0.88312 -0.165999,-0.166 0.784047,-1.27696 2.687037,-3.14216 1.61911,-1.58695 3.29721,-3.50076 3.72911,-4.25292 0.43191,-0.75215 0.95795,-1.51087 1.16904,-1.68603 1.09741,-0.91077 -0.0317,-2.63496 -1.72559,-2.63496 -0.9775,0 -1.23184,0.18132 -3.63802,2.59358 -3.103142,3.11103 -7.855138,6.71333 -9.863061,7.47684 -2.949575,1.12154 -4.233333,2.76352 -4.233333,5.41456 0,1.89024 -0.323612,2.50669 -1.315905,2.50669 -1.47021,0 -3.182012,2.54177 -3.182012,4.72482 0,0.94467 1.057249,3.94939 1.441503,4.09687 0.177721,0.0682 0.818436,-0.008 1.423802,-0.16981 1.587765,-0.42381 1.867483,-0.0437 1.113711,1.51336 -0.321866,0.6649 -0.678339,1.26645 -0.792162,1.33681 -0.379889,0.23479 -0.573379,2.29536 -0.251884,2.68274 0.16764,0.20201 0.766498,0.36729 1.330749,0.36729 1.051269,0 1.166468,0.15534 1.037986,1.39973 -0.08258,0.79978 1.067224,2.85467 1.740562,3.11065 0.345757,0.13147 0.62865,0.36103 0.62865,0.51015 0,0.42214 0.792109,0.31866 0.96266,-0.12573 0.08377,-0.21829 0.398065,-0.39688 0.698447,-0.39688 0.300408,0 0.760386,-0.19383 1.022165,-0.43077 0.439922,-0.39812 0.546761,-0.39716 1.409885,0.0124 0.978694,0.46439 1.27762,1.36138 0.547132,1.64171 -0.212752,0.0816 -0.454396,0.36137 -0.536999,0.62164 -0.0826,0.26027 -0.48723,0.54062 -0.899186,0.62301 -0.41193,0.0824 -1.110218,0.45376 -1.551702,0.82527 -0.785363,0.66082 -0.891804,0.67545 -4.916117,0.67545 -2.715472,0 -4.174754,-0.0993 -4.293949,-0.29213 -0.311494,-0.504 -2.321904,-1.28349 -3.325971,-1.28955 -0.730171,-0.004 -1.066113,-0.1651 -1.395148,-0.66728 -0.23839,-0.3638 -0.560414,-0.66146 -0.715645,-0.66146 -0.407617,0 -1.273943,-1.11122 -1.284261,-1.64732 -0.0048,-0.25119 -0.424154,-0.66979 -0.931783,-0.93022 -0.85098,-0.43656 -1.987445,-2.07769 -1.987445,-2.86996 0,-0.16971 -0.172773,-0.45191 -0.38391,-0.62714 -0.211138,-0.17524 -0.462783,-0.84466 -0.559197,-1.48762 -0.167137,-1.11443 -0.216614,-1.16899 -1.060635,-1.16899 -0.695748,0 -1.098577,0.23046 -1.880923,1.07604 -1.54596,1.67087 -2.245704,3.30282 -2.052981,4.78787 0.102843,0.79232 0.03842,1.45494 -0.180023,1.85208 -0.18706,0.34013 -0.354647,1.54419 -0.372401,2.67571 -0.01852,1.17951 -0.164835,2.18988 -0.342979,2.36802 -0.504746,0.50475 -0.380339,4.127 0.184441,5.37033 0.601345,1.32373 3.425772,4.29601 5.210228,5.48293 0.736864,0.49012 1.748895,1.1919 2.248958,1.55951 2.386991,1.75471 5.690129,2.32383 7.256833,1.25031 1.110588,-0.76099 1.986756,-2.15725 1.986756,-3.16608 0,-0.4553 -0.312949,-1.40282 -0.695457,-2.10558 -1.034045,-1.89989 -0.793909,-2.21718 1.515639,-2.00253 3.010323,0.27977 3.672893,0.78775 5.123921,3.92827 1.031742,2.23314 2.432314,3.64604 3.614181,3.64604 0.388541,0 1.224624,0.29623 1.857931,0.65828 1.52056,0.86924 3.4281,0.89824 4.723368,0.0718 0.509321,-0.32498 1.400331,-0.83055 1.980061,-1.1235 0.9267,-0.46825 1.11146,-0.72397 1.52979,-2.1169 0.2617,-0.87138 0.75065,-1.82388 1.08662,-2.11667 0.75903,-0.66156 1.48894,-1.83234 1.48894,-2.38828 0,-0.77214 -0.79698,-1.97128 -1.41293,-2.12588 -0.63754,-0.15999 -1.49749,-1.3535 -1.49749,-2.0783 0,-0.57208 1.77703,-0.57214 2.40914,-8e-5 0.25654,0.23217 0.8608,0.44053 1.34281,0.46302 0.84855,0.0396 0.88104,0.003 1.02257,-1.14972 0.0914,-0.74411 0.46722,-1.6397 1.00229,-2.38816 l 0.85611,-1.1975 -0.415,-1.1762 c -0.22823,-0.64691 -0.65928,-1.43624 -0.95787,-1.75409 -0.44952,-0.4785 -0.49069,-0.6754 -0.23939,-1.14495 0.44037,-0.82286 -0.0674,-2.13289 -1.33162,-3.43559 -1.36967,-1.41134 -1.4486,-2.359 -0.0883,-1.06011 1.31622,1.25683 1.98519,2.37072 3.08999,5.14514 0.78245,1.96498 0.95059,2.72815 0.96181,4.36563 0.007,1.0914 0.0164,2.39008 0.0201,2.88594 0.004,0.49588 -0.16526,1.16374 -0.37521,1.48418 -0.3724,0.56835 -1.212,6.03843 -1.212,7.89622 0,0.5124 -0.11906,1.00518 -0.26458,1.09512 -0.14552,0.0899 -0.26964,0.72204 -0.2758,1.40467 -0.006,0.68265 -0.16182,1.896 -0.34587,2.69637 l -0.33467,1.45521 -3.01244,1.52315 c -1.65685,0.83775 -3.25736,1.75112 -3.55674,2.0297 -0.29935,0.27858 -1.675363,1.00258 -3.057811,1.60887 -1.382448,0.60632 -3.168385,1.40275 -3.96875,1.76988 -0.800364,0.36714 -1.752864,0.79386 -2.116667,0.94827 -0.701648,0.29781 -5.243247,0.93064 -8.334374,1.16131 -1.018646,0.076 -3.10224,0.0106 -4.630209,-0.14521 -1.527968,-0.15586 -3.685989,-0.35859 -4.795625,-0.45048 -1.81028,-0.14993 -2.157281,-0.27291 -3.378809,-1.19745 -0.748718,-0.56668 -1.573662,-1.03034 -1.833192,-1.03034 -0.259556,0 -0.864473,0.40503 -1.344295,0.90006 -0.759301,0.78343 -0.848095,1.01489 -0.68498,1.78594 0.262017,1.23875 1.440789,3.35097 2.205964,3.95285 0.514588,0.40478 1.077701,0.5049 2.839534,0.5049 1.208723,0 2.259251,0.0997 2.334552,0.22146 0.263075,0.42571 -0.706226,1.41547 -1.878225,1.91783 -1.154853,0.49504 -1.531196,0.52763 -3.607117,0.3125 z m -49.124473,-53.6869 c -2.618951,-0.8496 -5.438669,-2.06645 -7.937499,-3.42537 -1.67349,-0.91009 -3.9356775,-2.04692 -5.0270838,-2.52627 -2.5433601,-1.1171 -8.0644205,-4.16973 -10.4510415,-5.77847 -1.0186458,-0.68665 -2.2496462,-1.4536 -2.735527,-1.70434 -0.4859073,-0.25075 -1.3193448,-0.85712 -1.8520834,-1.3475 -1.645232,-1.51437 -5.3746133,-4.38142 -7.3186393,-5.62636 -1.018646,-0.65233 -2.980928,-2.32016 -4.360598,-3.70629 -1.379696,-1.38612 -3.225165,-3.11404 -4.101042,-3.83979 -0.875903,-0.72575 -2.404083,-2.22525 -3.39598,-3.33222 -3.150023,-3.51549 -3.727211,-4.11308 -4.88479,-5.05769 -2.18612,-1.7839 -5.15194,-5.0728 -7.517871,-8.33678 -0.529272,-0.7302 -1.22801,-1.56364 -1.552733,-1.85209 -0.582269,-0.51723 -1.773741,-2.19744 -3.255698,-4.59123 -0.417063,-0.67368 -1.220735,-1.80597 -1.785938,-2.51619 -0.565203,-0.71025 -1.027641,-1.45703 -1.027641,-1.65957 0,-0.20251 -0.466329,-0.87413 -1.036267,-1.49244 -0.569966,-0.61833 -1.248278,-1.65745 -1.507411,-2.3092 -0.259107,-0.65172 -0.923899,-1.88804 -1.477275,-2.74733 -0.553376,-0.85931 -1.006131,-1.69921 -1.006131,-1.86645 0,-0.16722 -0.386953,-0.89289 -0.859896,-1.61261 -0.472942,-0.71972 -1.157552,-1.86499 -1.521354,-2.54505 -1.829382,-3.41971 -2.284968,-4.22545 -3.565154,-6.30529 -0.761762,-1.23756 -1.473094,-2.54725 -1.580727,-2.91041 -0.107659,-0.36317 -0.527235,-1.43423 -0.932365,-2.38012 -0.784807,-1.832314 -1.59467,-4.413007 -1.59467,-5.081609 0,-0.222674 -0.769964,-2.586514 -1.711061,-5.252958 -0.94107,-2.666418 -1.847347,-5.747994 -2.013929,-6.847893 -0.166555,-1.099899 -0.515223,-2.773733 -0.774752,-3.719618 -0.259557,-0.945886 -0.549302,-2.751376 -0.64389,-4.012195 -0.09456,-1.260845 -0.286438,-2.689595 -0.426376,-3.175 -0.351896,-1.220893 -0.575893,-4.983639 -0.296651,-4.983639 0.384863,0 1.010496,0.837169 2.175033,2.910417 0.61304,1.091406 1.655498,2.758281 2.316533,3.704167 2.519363,3.604895 4.550093,6.713273 4.550093,6.964653 0,0.143801 0.297656,0.651695 0.661458,1.12866 0.363802,0.476964 0.661458,0.951574 0.661458,1.054708 0,0.311574 2.079414,3.503375 3.587565,5.50672 0.779119,1.034944 1.770248,2.357967 2.202498,2.94005 1.117388,1.504738 3.205771,3.741103 3.205771,3.432969 0,-0.142796 -0.240771,-1.092703 -0.535067,-2.110899 -0.650849,-2.251789 -1.237324,-5.055235 -1.466639,-7.010611 -0.09387,-0.800365 -0.450744,-2.587969 -0.793062,-3.972428 -0.968269,-3.91623 -1.435073,-7.275248 -1.451795,-10.447364 -0.0085,-1.600729 -0.19087,-4.696354 -0.405421,-6.879167 -0.559197,-5.689729 -0.609282,-9.98113 -0.123296,-10.567405 0.435716,-0.525618 1.588638,-0.439769 3.79984,0.282946 1.496933,0.489262 1.76919,0.993685 1.76919,3.277952 0,0.8569 0.292867,3.630504 0.650822,6.163545 0.357954,2.533041 0.649075,5.692166 0.646985,7.020269 -0.004,2.430462 0.506122,5.559425 1.774693,10.888318 1.289367,5.416259 1.508998,6.232102 2.030016,7.540625 0.778457,1.955139 4.666376,13.323807 4.976574,14.552087 0.383566,1.5186 3.12584,7.00219 4.895665,9.78958 1.333553,2.10024 2.143548,3.52531 4.361312,7.67292 0.311256,0.58208 0.827934,1.35599 1.148186,1.71979 0.604308,0.68651 3.111791,4.18102 4.651295,6.48229 0.486781,0.7276 1.191895,1.69341 1.566916,2.14622 0.375047,0.45281 1.217691,1.51916 1.872535,2.36963 1.258411,1.63439 4.732258,5.69984 5.085451,5.95154 0.114723,0.0818 0.494082,0.5356 0.843015,1.00857 1.326039,1.79734 8.8360778,9.43094 10.6079924,10.78251 1.0186458,0.77697 2.92364575774,2.25242 4.2333332,3.27874 1.3096875,1.02632 2.9170313,2.23954 3.571875,2.69605 0.6548437,0.45652 1.5694819,1.15589 2.0325291,1.55419 0.4630473,0.39828 1.6834379,1.16636 2.7119792,1.70686 1.0285411,0.54049 1.8731441,1.11678 1.8769011,1.28066 0.0061,0.265 1.138634,0.87545 2.44057,1.31548 0.254661,0.0861 0.46302,0.27927 0.46302,0.42937 0,0.15009 0.267891,0.27794 0.595313,0.28408 0.327422,0.006 0.887386,0.36335 1.244362,0.79375 0.474609,0.57227 0.879263,0.78256 1.505744,0.78256 0.47117,0 0.930275,0.11906 1.020206,0.26458 0.08993,0.14552 0.381874,0.26458 0.648759,0.26458 0.266885,0 0.543798,0.15256 0.615341,0.33904 0.07157,0.18648 0.744511,0.49652 1.495452,0.68898 2.232924,0.57226 2.256049,0.67603 1.457245,6.53552 -0.380894,2.79379 -0.851985,5.26711 -1.066535,5.59948 -0.366236,0.56727 -1.058122,0.71726 -1.959637,0.42479 z m 126.771162,-0.29249 c -0.24535,-0.45906 -0.7842,-3.75076 -1.38652,-8.46998 -0.28705,-2.24919 -0.27356,-2.49401 0.16414,-2.97767 0.26231,-0.28983 0.96401,-0.65413 1.55938,-0.80952 0.59536,-0.15539 1.20451,-0.42278 1.35369,-0.5942 0.44727,-0.51398 1.97903,-1.2377 2.61961,-1.2377 0.32946,0 0.82584,-0.25119 1.10305,-0.55821 0.27723,-0.307 1.03981,-0.79288 1.69465,-1.07972 0.65485,-0.28683 1.36922,-0.63124 1.5875,-0.76536 0.21828,-0.13409 0.635,-0.34996 0.92605,-0.47969 0.29104,-0.12972 0.8178,-0.54617 1.17059,-0.9254 0.3528,-0.37926 0.84423,-0.68953 1.0921,-0.68953 0.24783,0 0.59885,-0.1786 0.78001,-0.39688 0.18116,-0.21828 0.46628,-0.39687 0.63357,-0.39687 0.53645,0 2.27685,-1.60909 2.27685,-2.10508 0,-0.26347 0.20836,-0.55436 0.46302,-0.64643 0.97957,-0.35409 1.7717,-0.94578 1.96472,-1.46751 0.11057,-0.2989 0.42841,-0.54348 0.70633,-0.54348 0.27792,0 0.65352,-0.1786 0.83468,-0.39688 0.18116,-0.21828 0.44791,-0.39687 0.59277,-0.39687 0.14489,0 0.67022,-0.35719 1.16745,-0.79375 0.4972,-0.43657 1.01468,-0.79375 1.14993,-0.79375 0.37338,0 4.49818,-4.0018 4.49818,-4.36404 0,-0.41082 0.86614,-1.19221 1.32154,-1.19221 0.41228,0 0.62839,-0.17706 2.86989,-2.35128 0.92281,-0.89511 2.0701,-1.92666 2.54949,-2.29235 0.47943,-0.36565 1.21267,-1.16522 1.62944,-1.77683 0.41677,-0.61161 1.17449,-1.54522 1.68381,-2.07473 1.65513,-1.72072 2.73561,-2.99223 3.51689,-4.13867 0.42146,-0.61846 0.86395,-1.12448 0.98328,-1.12448 0.11932,0 0.59033,-0.56554 1.04671,-1.25677 1.77636,-2.69049 6.63758,-9.39429 6.98574,-9.63361 0.28732,-0.19746 1.59907,-2.39321 2.02949,-3.39712 0.47718,-1.11297 3.22707,-5.92002 3.70822,-6.48229 0.45476,-0.53144 1.7128,-2.92557 3.02111,-5.74939 0.38632,-0.83384 0.8036,-1.57861 0.92726,-1.65505 0.12367,-0.0764 0.30859,-0.63468 0.41095,-1.24061 0.10237,-0.60589 0.51774,-1.88518 0.92306,-2.84286 0.40531,-0.95769 1.18078,-3.170004 1.72323,-4.916254 0.54244,-1.74625 1.42279,-4.306093 1.95633,-5.688541 1.15196,-2.984844 1.57231,-4.469553 2.65927,-9.392708 0.44979,-2.037292 0.98981,-4.478073 1.20004,-5.423959 0.21022,-0.945885 0.50994,-3.803385 0.66607,-6.35 0.15613,-2.546614 0.39618,-5.22552 0.53348,-5.953124 0.13731,-0.727605 0.35808,-2.751667 0.49061,-4.497917 0.33785,-4.45122 0.36576,-4.527161 1.83801,-5.000337 0.6772,-0.217656 1.79723,-0.475123 2.48896,-0.572145 l 1.25765,-0.176411 0.42918,1.022363 c 0.45309,1.079429 0.43545,1.928029 -0.17548,8.430697 -0.15038,1.600729 -0.38182,5.172604 -0.51427,7.937499 -0.22701,4.738238 -0.4822,6.613049 -1.45851,10.715625 -0.22511,0.945886 -0.5805,2.850886 -0.78981,4.233334 -0.20929,1.382447 -0.74327,3.931946 -1.18663,5.665522 -0.44336,1.733603 -0.76052,3.197569 -0.70482,3.253291 0.49725,0.497231 9.22805,-11.538241 10.21746,-14.084829 0.21524,-0.554011 2.92463,-4.622562 4.59455,-6.899434 0.52279,-0.712814 0.95348,-1.426395 0.95707,-1.585727 0.004,-0.159359 0.24469,-0.505222 0.53573,-0.768615 0.29104,-0.263393 0.52978,-0.668787 0.53049,-0.900906 0.003,-0.576739 1.94342,-3.100123 2.25875,-2.935552 0.54322,0.283501 -0.21302,7.738507 -1.18094,11.641666 -0.27064,1.091407 -0.73142,3.175 -1.02391,4.630209 -0.44426,2.210223 -1.88923,6.730047 -3.20733,10.032444 -0.1695,0.424603 -0.35021,1.079447 -0.40159,1.455208 -0.16645,1.216819 -0.88807,3.643577 -1.34789,4.532791 -0.24651,0.47672 -0.67228,1.51799 -0.94613,2.31394 -0.27384,0.79597 -1.19525,2.59228 -2.04758,3.99182 -0.85233,1.39954 -1.70119,2.93158 -1.88637,3.40453 -0.18519,0.47294 -0.42664,0.85989 -0.5366,0.85989 -0.10994,0 -0.46535,0.62508 -0.78981,1.38906 -0.32446,0.76399 -0.80849,1.62754 -1.07564,1.919 -0.26712,0.29149 -0.80327,1.22359 -1.19139,2.0714 -0.38815,0.84777 -1.10876,2.15347 -1.60142,2.90152 -0.49265,0.74806 -1.02936,1.78046 -1.19266,2.29426 -0.16328,0.51377 -0.70017,1.35636 -1.19303,1.87243 -0.4929,0.51604 -1.16356,1.42541 -1.4904,2.02078 -0.32684,0.59537 -1.30863,2.1245 -2.18176,3.3981 -0.87312,1.27357 -1.7839,2.60911 -2.02395,2.96785 -0.24006,0.35873 -0.98055,1.28241 -1.6455,2.05264 -0.66495,0.7702 -1.92124,2.33532 -2.79178,3.47803 -1.79281,2.35336 -4.54268,5.25801 -7.36068,7.77496 -1.05362,0.94105 -1.97943,1.90371 -2.05732,2.13924 -0.19219,0.58108 -4.59401,4.96239 -5.41972,5.39448 -0.36381,0.19037 -1.88302,1.60962 -3.37603,3.15386 -1.52411,1.57642 -3.6127,3.40678 -4.7625,4.17367 -2.52392,1.68342 -5.80295,4.20492 -7.41416,5.70132 -0.6659,0.61847 -1.34829,1.12448 -1.5164,1.12448 -0.16812,0 -0.95049,0.45083 -1.73861,1.00185 -2.94478,2.05888 -6.9292,4.28765 -13.92909,7.79158 -9.29434,4.65243 -12.12128,5.65171 -12.7358,4.50189 z M 70.763588,140.35138 c 0,-0.37338 0.10787,-0.88045 0.239739,-1.12683 0.131868,-0.24638 0.269425,-0.98269 0.305699,-1.63624 0.03628,-0.65357 0.22606,-1.452 0.42172,-1.77429 0.405579,-0.66808 0.467016,-1.70143 0.123269,-2.07307 -0.479293,-0.51816 -0.589915,-2.14717 -0.169492,-2.49608 0.221086,-0.18348 0.401981,-0.55716 0.401981,-0.83036 0,-0.54983 1.090507,-0.70454 1.664812,-0.2362 0.175762,0.14333 0.706517,0.57063 1.179459,0.94957 0.531575,0.4259 0.859896,0.9268 0.859896,1.31191 0,0.3426 0.238363,0.78988 0.529722,0.99396 0.452941,0.31726 0.53684,0.7031 0.578988,2.66297 0.04773,2.21959 0.02381,2.31902 -0.75602,3.14971 -0.442913,0.47175 -0.878338,1.06611 -0.967582,1.32077 -0.136339,0.38907 -0.50165,0.46302 -2.287217,0.46302 -2.10476,0 -2.124974,-0.006 -2.124974,-0.67884 z m 12.832291,-17.3052 c -0.436562,-0.11528 -1.64338,-0.22368 -2.681843,-0.24091 -1.975538,-0.0327 -2.059808,-0.0706 -5.917115,-2.65935 -1.366467,-0.91704 -5.476161,-2.13445 -7.205504,-2.13445 -1.297543,0 -3.698001,0.93597 -5.063093,1.97414 -1.006766,0.7657 -3.075252,1.59877 -4.603723,1.85412 -1.553977,0.25964 -3.76518,-0.0658 -3.76518,-0.55409 0,-0.20921 -0.178593,-0.44889 -0.396875,-0.53266 -0.218281,-0.0838 -0.396875,-0.39899 -0.396875,-0.70051 0,-0.30152 -0.446484,-0.96734 -0.992187,-1.47963 -0.945938,-0.88799 -1.090824,-0.93445 -3.108854,-0.99713 -1.983476,-0.0616 -2.122435,-0.10406 -2.20816,-0.67488 -0.171291,-1.14038 -0.553376,-1.33125 -2.4502,-1.22409 -1.712966,0.0968 -1.815174,0.14293 -3.118961,1.40771 -1.903545,1.84658 -2.152015,1.93469 -5.332281,1.89122 l -2.790825,-0.0381 -1.773237,-1.15557 c -0.975254,-0.63556 -1.773211,-1.25137 -1.773211,-1.36853 0,-0.11713 -0.887545,-1.11504 -1.972336,-2.21755 -1.410018,-1.43309 -2.02057,-2.26174 -2.141538,-2.90661 -0.196691,-1.04844 -0.568695,-1.20452 -2.897584,-1.21566 -2.043086,-0.01 -3.593174,-0.54583 -3.927422,-1.35821 -0.141605,-0.34419 -0.230214,-1.58451 -0.196903,-2.75627 0.08752,-3.07874 -0.197988,-3.37235 -3.455009,-3.55306 l -2.474833,-0.13729 0.06879,-1.303 c 0.09459,-1.791914 0.755967,-2.791695 2.434563,-3.680351 1.317705,-0.697574 1.575647,-0.741072 3.690038,-0.622062 1.250289,0.07038 3.03448,0.321178 3.964861,0.557345 2.038323,0.517445 2.49473,0.404098 3.04538,-0.756338 0.788485,-1.661636 0.491781,-2.751085 -0.937921,-3.443605 -0.58674,-0.284189 -1.721062,-1.024758 -2.520685,-1.645709 -1.647323,-1.279181 -2.713329,-1.568529 -4.676008,-1.269285 -2.418715,0.368776 -6.329177,0.343191 -7.106417,-0.04649 -0.392933,-0.197036 -0.9989082,-0.35822 -1.3465443,-0.35822 -0.8389937,0 -2.2046935,-1.502807 -3.488002,-3.838099 C 4.830348,83.588548 4.3211838,83.008476 2.7835842,82.107384 2.1208824,81.719029 1.1362884,80.991954 0.5956124,80.49168 c -1.56887331,-1.451557 -3.64363,-2.716689 -5.5640287,-3.392779 -1.4597856,-0.513926 -2.3067433,-0.627009 -4.6963541,-0.627009 -1.7672046,0 -2.9153906,-0.104193 -2.9153906,-0.264584 0,-0.14552 0.155469,-0.264583 0.345466,-0.264583 0.190024,0 0.752422,-0.300249 1.249813,-0.6672 0.497363,-0.36695 1.3476018,-0.786553 1.8893891,-0.932444 0.5417873,-0.145892 1.6760296,-0.652754 2.5205002,-1.126384 3.4563843,-1.93847 5.6182947,-2.010199 7.6992161,-0.255535 1.0689961,0.901382 1.5137606,1.093417 2.9069771,1.255104 1.4999493,0.174096 1.6448881,0.147188 1.6448881,-0.305303 0,-0.272944 0.3571875,-0.809651 0.79375,-1.192741 0.4365625,-0.383064 0.79375,-0.937816 0.79375,-1.232774 0,-1.027456 -1.0430669,-4.894871 -1.3802254,-5.117465 -2.4336904,-1.606761 -5.26010184,-2.584846 -9.2031078,-3.184842 -2.6829808,-0.408252 -8.5530534,-0.08435 -10.3782814,0.572664 -0.83312,0.299905 -1.726088,0.546418 -1.984375,0.547846 -0.765492,0.0042 -3.065515,1.196049 -3.756898,1.946752 -0.593725,0.644683 -0.804624,0.696489 -2.83509,0.696489 -1.982866,0 -2.313913,-0.07628 -3.445271,-0.79375 -0.688367,-0.436563 -1.353662,-0.79375 -1.478413,-0.79375 -0.124751,0 -0.664871,-0.297656 -1.200255,-0.661458 -0.535967,-0.364199 -1.35308,-0.661459 -1.818217,-0.661459 -0.719852,0 -0.936308,0.165894 -1.46349,1.121542 -0.691224,1.253041 -1.77927,1.79115 -1.39737,0.691092 0.118745,-0.342106 0.224049,-1.652455 0.233971,-2.911872 0.02302,-2.906315 -0.317738,-3.398678 -2.35159,-3.398678 -1.98935,0 -3.946525,-0.657678 -4.730777,-1.589699 -0.583459,-0.69342 -0.644763,-0.958125 -0.514429,-2.221079 0.219339,-2.125089 0.0026,-2.657629 -1.348185,-3.291933 -0.64217,-0.301852 -1.438142,-0.940586 -1.768819,-1.41941 -0.330702,-0.478822 -1.235207,-1.546357 -2.010013,-2.372299 -1.070795,-1.141455 -1.408747,-1.696844 -1.408747,-2.315104 0,-0.659879 0.109061,-0.813393 0.577929,-0.813393 0.609627,0 2.718541,0.912611 3.390821,1.467332 0.496438,0.409646 3.353699,1.52465 5.332386,2.080889 2.113439,0.594117 5.688012,0.556046 7.147242,-0.07612 2.019168,-0.87475 2.405195,-2.325188 1.403191,-5.272384 -0.545491,-1.604481 -1.179882,-1.714479 -10.046361,-1.741929 -4.220104,-0.01307 -8.625416,0.08208 -9.789583,0.211447 -1.164167,0.129362 -3.307292,0.247094 -4.7625,0.26163 -2.208133,0.02207 -2.842816,-0.06855 -3.836458,-0.547682 -0.654844,-0.315759 -1.964532,-0.767088 -2.910417,-1.002953 -1.822635,-0.454496 -2.802228,-1.067758 -2.097511,-1.313127 0.207751,-0.07233 1.330219,-0.179068 2.494386,-0.237197 1.164167,-0.05813 2.563151,-0.270584 3.108854,-0.472122 0.900007,-0.332394 0.992188,-0.456743 0.992188,-1.338583 0,-1.116864 -0.676593,-2.447073 -1.452166,-2.855066 -1.788133,-0.94063 -2.577042,-1.59141 -3.064034,-2.527583 -0.669263,-1.286504 -1.439359,-1.982382 -2.193845,-1.982393 -0.600075,-8e-6 -1.725639,-1.225979 -2.748809,-2.994041 -0.610156,-1.054354 -0.805974,-2.929951 -0.336206,-3.220281 0.32967,-0.203747 1.263517,0.274524 2.152279,1.102289 0.488315,0.454808 1.188244,0.715931 2.38125,0.888394 2.880863,0.41646 2.864194,0.421952 5.244121,-1.729478 1.547469,-1.39891 2.400776,-1.986089 2.892187,-1.990185 1.611021,-0.01344 4.268973,-1.795193 4.268973,-2.86172 0,-0.685999 -0.547582,-0.802796 -4.740461,-1.011116 -3.326235,-0.165261 -3.598359,-0.219729 -4.320222,-0.864725 -0.697468,-0.623175 -0.784199,-0.889582 -0.916067,-2.813581 -0.198834,-2.90067 -0.638043,-3.716922 -2.72325,-5.0608021 -0.945886,-0.6096105 -2.166276,-1.4866223 -2.711979,-1.9489181 -0.942314,-0.7982797 -0.992188,-0.9201203 -0.992188,-2.4234881 0,-1.4296496 0.07959,-1.6572891 0.821717,-2.3505609 0.451961,-0.4221877 0.918977,-0.7676118 1.037828,-0.7676118 0.118851,0 0.359886,-0.4464844 0.535675,-0.9921875 0.415158,-1.28897328 0.727789,-1.65858297 1.771968,-2.0950555 0.699135,-0.2922429 0.859895,-0.5078148 0.859895,-1.1530647 0,-0.7006379 -0.162745,-0.8677725 -1.389062,-1.4264667 -0.763984,-0.348062 -1.794431,-0.704416 -2.289889,-0.7918952 -1.028542,-0.1816047 -1.612715,-0.5852636 -1.612715,-1.1143509 0,-0.2774315 0.477546,-0.3644794 1.999509,-0.3644794 2.132409,0 4.357555,-0.4294929 4.677172,-0.9027822 0.106918,-0.1583134 0.196215,-0.7504403 0.198437,-1.3158364 0.0029,-0.7578751 -0.168433,-1.1878363 -0.652356,-1.6363156 -1.174115,-1.0881389 -2.372175,-1.8930959 -3.057658,-2.0543729 -0.369252,-0.08687 -1.559877,-1.047173 -2.645833,-2.133997 -1.449705,-1.450845 -2.036895,-2.244381 -2.209271,-2.985643 -0.129143,-0.555276 -0.316997,-4.283813 -0.417459,-8.285636 -0.144966,-5.774187 -0.274955,-7.54734 -0.629788,-8.590407 -0.245904,-0.722902 -0.564065,-1.431324 -0.70702,-1.574271 -0.339328,-0.339323 -0.339645,-3.858239 -2.64e-4,-3.858239 0.142743,0 0.338243,-0.327421 0.434419,-0.727604 0.276225,-1.149278 1.137391,-2.712016 1.494235,-2.711587 0.236034,2.64e-4 0.342608,0.881372 0.388223,3.210107 0.03461,1.765345 0.166661,3.342746 0.293502,3.505338 0.126841,0.162592 0.306149,0.693621 0.398436,1.180063 0.09229,0.486441 0.496014,1.204573 0.897123,1.595847 0.401134,0.391277 0.904425,0.975543 1.118446,1.298371 0.319273,0.481574 0.637143,0.586965 1.770327,0.586965 0.759646,0 1.438011,-0.09194 1.507464,-0.204308 0.06943,-0.112371 0.152188,-1.035106 0.183859,-2.050521 0.06212,-1.991752 -0.380153,-4.590412 -0.975334,-5.730605 -0.473048,-0.906217 -0.05442,-1.216512 0.845609,-0.62679 0.924877,0.606004 2.232078,2.491176 2.232078,3.218987 0,0.608856 0.137689,0.982691 1.415124,3.841924 0.366474,0.820267 0.748056,1.951361 0.847963,2.513542 0.220345,1.240031 2.892239,5.873978 4.427907,7.679507 0.612802,0.720498 1.530933,1.890589 2.040255,2.600201 0.509323,0.709615 1.372526,1.739926 1.91823,2.28958 0.545703,0.549653 0.992187,1.169995 0.992187,1.378537 0,0.407334 0.639366,0.766548 0.900165,0.505743 0.30107,-0.30108 0.155972,-1.192688 -0.350017,-2.150607 -0.577506,-1.093333 -1.483148,-4.511601 -1.764771,-6.660936 -0.285511,-2.179092 -0.938662,-3.367659 -3.030246,-5.514223 -1.631685,-1.674567 -2.011283,-2.250326 -2.66536,-4.042513 -0.419496,-1.149411 -0.762687,-2.617724 -0.762687,-3.262921 0,-1.077982 -0.127927,-1.302597 -1.577711,-2.770508 -0.867727,-0.878583 -1.738074,-1.597422 -1.934104,-1.597422 -0.196003,0 -0.87339,-0.780698 -1.505294,-1.734889 -1.565248,-2.363594 -1.721564,-3.795548 -0.571817,-5.2383 0.883046,-1.108099 1.30937,-2.628035 0.883523,-3.150023 -0.147082,-0.180306 -0.721493,-1.211038 -1.276483,-2.290514 -0.802613,-1.561187 -1.376468,-2.262862 -2.805244,-3.430095 -0.987928,-0.807077 -1.796204,-1.577618 -1.796204,-1.712315 0,-0.425987 0.898578,-0.947547 1.647534,-0.956283 0.503899,-0.0059 0.86114,0.211029 1.184513,0.71919 0.632672,0.994212 0.850556,1.115756 2.008611,1.120429 1.303047,0.0053 2.29952,0.942715 2.311718,2.174838 0.0048,0.479557 0.234659,1.526764 0.51091,2.327129 0.448257,1.298747 0.582057,1.455208 1.244574,1.455208 1.275847,0 1.527227,-0.950701 1.597051,-6.040188 0.06744,-4.913895 0.04072,-4.820722 2.183897,-7.618918 0.515462,-0.673031 1.175359,-1.555888 1.4664,-1.961909 0.698315,-0.974217 1.17528,-1.444609 1.464787,-1.444609 0.416322,0 0.892148,-1.151438 1.038701,-2.513542 0.07829,-0.727604 0.261408,-1.322917 0.406929,-1.322917 0.402458,0 0.480219,2.463263 0.129487,4.101042 -0.171423,0.800364 -0.621982,1.990989 -1.001263,2.645833 -1.313021,2.267006 -1.641766,3.155228 -1.641766,4.435634 0,1.06648 0.124275,1.399119 0.727605,1.947243 0.400182,0.363575 1.036452,0.791562 1.413959,0.951085 0.853467,0.360643 1.44444,2.212546 1.180333,3.698684 -0.09832,0.553241 -0.241935,2.155378 -0.31914,3.560305 l -0.140362,2.554406 1.006528,1.348198 c 0.553588,0.741505 1.138952,1.348195 1.300798,1.348195 0.425846,0 1.310031,1.041339 1.820836,2.144511 0.490273,1.058754 1.588135,1.81804 2.013585,1.39259 0.144198,-0.144214 0.331179,-1.802731 0.415501,-3.685591 0.172191,-3.84512 0.705803,-7.001351 1.384009,-8.185885 0.303768,-0.530574 1.173454,-1.169128 2.622973,-1.925899 2.823184,-1.473923 3.474191,-2.322939 3.959966,-5.164477 0.54565,-3.191512 1.048253,-3.784406 4.73329,-5.58352 1.668754,-0.814721 3.136239,-1.481312 3.261096,-1.481312 0.308213,0 0.54819,0.684234 0.54819,1.563018 0,0.436017 -0.269399,0.979061 -0.67445,1.35959 -0.370945,0.348481 -1.103233,1.291969 -1.627319,2.096641 -0.524087,0.804672 -1.189091,1.725864 -1.477778,2.047089 -0.288686,0.321228 -0.895826,1.177824 -1.349242,1.90355 -0.45339,0.725726 -1.255686,1.951183 -1.782869,2.723242 -1.93503,2.833881 -2.588815,4.571675 -3.777826,10.041859 -0.162666,0.748289 0.372956,7.661298 0.76573,9.882719 0.587587,3.323524 1.20404,6.043668 1.437164,6.341668 0.117422,0.150103 0.280564,0.570571 0.362559,0.934373 0.39452,1.750359 1.908122,5.434574 4.312338,10.496516 0.495696,1.043657 0.901276,2.01599 0.901276,2.160743 0,0.144754 0.293555,0.481479 0.65233,0.748276 0.358775,0.266801 1.603852,2.087005 2.766801,4.0449 1.16295,1.957896 2.648082,4.1605518 3.300333,4.8947918 2.203344,2.480384 3.34055,3.8861893 4.370176,5.4023629 0.564039,0.8306038 1.21666,1.6687959 1.450234,1.86265344 0.233574,0.19385756 0.424709,0.47387933 0.424709,0.62227354 0,0.49652236 2.451312,3.20004012 6.8668373,7.57331422 C 2.9715442,17.822052 7.9331696,22.30676 14.018004,26.894704 c 1.713521,1.291984 3.424873,2.582529 3.802989,2.867877 1.468384,1.108128 4.194862,3.369752 5.620676,4.662408 0.821478,0.744762 1.795118,1.550538 2.163656,1.790613 1.381257,0.899834 4.326043,3.086867 5.603161,4.161342 0.727604,0.612156 1.691904,1.33418 2.142913,1.6045 1.56927,0.940599 5.343181,3.502908 6.985212,4.74264 0.654843,0.494406 1.607343,1.132419 2.116666,1.417807 0.509323,0.285387 1.938073,1.234551 3.175,2.109258 1.236927,0.874705 3.118565,2.132896 4.181396,2.795985 1.062831,0.663085 2.186622,1.442418 2.49727,1.731851 0.310673,0.289433 0.750781,0.528407 0.978005,0.531056 0.227198,0.0026 0.937049,0.359836 1.57742,0.79375 0.640344,0.433914 1.287515,0.788934 1.438142,0.788934 0.150628,0 0.536708,0.24692 0.857938,0.548712 0.569595,0.535106 1.402371,1.04295 3.286496,2.004163 1.648354,0.840933 2.38125,1.441312 2.38125,1.950678 0,0.338748 0.392774,0.672517 1.224253,1.040315 0.673338,0.297841 1.40036,0.541549 1.615572,0.541549 0.215213,0 0.625449,0.297656 0.911622,0.661458 0.286147,0.363802 0.669026,0.661459 0.850821,0.661459 0.181795,0 0.798248,0.35388 1.36988,0.786394 0.571606,0.432514 1.192107,0.789702 1.37885,0.79375 0.415581,0.009 2.004245,1.564614 2.248852,2.202074 0.09776,0.254715 0.388779,0.529273 0.646748,0.610156 0.257968,0.08088 0.785045,0.316309 1.17131,0.52316 0.796369,0.426509 1.969876,0.497073 2.195486,0.132001 0.08297,-0.13425 0.26162,-0.828119 0.396981,-1.541886 0.247041,-1.302596 0.0513,-2.300869 -0.722921,-3.686704 -0.177588,-0.317844 -0.322871,-0.92448 -0.322871,-1.348052 0,-0.433387 -0.230717,-0.978932 -0.527685,-1.247674 -0.798433,-0.722564 -1.056719,-2.068611 -1.058333,-5.515322 l -0.0026,-3.132727 0.79375,-0.696503 c 0.436562,-0.383077 0.79375,-0.89898 0.79375,-1.146453 0,-0.24747 0.297656,-0.803693 0.661458,-1.236046 1.150805,-1.36766 0.798274,-3.119162 -0.985044,-4.893759 -0.557688,-0.554977 -1.296273,-1.45623 -1.641289,-2.002782 -0.345044,-0.546553 -0.99658,-1.34225 -1.44788,-1.768216 -0.451326,-0.425966 -0.820579,-0.929238 -0.820579,-1.118378 0,-0.189143 -0.356446,-0.546716 -0.792083,-0.79461 -0.435636,-0.247893 -0.792824,-0.60116 -0.79375,-0.785034 -0.0026,-0.340569 -0.109431,-0.591992 -0.906489,-2.115778 -0.248152,-0.47443 -0.567716,-1.843648 -0.710115,-3.042708 -0.51173,-4.308838 -0.660268,-5.173181 -0.949669,-5.526035 -0.161581,-0.197032 -0.436351,-1.310743 -0.610579,-2.47491 -0.174254,-1.164166 -0.486965,-2.592916 -0.694928,-3.175 -0.456062,-1.276461 -0.770784,-5.240266 -0.521573,-6.568739 0.15703,-0.83703 0.309906,-0.992295 1.217613,-1.236718 0.570917,-0.153733 1.191207,-0.497088 1.378452,-0.76301 0.187219,-0.265925 0.862013,-0.768525 1.499553,-1.116891 0.637513,-0.348364 1.441185,-0.788715 1.785937,-0.978559 0.344726,-0.189841 0.626798,-0.502684 0.626798,-0.695206 0,-0.192524 0.178594,-0.498261 0.396875,-0.679418 0.242808,-0.20152 0.402987,-0.804651 0.412644,-1.5537499 0.0087,-0.6734069 0.121365,-1.7601564 0.250428,-2.4150002 0.129038,-0.6548437 0.449369,-2.3735744 0.711809,-3.8194032 0.448733,-2.47195975 0.520197,-2.64015802 1.197716,-2.81949525 0.396293,-0.10489141 1.037431,-0.43998885 1.424754,-0.74465655 0.387324,-0.3046704 1.026901,-0.5539449 1.421289,-0.5539449 0.394388,0 0.941441,-0.2479543 1.215708,-0.551008 0.274267,-0.3030564 0.878443,-0.7096945 1.342628,-0.9036447 0.464185,-0.1939475 0.976815,-0.600837 1.139163,-0.9041976 0.162349,-0.3033607 0.466858,-0.5515663 0.676646,-0.5515663 0.209814,0 0.592534,-0.3274219 0.850476,-0.7276042 0.257969,-0.4001823 0.680376,-0.9061979 0.938689,-1.1244791 0.596688,-0.5042112 1.19597,-4.2000541 1.415786,-8.7312501 0.153008,-3.154047 0.120861,-3.454405 -0.693553,-6.482291 -1.100031,-4.08976 -1.361519,-8.081952 -0.666432,-10.174648 0.291147,-0.876577 0.845344,-1.766752 1.488598,-2.390999 1.154483,-1.120379 2.517828,-1.793915 2.885996,-1.425755 0.24093,0.240927 -0.149648,1.694518 -0.666882,2.482027 -0.143378,0.218281 -0.397775,0.926007 -0.565309,1.572723 -0.326893,1.261689 0.0077,3.186594 0.830395,4.777509 0.218202,0.421982 0.396743,1.050055 0.396743,1.395717 0,0.345662 0.310276,0.91712 0.68953,1.26991 0.379227,0.352788 0.796026,0.917226 0.926174,1.254308 0.180843,0.46836 0.40595,0.593135 0.954696,0.529166 0.577982,-0.06738 0.753428,-0.258016 0.899372,-0.977188 0.09972,-0.491416 0.478525,-1.190715 0.841825,-1.553998 l 0.660505,-0.660519 0.418492,0.638677 c 0.287575,0.438902 0.431165,1.338787 0.459078,2.876916 0.02222,1.231029 0.194416,3.786049 0.382376,5.67782 0.298027,2.999584 0.450374,3.642662 1.190784,5.027083 0.466963,0.873125 1.011925,1.8223525 1.211024,2.1093937 0.199073,0.2870385 0.361977,0.7791688 0.361977,1.0936182 0,0.333576 0.203702,0.6250013 0.489029,0.6996165 0.295513,0.077279 0.557292,0.4690401 0.661458,0.9899729 0.310621,1.5530486 0.180208,6.17858434 -0.231325,8.204274 -0.673602,3.3158139 -0.902917,5.2423827 -1.133766,9.5249997 -0.239289,4.439232 -0.108929,5.385036 0.939694,6.818463 0.971127,1.327476 1.804568,1.786075 2.593058,1.426824 0.35782,-0.163044 0.65061,-0.501211 0.65061,-0.751483 0,-0.699148 1.31834,-4.904859 1.74773,-5.575575 0.84312,-1.316924 1.22026,-0.452905 1.29923,2.976563 0.071,3.083335 0.34343,4.791358 0.95904,6.01363 1.49093,2.96006 1.63004,7.018649 0.31366,9.15054 -0.42111,0.681998 -1.23788,2.293853 -1.81507,3.581897 -1.8193,4.060061 -4.958397,6.591816 -8.590015,6.92807 -1.632029,0.151111 -1.786387,0.114427 -3.024743,-0.71891 -1.698175,-1.142778 -1.867006,-1.608124 -0.505381,-1.393179 1.238356,0.195487 2.552039,-0.581115 3.379444,-1.997814 0.678444,-1.161666 0.73197,-3.671808 0.110146,-5.166778 -0.240586,-0.578392 -0.708686,-1.706467 -1.040262,-2.506831 -0.33155,-0.800365 -0.856536,-2.221672 -1.166601,-3.158459 -0.310065,-0.936786 -0.701252,-1.749073 -0.869262,-1.805082 -0.576871,-0.192292 -1.855126,3.101382 -2.051897,5.287115 -0.21762,2.417615 -0.520541,2.805375 -1.710743,2.189906 C 87.904328,32.116113 87.427919,31.50301 86.883195,30.351562 85.732945,27.920168 85.782899,25.411016 87.05274,21.835434 90.260389,12.80343 90.719309,10.865227 90.541006,7.1034819 90.46314,5.4606893 90.271608,4.0647159 90.100581,3.8937051 89.621341,3.4144468 88.93652,4.0159293 88.587006,5.2231066 88.417858,5.8072934 87.879166,6.8670211 87.389898,7.578057 86.900604,8.289093 86.333126,9.1970266 86.128815,9.5956848 85.777554,10.28103 85.683336,10.311825 84.399101,10.160888 l -1.358212,-0.159631 -0.491357,1.154588 c -0.270219,0.635024 -0.938213,2.16662 -1.484392,3.403547 -1.027245,2.326349 -1.571361,4.389978 -1.571361,5.959534 0,0.866005 -0.03537,0.899329 -0.79375,0.747654 l -0.79375,-0.15875 0.0026,2.348177 c 0.0026,2.232575 0.676831,6.11873 1.717225,9.888802 0.988484,3.581929 3.6077,7.652514 6.447923,10.02084 1.294262,1.079216 3.080993,2.061852 5.38734,2.962825 2.517695,0.983525 5.391917,4.363786 6.203156,7.295213 0.527552,1.906416 0.552,5.073168 0.05278,6.840913 -0.205475,0.727604 -0.877358,2.177124 -1.493097,3.22117 -1.244626,2.11037 -1.420839,3.330813 -0.665585,4.609359 0.602032,1.019149 1.567894,1.006845 2.89089,-0.03688 0.561446,-0.442939 2.211439,-1.566651 3.666649,-2.497137 1.45521,-0.930487 2.9745,-1.947413 3.37622,-2.259833 0.40171,-0.312394 1.29468,-0.865928 1.98437,-1.230021 0.68969,-0.364094 1.49212,-0.881865 1.78316,-1.150597 0.29104,-0.268732 1.60073,-1.042207 2.91042,-1.718836 1.30968,-0.67663 2.61937,-1.445011 2.91041,-1.707515 0.29104,-0.262504 1.02709,-0.727141 1.63568,-1.032526 0.6086,-0.305385 1.18118,-0.676008 1.27238,-0.823608 0.0912,-0.147601 0.48618,-0.268364 0.87768,-0.268364 0.44791,0 1.00613,-0.303184 1.50574,-0.817822 0.43665,-0.449802 2.0441,-1.644055 3.57206,-2.653895 1.52797,-1.009838 3.15667,-2.100334 3.61932,-2.423322 1.06275,-0.741905 3.94049,-2.60995 4.61822,-2.997845 0.28244,-0.161661 0.77698,-0.533742 1.09895,-0.82685 0.32194,-0.293105 1.47836,-1.113337 2.56976,-1.822738 1.09141,-0.709401 2.04391,-1.361292 2.11667,-1.448649 0.0728,-0.08736 0.3819,-0.290119 0.68697,-0.450583 1.48476,-0.780976 10.01543,-7.380668 13.28644,-10.27898 0.68207,-0.604346 1.79544,-1.497314 2.47415,-1.984375 1.54527,-1.108911 4.73459,-3.548155 7.49723,-5.734008 2.54355,-2.012505 8.48572,-7.326961 11.28035,-10.088713 1.11096,-1.097897 3.49221,-3.41957 5.29167,-5.1592745 4.51517,-4.3652387 7.90064,-8.05014363 8.3366,-9.07388268 0.2014,-0.4729427 0.47998,-0.85989582 0.6191,-0.85989582 0.13909,0 0.68659,-0.677971 1.21666,-1.506601 0.94448,-1.4764887 1.81996,-2.5790948 4.47646,-5.6378897 0.7276,-0.8377926 1.7313,-2.2221563 2.23041,-3.0763633 2.20374,-3.771503 3.29009,-5.422612 3.71882,-5.652058 0.25326,-0.135546 0.61569,-0.63795 0.80537,-1.116455 0.32136,-0.810693 0.76218,-1.78418 2.87496,-6.349079 0.4518,-0.976196 0.82148,-1.854464 0.82148,-1.951707 0,-0.09724 0.47244,-1.441661 1.04986,-2.987595 0.57743,-1.545937 1.42029,-4.596731 1.87304,-6.779543 0.71287,-3.436885 0.82923,-4.571529 0.86836,-8.466667 0.0425,-4.228658 0,-4.646234 -0.69492,-6.975533 -0.73798,-2.470388 -2.18205,-5.344895 -3.59326,-7.152619 -0.40923,-0.524205 -1.07182,-1.519261 -1.47243,-2.211242 -0.40061,-0.691978 -0.87207,-1.346821 -1.04767,-1.455208 -0.1756,-0.108386 -0.60174,-0.673314 -0.94694,-1.255398 -0.34521,-0.582083 -1.15277,-1.62992 -1.79459,-2.328526 -0.7307,-0.795359 -1.10882,-1.421627 -1.01148,-1.675286 0.0855,-0.2228 0.15542,-0.693013 0.15542,-1.044911 0,-0.398047 0.15303,-0.639818 0.40499,-0.639818 0.22276,0 1.74766,0.668179 3.38863,1.484842 3.51642,1.749988 3.97687,2.281592 4.58441,5.292756 0.66304,3.286212 1.05878,3.860004 3.55954,5.161037 2.28709,1.189871 3.0353,1.813057 3.45546,2.878031 0.4332,1.098061 0.79542,3.44205 0.89951,5.820834 0.19298,4.410511 0.37451,5.55625 0.88032,5.55625 0.60386,0 1.46066,-0.944978 1.96323,-2.165239 0.23358,-0.56714 0.73004,-1.144561 1.18745,-1.381099 1.02828,-0.531757 2.38975,-2.26858 2.59922,-3.315832 0.0912,-0.456234 0.0151,-2.283809 -0.16926,-4.061278 -0.29607,-2.854708 -0.2862,-3.347717 0.0845,-4.225631 0.26802,-0.634711 0.68725,-1.095245 1.16009,-1.274395 2.44253,-0.925425 2.59366,-3.240405 0.43484,-6.660194 -1.19417,-1.891679 -1.91857,-5.379932 -1.39245,-6.705172 0.34322,-0.864549 0.39251,-0.782645 0.64297,1.067927 0.13557,1.001816 0.37824,1.498902 1.03335,2.116667 1.05416,0.994077 3.54957,4.147119 4.39378,5.551705 0.5706,0.94938 0.64063,1.445876 0.80219,5.688541 0.19529,5.128935 0.41907,6.103583 1.40136,6.103583 0.3496,0 0.74841,-0.148828 0.88628,-0.330729 0.30218,-0.398725 0.76282,-2.034347 1.00565,-3.570825 0.20241,-1.28076 1.11578,-2.181722 2.21761,-2.187474 1.08291,-0.0057 1.88254,-0.290161 1.88254,-0.669806 0,-1.037384 1.53966,-1.500349 2.57587,-0.774549 0.73332,0.51363 0.55285,0.968589 -0.7177,1.809403 -1.55226,1.027242 -2.51961,2.195973 -3.69449,4.463635 -1.25089,2.41441 -1.30725,2.978594 -0.41939,4.197781 1.46733,2.014902 1.4731,3.350233 0.0238,5.503862 -0.47236,0.701943 -0.9336,1.47106 -1.02497,1.709148 -0.0914,0.238088 -0.34231,0.432887 -0.55768,0.432887 -0.21538,0 -1.12872,0.705813 -2.0297,1.568477 -1.54014,1.474679 -1.6451,1.65268 -1.75517,2.976562 -0.18314,2.202921 -1.32855,5.383395 -2.08449,5.787959 -0.34917,0.186864 -0.63484,0.425164 -0.63484,0.529555 0,0.104389 -0.60362,0.828411 -1.34139,1.608937 -1.50773,1.595133 -1.93265,2.426811 -2.21435,4.333946 -0.308,2.085216 -1.4224,6.496984 -1.73678,6.875796 -0.523,0.630182 -0.81748,2.069224 -0.46767,2.285418 0.33673,0.208103 0.99769,-0.197456 0.99769,-0.612161 0,-0.134916 0.41844,-0.676159 0.92987,-1.202762 0.51142,-0.526602 1.33766,-1.562496 1.83605,-2.301988 0.49843,-0.739492 1.39695,-1.880312 1.99676,-2.535156 0.59981,-0.654843 1.32424,-1.607343 1.60983,-2.116666 0.28559,-0.509323 0.81473,-1.402292 1.17589,-1.984375 1.19594,-1.927553 1.71201,-3.014668 1.71201,-3.60638 0,-0.489378 1.0445,-3.162141 1.86079,-4.761568 0.12081,-0.236747 0.30385,-0.89159 0.40672,-1.455209 0.2092,-1.14614 0.92332,-2.320118 1.94535,-3.198058 0.91376,-0.784931 1.46298,-0.789223 1.21827,-0.0095 -0.85362,2.719731 -1.34096,6.099199 -1.08008,7.489809 0.1682,0.896633 0.19172,0.910712 1.52138,0.910712 1.2772,0 1.42018,-0.07266 2.63385,-1.338477 0.77062,-0.803749 1.28331,-1.580274 1.28331,-1.943724 0,-0.332886 0.18581,-0.97775 0.41296,-1.433026 0.28707,-0.575487 0.4282,-1.716828 0.46302,-3.744793 0.0275,-1.604357 0.13126,-2.917026 0.23048,-2.91704 0.3375,-4.5e-5 1.2083,1.45196 1.39914,2.332959 0.10456,0.482774 0.35751,0.941998 0.56205,1.020495 0.51867,0.19903 0.51658,3.418835 -0.003,3.937966 -0.93678,0.936791 -1.29675,3.746838 -1.45547,11.361681 -0.0869,4.168879 -0.27012,7.600524 -0.419,7.847859 -0.79928,1.327759 -4.21677,4.455266 -4.86836,4.455266 -0.57163,0 -3.04853,1.8630823 -3.42683,2.5775975 -0.13544,0.2558124 -0.16909,0.9337807 -0.0748,1.506601 0.16253,0.9874911 0.23992,1.0592487 1.49259,1.3839586 0.72665,0.1883569 2.17734,0.3447653 3.22379,0.3475726 1.04643,0.0028 1.97943,0.1293812 2.0733,0.2812759 0.2812,0.4549907 -0.39417,1.0221568 -1.42282,1.1948689 -1.13572,0.1906957 -3.61405,1.2800806 -3.87586,1.7037049 -0.38356,0.6206014 0.11671,1.5423224 0.93459,1.72196126 0.84847,0.18634869 1.43261,0.87165656 1.71167,2.00804194 0.0928,0.3778726 0.69617,1.1279399 1.34083,1.6668141 1.14107,0.9538177 1.17213,1.0207572 1.17213,2.5266968 0,1.4389734 -0.0651,1.6041131 -0.9334,2.3664571 -0.51337,0.4507441 -1.40303,1.0591218 -1.97702,1.3519494 -1.53532,0.7832645 -2.8422,2.027351 -3.14068,2.989786 -0.14444,0.46567 -0.34475,1.733489 -0.44516,2.817376 -0.15179,1.63839 -0.30012,2.088266 -0.87974,2.667871 -0.66384,0.663842 -0.86971,0.70544 -4.30773,0.870323 -3.66086,0.175572 -4.98502,0.443275 -4.98502,1.007813 0,0.669968 2.05367,2.260206 3.33801,2.584747 1.57057,0.396872 3.03043,1.089779 3.194,1.515991 0.0664,0.173077 0.79676,0.844328 1.623,1.49167 1.41746,1.110533 3.07581,1.703049 3.38162,1.208225 0.075,-0.121258 0.54036,-0.220469 1.03425,-0.220469 0.94269,0 2.24579,-0.472691 2.24579,-0.814641 0,-0.364776 1.85806,-1.35635 2.25568,-1.203767 0.62007,0.237947 0.46574,1.86423 -0.30853,3.251083 -0.83291,1.491904 -2.23983,3.000658 -2.79811,3.000658 -0.63076,0 -1.68685,0.957763 -2.16336,1.961928 -0.4001,0.843164 -2.00057,2.17025 -3.14838,2.610601 -0.54065,0.207423 -1.49572,2.138927 -1.5044,3.042545 -0.003,0.349615 0.18902,0.661482 0.4572,0.741129 0.25466,0.07563 0.8001,0.310021 1.21206,0.520862 0.48038,0.245851 1.55498,0.383352 2.99598,0.383352 1.99723,0 2.23708,0.05145 2.15842,0.463021 -0.0639,0.333978 -0.67757,0.618805 -2.20221,1.022 -1.16255,0.307438 -2.53045,0.783688 -3.03977,1.058334 -1.04367,0.56279 -4.36883,0.64499 -8.46667,0.209298 -3.38526,-0.359928 -16.82617,-0.270922 -18.19089,0.12046 -0.91938,0.263657 -1.20097,0.502378 -1.53882,1.304488 -0.22744,0.539975 -0.48056,1.537113 -0.56253,2.215862 -0.18172,1.504918 0.51363,2.665965 1.95807,3.269491 2.81612,1.176655 9.69997,-0.1484 13.11836,-2.525115 0.61312,-0.426294 1.62079,-0.852699 2.23925,-0.947565 1.0336,-0.158547 1.12448,-0.125577 1.12448,0.407886 0,0.849316 -0.43781,1.561688 -1.96136,3.191423 -0.74824,0.800365 -1.59527,1.759321 -1.88235,2.131012 -0.28704,0.371692 -0.99816,0.907474 -1.58025,1.190625 l -1.05833,0.514821 -0.13229,2.278224 c -0.12399,2.135259 -0.18227,2.320163 -0.92858,2.946564 -0.96867,0.81302 -2.45973,1.254059 -4.24638,1.256028 -2.10151,0.0024 -2.34913,0.322617 -2.45909,3.180614 -0.0592,1.539293 0.0135,2.535237 0.19844,2.720234 0.42322,0.423228 0.35779,0.979805 -0.1152,0.979805 -0.22387,0 -0.72988,-0.532024 -1.12448,-1.182264 -1.10522,-1.821365 -1.70045,-1.716246 -6.20186,1.095269 -0.84088,0.525172 -1.3344,0.616162 -3.34299,0.616162 -2.19114,0 -2.38551,-0.04429 -2.76984,-0.630846 -0.44267,-0.675693 -2.88007,-2.014987 -3.6671,-2.014987 -0.26188,0 -1.22076,-0.266806 -2.13085,-0.592932 -1.47375,-0.528082 -2.16103,-0.593169 -6.28491,-0.595312 -4.28821,-0.0026 -4.84095,0.05453 -7.48326,0.768085 -1.66328,0.449183 -3.53044,1.166363 -4.47747,1.719792 l -1.62446,0.949325 -0.47908,1.984375 c -0.6817,2.823501 -0.63693,3.462284 0.30594,4.365625 0.43656,0.418253 0.79375,0.916781 0.79375,1.107837 0,0.607298 3.20868,0.189018 3.78301,-0.493131 0.17492,-0.207777 0.82158,-0.713449 1.43703,-1.123738 1.65402,-1.102625 3.47139,-0.914453 6.73748,0.697627 1.35425,0.668443 2.74244,1.298337 3.08486,1.399751 0.34242,0.101442 1.01227,0.440399 1.48852,0.753243 0.47625,0.312843 1.08905,0.710644 1.36178,0.883999 0.40058,0.254609 -0.0953,0.318161 -2.58148,0.330729 -4.40114,0.02223 -6.60739,0.888656 -10.30465,4.046723 -0.81166,0.693261 -1.56411,1.260501 -1.67211,1.260501 -0.10801,0 -0.70917,0.352796 -1.33589,0.783987 -0.83806,0.576607 -1.39956,1.294051 -2.12251,2.711979 -1.41192,2.769262 -2.68502,4.099428 -4.41812,4.616186 -1.35779,0.404839 -2.50899,0.439023 -9.08396,0.269875 -1.83907,-0.04731 -1.86513,-0.03813 -3.70417,1.306803 -1.01865,0.744961 -2.23904,1.551676 -2.71198,1.792737 -0.77952,0.397299 -0.8599,0.550545 -0.8599,1.639491 0,2.401755 0.7996,2.955899 3.36884,2.334736 0.9848,-0.238098 2.80257,-0.49014 4.0395,-0.560123 2.04491,-0.115649 2.37519,-0.06363 3.64035,0.573432 1.63912,0.82542 2.44506,2.122672 2.44506,3.935681 v 1.16959 l -2.51248,0.10991 c -1.50675,0.0659 -2.64385,0.24122 -2.84059,0.43796 -0.19444,0.19444 -0.39053,1.42888 -0.48136,3.03054 -0.0843,1.48632 -0.23662,2.88237 -0.33848,3.10229 -0.27776,0.59963 -2.05809,1.05534 -4.12276,1.05534 -2.00819,0 -2.66891,0.35603 -2.66891,1.43815 0,0.40904 -0.79698,1.41811 -2.44739,3.09874 -4.08189,4.15658 -4.8137,4.53766 -8.42812,4.38889 -2.76297,-0.11375 -3.2012,-0.27869 -4.73491,-1.78203 -1.40803,-1.38014 -1.85256,-1.59107 -3.42818,-1.62657 -1.49817,-0.0338 -2.12807,0.33983 -2.12807,1.26208 0,0.61185 -0.0601,0.62908 -2.19683,0.62908 -2.03838,0 -2.27693,0.0589 -3.30729,0.81663 -0.70271,0.51679 -1.11263,1.02683 -1.11633,1.38907 -0.003,0.31482 -0.22201,0.85344 -0.48615,1.19687 -0.46577,0.60563 -0.57531,0.62142 -3.63214,0.52361 -3.31338,-0.10602 -3.9456,-0.30957 -5.29379,-1.70416 -1.06542,-1.10212 -5.98006,-1.79485 -8.27844,-1.16686 -0.5262,0.14377 -1.432983,0.37914 -2.015067,0.52308 -0.582083,0.1439 -1.772708,0.79843 -2.645833,1.45449 -1.946751,1.4628 -4.022328,2.15149 -7.14375,2.37035 -1.309687,0.0918 -2.917031,0.21273 -3.571875,0.26866 -0.654844,0.0559 -1.547812,0.007 -1.984375,-0.10787 z m 3.675856,-37.203223 c 0.08834,-0.230188 0.165788,-1.033859 0.172112,-1.785937 0.0063,-0.752079 0.115543,-1.84367 0.242649,-2.425753 0.302975,-1.387449 0.765863,-4.042278 1.107176,-6.35 0.150653,-1.018646 0.406453,-2.14974 0.568457,-2.513542 0.293211,-0.658416 0.836189,-3.633126 1.147921,-6.288749 0.08998,-0.766656 0.267759,-1.458304 0.39505,-1.536964 0.723609,-0.447226 -0.137478,-2.493037 -1.049311,-2.493037 -0.553694,0 -1.629701,-1.050576 -1.629701,-1.591151 0,-0.575347 -1.083152,-1.054682 -2.383261,-1.054682 -1.090136,0 -1.233938,0.104047 -2.193925,1.5875 -0.404416,0.624893 -0.837565,0.95369 -1.332071,1.011079 -0.493634,0.05731 -0.814679,0.300381 -0.983642,0.744828 -0.357346,0.939906 -0.315119,4.423992 0.05816,4.797266 0.544115,0.544116 1.062751,2.25552 1.286007,4.243547 0.119406,1.063254 0.334142,2.075285 0.477229,2.248958 0.355415,0.431456 0.838173,3.170396 0.838173,4.75533 0,0.714798 0.16346,1.615651 0.363273,2.001916 0.805365,1.556994 1.224227,2.743465 1.224227,3.467735 0,1.153954 0.258234,1.600174 0.926042,1.600174 0.332661,0 0.677122,-0.188331 0.765439,-0.418518 z M -15.358286,-38.284145 c -0.936757,-0.230257 -1.190625,-0.640781 -1.190625,-1.925297 0,-2.000773 0.539909,-2.898592 2.825776,-4.698923 1.137947,-0.896252 2.211255,-1.860362 2.38514,-2.142463 0.173857,-0.282104 1.4518742,-1.426411 2.8400371,-2.542908 1.3881629,-1.116497 3.2177566,-2.798776 4.0657991,-3.738398 1.6793898,-1.860717 5.00824495,-4.684319 6.2717891,-5.319837 0.4365625,-0.219575 1.3890625,-0.789017 2.1166666,-1.265426 0.7276042,-0.476408 2.4540104,-1.593834 3.8364583,-2.483167 1.3824479,-0.889331 2.7516668,-1.796666 3.0427088,-2.0163 1.581573,-1.193527 3.208681,-2.250826 3.463872,-2.250826 0.159781,0 1.000601,-0.458933 1.868461,-1.019852 2.426864,-1.568567 12.327122,-6.26532 15.437458,-7.323638 6.087851,-2.071454 8.162501,-2.732738 10.285994,-3.278597 1.218909,-0.31333 2.560003,-0.747475 2.980188,-0.964764 0.420184,-0.217289 1.268359,-0.496628 1.884838,-0.620754 0.61648,-0.124127 2.013823,-0.527593 3.10523,-0.896591 2.446787,-0.827241 9.62525,-2.696046 11.773958,-3.065166 0.873125,-0.149993 3.075781,-0.40063 4.894791,-0.556972 1.819011,-0.15634 3.954225,-0.399061 4.744959,-0.53938 0.790707,-0.140316 4.518421,-0.255119 8.283839,-0.255119 4.496752,0 6.790055,-0.0908 6.682661,-0.264583 -0.224155,-0.36267 7.463022,-0.348845 9.077113,0.01633 0.682889,0.154498 1.717886,0.392821 2.29997,0.529605 0.582083,0.136785 2.963334,0.424522 5.291664,0.639414 2.32834,0.214892 5.06677,0.615653 6.08542,0.890577 1.01864,0.274925 3.10224,0.823894 4.63021,1.219932 3.36838,0.873059 7.4645,2.11237 9.78958,2.961921 0.94589,0.345612 2.68997,0.864936 3.87572,1.154054 4.05845,0.98955 12.61272,4.150863 17.15866,6.341147 5.50912,2.654366 6.50438,3.165001 7.01145,3.597394 0.21828,0.186132 1.13951,0.706789 2.04716,1.157018 1.64979,0.818343 2.77302,1.518787 4.20373,2.621423 0.41831,0.3224 1.9512,1.352155 3.4064,2.288344 1.45521,0.936188 2.93569,1.914144 3.28994,2.173232 0.35425,0.25909 1.19234,0.768728 1.8624,1.13253 1.7821,0.967542 5.03949,3.642386 6.23991,5.123958 0.57375,0.708125 1.99567,2.065713 3.15984,3.016864 1.16416,0.951148 2.71198,2.30338 3.43958,3.004963 0.72761,0.701579 2.13106,1.960038 3.11878,2.796571 2.10989,1.78693 2.56976,2.584064 2.56976,4.454438 0,1.584301 -0.24495,1.882113 -1.7454,2.122045 -0.94345,0.150866 -1.18496,0.06626 -2.23584,-0.783285 -0.64796,-0.52383 -1.70214,-1.338858 -2.34262,-1.811174 -0.64045,-0.472315 -2.11481,-1.632661 -3.27633,-2.578547 -1.16152,-0.945885 -2.73632,-2.199399 -3.49954,-2.785583 -0.76322,-0.586187 -2.50354,-2.178333 -3.86741,-3.538101 -1.36385,-1.359768 -3.13458,-2.960989 -3.93494,-3.558265 -0.80036,-0.597278 -2.05052,-1.575551 -2.77813,-2.173938 -0.7276,-0.598387 -1.88317,-1.46643 -2.56791,-1.92898 -1.86624,-1.26067 -8.81105,-4.991663 -10.96203,-5.889177 -1.03857,-0.433348 -2.10984,-1.032719 -2.38064,-1.331934 -0.6662,-0.736134 -1.47185,-1.127064 -4.79989,-2.329037 -1.56059,-0.563637 -5.0401,-1.913266 -7.73223,-2.999171 -10.10116,-4.074427 -15.7261,-5.797418 -23.86018,-7.308665 -6.36278,-1.18215 -7.859,-1.323903 -15.844706,-1.501132 -2.996088,-0.0665 -5.842132,-0.234098 -6.324573,-0.372457 -0.482415,-0.138358 -0.951786,-0.205427 -1.043014,-0.149039 -0.09123,0.05639 -3.343116,0.165295 -7.226379,0.242022 -8.734901,0.172585 -12.299289,0.523766 -19.481218,1.919401 -7.506176,1.458643 -13.623158,3.3186 -22.13139,6.729362 -3.201458,1.283396 -7.295965,2.875648 -9.098915,3.538334 -1.802924,0.662689 -3.707844,1.533766 -4.233095,1.935729 -0.525277,0.401963 -2.979208,1.752319 -5.453195,3.000795 -7.894823,3.98408 -12.3122264,7.056213 -17.46271135,12.144695 -2.60291785,2.571578 -3.23095935,3.101933 -9.47679275,8.002739 -5.0529599,3.964802 -4.8218459,3.840091 -6.3982069,3.452614 z"
       id="path8293" />
  </g>
</svg>
