<?xml version="1.0" encoding="UTF-8" standalone="no"?>
<!-- Created with Inkscape (http://www.inkscape.org/) -->

<svg
   version="1.1"
   id="svg824"
   xml:space="preserve"
   width="1178.0782"
   height="1217.0149"
   viewBox="0 0 1178.0782 1217.0149"
   sodipodi:docname="SeekPng.com_pokemon-ash-png_1251642_15cm.svg"
   inkscape:version="1.1 (c68e22c387, 2021-05-23)"
   xmlns:inkscape="http://www.inkscape.org/namespaces/inkscape"
   xmlns:sodipodi="http://sodipodi.sourceforge.net/DTD/sodipodi-0.dtd"
   xmlns="http://www.w3.org/2000/svg"
   xmlns:svg="http://www.w3.org/2000/svg"><defs
     id="defs828" /><sodipodi:namedview
     id="namedview826"
     pagecolor="#ffffff"
     bordercolor="#666666"
     borderopacity="1.0"
     inkscape:pageshadow="2"
     inkscape:pageopacity="0.0"
     inkscape:pagecheckerboard="0"
     showgrid="false"
     inkscape:zoom="0.70710678"
     inkscape:cx="-164.75588"
     inkscape:cy="344.361"
     inkscape:window-width="1920"
     inkscape:window-height="1137"
     inkscape:window-x="-8"
     inkscape:window-y="-8"
     inkscape:window-maximized="1"
     inkscape:current-layer="g832" /><g
     id="g830"
     inkscape:groupmode="layer"
     inkscape:label="SeekPng.com_pokemon-ash-png_1251642"
     transform="matrix(1.3333333,0,0,1.3333333,0,3.8425372e-5)"><g
       id="g832"><g
         id="g5497"><path
           style="fill:none;fill-opacity:1;fill-rule:nonzero;stroke:#000000;stroke-width:0.28346458;stroke-opacity:1;stroke-miterlimit:4;stroke-dasharray:none"
           d="m 36.645353,32.872434 c -0.764123,-0.185863 -1.15868,-0.772467 -1.15868,-1.725039 0,-1.562483 0.394557,-2.247727 2.066588,-3.592949 0.82451,-0.662901 1.49856,-1.271121 1.49856,-1.350954 0,-0.07985 0.887468,-0.879164 1.971749,-1.777097 1.084521,-0.897719 2.291452,-2.064708 2.681461,-2.593062 0.803121,-1.087129 3.138046,-3.001609 4.637304,-3.802814 0.550684,-0.294243 1.102103,-0.656223 1.224731,-0.80477 0.123368,-0.147836 0.299721,-0.269288 0.392636,-0.269288 0.170896,0 3.542813,-2.222744 4.867843,-3.208625 0.392637,-0.292578 1.057426,-0.690686 1.478832,-0.886768 0.421647,-0.195845 1.104004,-0.586585 1.515177,-0.868944 0.412357,-0.283073 2.432629,-1.335975 4.489933,-2.3396813 3.668058,-1.7908869 7.608492,-3.2530691 12.302579,-4.5650409 0.882733,-0.2459951 2.005283,-0.5960905 2.495606,-0.7769631 1.158668,-0.4271046 4.50277,-1.4224899 7.754178,-2.3080704 2.530771,-0.6899733 3.59841,-0.8615753 7.932433,-1.28131086 1.176251,-0.11408453 2.78058,-0.31753502 3.565142,-0.45301024 2.104623,-0.3629312 15.715365,-0.35556326 16.118235,0.008321 0.17183,0.15591529 1.04266,0.33155773 2.24222,0.4520595 4.40724,0.4430278 5.28259,0.5858711 7.84332,1.2803601 3.01348,0.8187924 6.33453,1.8170298 7.66503,2.3052164 0.49009,0.179207 1.49285,0.4829568 2.22822,0.6731006 0.73513,0.1913276 3.15373,0.9526014 5.37362,1.6934387 3.23287,1.0788118 4.74235,1.7000953 7.57591,3.1185461 1.94682,0.9739944 3.97822,2.0611234 4.51584,2.4140734 0.53668,0.353663 1.05837,0.64339 1.15868,0.64339 0.16518,0 1.40466,0.813326 2.32114,1.523502 0.33703,0.260968 2.50844,1.671099 4.76184,3.092639 2.65151,1.673001 3.19746,2.058273 4.20472,2.969997 0.59419,0.538336 1.25445,1.25897 1.46599,1.602411 0.21272,0.342491 1.2005,1.295097 2.19565,2.1158 0.99634,0.820701 2.06398,1.762137 2.37415,2.090809 0.30897,0.328719 1.0983,1.038879 1.75285,1.578412 1.36093,1.12064 1.69439,1.750959 1.69439,3.199386 0,0.843025 -0.0734,1.085195 -0.42805,1.418413 -0.23578,0.221052 -0.73726,0.442097 -1.11422,0.489376 -0.90318,0.115065 -0.8939,0.121724 -7.40313,-5.015421 -0.61938,-0.48914 -2.08894,-1.818701 -3.2652,-2.95501 -2.13741,-2.065894 -4.68388,-4.097073 -6.98102,-5.570662 -1.32005,-0.846602 -5.57231,-3.078616 -6.77446,-3.556583 -0.40953,-0.16162 -1.03057,-0.546893 -1.38067,-0.854207 -0.57281,-0.502209 -2.11413,-1.195034 -4.11559,-1.847693 -0.39193,-0.128107 -2.35728,-0.892949 -4.3673,-1.700808 C 128.87382,8.5643621 124.54075,7.2951719 118.33146,6.2543896 117.76793,6.1597946 116.8051,5.9972246 116.19239,5.8933618 115.57967,5.7892569 112.91222,5.6323924 110.26546,5.5461149 98.464142,5.1598933 92.937224,5.4263271 86.646419,6.6871977 81.394251,7.7398635 78.043497,8.7732791 71.672825,11.307855 c -2.107701,0.839234 -4.605914,1.804911 -5.550195,2.145501 -2.063028,0.745589 -2.772252,1.091883 -3.362632,1.640676 -0.24528,0.228407 -0.96664,0.640537 -1.604329,0.915291 -1.632362,0.70661 -5.591069,2.830007 -6.862892,3.683025 -2.383404,1.596946 -4.738765,3.490033 -6.595491,5.300392 -2.026905,1.975839 -3.208634,2.978551 -6.65042,5.643892 -3.006128,2.327543 -3.332927,2.493908 -4.401513,2.235802 z"
           id="path1528" /><path
           style="fill:none;fill-opacity:1;fill-rule:nonzero;stroke:#000000;stroke-width:0.28346458;stroke-opacity:1;stroke-miterlimit:4;stroke-dasharray:none"
           d="m 104.76635,116.28908 c -0.0463,-0.0751 -0.13643,-0.45588 -0.2006,-0.84661 -0.1048,-0.63412 -0.35556,-1.3954 -0.82259,-2.49465 -0.0834,-0.19585 -0.23482,-1.14488 -0.33703,-2.10748 -0.10291,-0.96377 -0.30921,-1.98886 -0.45847,-2.27835 -0.1495,-0.28973 -0.31588,-1.06598 -0.36958,-1.7241 -0.053,-0.65932 -0.20442,-1.43913 -0.33608,-1.73337 -0.70186,-1.57105 -0.79859,-1.91544 -0.7791,-2.79009 0.0354,-1.60788 0.18016,-2.00075 0.81522,-2.20682 0.55332,-0.179205 1.13276,-0.764123 1.35191,-1.365674 0.24861,-0.68331 2.69596,-0.532882 2.91414,0.178244 0.18658,0.607266 0.37791,0.841147 0.88582,1.08262 1.08713,0.51719 1.42795,1.25066 0.98327,2.11864 -0.21653,0.42235 -0.73443,3.20125 -0.73347,3.93568 0,0.32848 -0.11528,0.80953 -0.25622,1.06954 -0.28616,0.52455 -0.81332,3.32652 -0.81238,4.31525 0,0.34724 -0.0734,0.70827 -0.16351,0.80215 -0.0901,0.0927 -0.25813,0.97115 -0.37316,1.95155 -0.11527,0.98042 -0.29163,1.88287 -0.39287,2.00529 -0.20227,0.24528 -0.78338,0.30088 -0.9153,0.0882 z"
           id="path1524" /><path
           style="fill:none;fill-opacity:1;fill-rule:nonzero;stroke:#000000;stroke-width:0.28346458;stroke-opacity:1;stroke-miterlimit:4;stroke-dasharray:none"
           d="m 103.22432,141.53026 c -0.44113,-0.091 -1.36023,-0.21273 -2.0426,-0.2693 -1.07881,-0.0901 -1.363779,-0.19419 -2.176152,-0.79479 -0.514336,-0.3798 -1.034367,-0.69067 -1.15415,-0.69067 -0.12075,0 -0.395501,-0.16543 -0.610841,-0.3677 -0.472489,-0.44469 -3.627397,-1.42415 -4.622553,-1.43531 -0.765083,-0.009 -2.331363,0.66643 -3.158479,1.36283 -0.266675,0.22484 -0.88772,0.54142 -1.379698,0.70471 -0.491992,0.16352 -0.940478,0.37149 -0.996342,0.46228 -0.05561,0.0901 -0.848496,0.16446 -1.760224,0.16446 -1.408468,0 -1.729575,-0.0558 -2.128874,-0.36958 -0.28045,-0.22009 -0.469634,-0.54689 -0.469634,-0.80763 0,-0.26571 -0.250762,-0.68998 -0.634133,-1.07333 -0.616532,-0.61654 -0.677838,-0.63602 -2.075153,-0.66288 -1.513266,-0.0297 -1.461225,-0.002 -1.927313,-1.00822 -0.144971,-0.31303 -0.740843,-0.43281 -1.368526,-0.27476 -0.243142,0.0611 -0.817144,0.45847 -1.273705,0.88274 -1.330507,1.234 -1.686072,1.35284 -4.059268,1.35284 -2.069443,0 -2.091545,-0.005 -2.886336,-0.57946 -0.820695,-0.59323 -1.092837,-0.85421 -2.858525,-2.73517 -0.560929,-0.59681 -1.123503,-1.1204 -1.251603,-1.16318 -0.128105,-0.0428 -0.28972,-0.35557 -0.358415,-0.69639 l -0.126208,-0.61916 -1.508757,-0.0993 c -2.771299,-0.18206 -3.437051,-0.83756 -3.257839,-3.21147 0.135716,-1.78068 -0.02158,-1.94776 -1.82892,-1.94776 -1.104004,0 -1.38517,-0.0623 -1.695328,-0.37149 -0.318489,-0.31849 -0.353658,-0.50125 -0.251463,-1.29224 0.164243,-1.26278 0.770546,-2.12982 1.909715,-2.72971 0.809533,-0.42616 1.143718,-0.49483 2.380337,-0.49009 0.918371,0.004 1.710307,0.11504 2.18734,0.30637 1.10113,0.44017 2.057541,0.39834 2.307103,-0.10219 0.314928,-0.62749 0.342724,-1.55965 0.04756,-1.55965 -0.161615,0 -0.578506,-0.27571 -2.588535,-1.71198 -0.856092,-0.61105 -0.924792,-0.62865 -2.04995,-0.52359 -3.159437,0.29615 -4.606867,0.30065 -5.152827,0.0187 -0.296145,-0.15329 -0.747258,-0.27854 -1.001552,-0.27854 -0.708528,0 -2.064949,-1.38163 -2.752047,-2.80387 -0.636727,-1.31934 -1.346195,-2.18732 -1.786133,-2.18732 -0.266433,0 -1.303654,-0.78837 -2.347997,-1.78258 -0.637928,-0.60821 -1.916393,-1.37043 -2.56334,-1.5273 -0.293538,-0.0715 -0.691651,-0.23863 -0.885829,-0.37149 -0.249794,-0.17065 -1.008217,-0.24029 -2.629159,-0.24029 h -2.277426 v -0.45039 c 0,-0.32681 0.134531,-0.50032 0.490092,-0.63603 0.269289,-0.10196 0.615585,-0.30066 0.770542,-0.43993 0.154254,-0.14023 0.662894,-0.36959 1.130869,-0.51077 0.467984,-0.13999 0.983263,-0.37315 1.145597,-0.51599 0.162571,-0.14404 0.88582,-0.50982 1.606215,-0.81523 1.051002,-0.44375 1.561767,-0.55331 2.573553,-0.55331 1.203358,0 1.299855,0.0316 2.076109,0.68427 0.464155,0.38979 1.080705,0.72586 1.437223,0.78266 0.534778,0.0844 0.732512,0.006 1.382306,-0.55615 l 0.758436,-0.65457 -0.642431,-3.11212 -0.972092,-0.60442 c -0.580192,-0.36198 -1.725765,-0.80951 -2.843561,-1.11231 -1.747395,-0.4744 -2.092745,-0.50769 -5.199163,-0.50411 -2.901304,0.003 -3.371193,0.0428 -3.668295,0.31206 -0.187528,0.16899 -0.557114,0.30827 -0.821637,0.30827 -0.962826,0 -2.499419,0.68141 -3.085991,1.36924 l -0.564469,0.66218 -1.665647,0.009 c -1.587647,0.009 -1.706489,-0.0181 -2.541245,-0.57019 -0.480815,-0.31849 -0.978494,-0.5792 -1.103767,-0.5792 -0.126206,0 -0.524542,-0.2006 -0.885784,-0.44565 -0.361027,-0.24505 -0.75462,-0.44565 -0.875376,-0.44565 -0.119806,0 -0.441111,0.32205 -0.713991,0.71563 -0.473454,0.68333 -1.121562,1.04175 -1.481914,0.81904 -0.09649,-0.0594 -0.12807,-0.91909 -0.07508,-2.03973 0.08913,-1.88192 0.07987,-1.945123 -0.328699,-2.23107 -0.231034,-0.161615 -0.742751,-0.295188 -1.138243,-0.296146 -1.045299,-0.003 -2.412886,-0.467979 -2.984022,-1.014877 C 19.48065,97.14179 19.443572,97.002514 19.443572,95.72951 v -1.375895 l -0.802156,-0.469674 c -0.441127,-0.258106 -1.113274,-0.887706 -1.49308,-1.398229 -0.380519,-0.510528 -0.909823,-1.12897 -1.176257,-1.374013 -0.266435,-0.245266 -0.597043,-0.66192 -0.73442,-0.927647 -0.296144,-0.56899 -0.329418,-1.498311 -0.05942,-1.66445 0.390027,-0.241477 1.737174,0.128826 2.646997,0.72777 0.516233,0.339874 1.152253,0.669293 1.412033,0.731558 0.260969,0.06228 0.691875,0.222941 0.95926,0.357467 0.677614,0.341786 3.061741,0.775302 4.261298,0.775302 1.777116,0 2.829066,-0.737268 2.829066,-1.984125 0,-0.674998 -0.520036,-1.937521 -0.798612,-1.937521 -0.107661,0 -1.154881,-0.119798 -2.327547,-0.266438 -2.821459,-0.35201 -6.994573,-0.35201 -8.342671,-9.88e-4 -0.721346,0.18754 -1.944189,0.267387 -4.112032,0.267387 -2.9255521,0 -3.1175939,-0.02158 -3.6903924,-0.409518 C 7.6831309,86.554947 6.8560182,86.233603 6.1762671,86.06652 4.8942424,85.750881 4.38823,85.439054 4.240633,84.874564 4.1774112,84.634045 4.227581,84.570817 4.4215048,84.645207 4.6332731,84.726733 4.6620306,84.658295 4.56007,84.320312 4.4540663,83.970214 4.4726048,83.933138 4.6639343,84.114968 4.9878861,84.423224 7.1157978,84.39162 7.6786153,84.070518 7.9236593,83.930283 8.3051281,83.81335 8.5252169,83.809537 9.5976091,83.792646 8.4788703,81.824706 7.0592313,81.23123 6.6692053,81.068898 6.2228507,80.622304 5.7772069,79.94826 5.2274617,79.118294 4.9721992,78.890839 4.4745054,78.788643 4.134629,78.71899 3.8256505,78.571396 3.7883349,78.459925 3.7512572,78.348687 3.5803703,78.121251 3.4097175,77.95487 2.5239001,77.095197 1.7281605,74.599591 2.1692871,74.068636 c 0.382421,-0.460615 1.5132836,-0.14665 2.4064693,0.669299 0.2051142,0.186566 0.835669,0.41498 1.4008606,0.506952 1.2247446,0.199644 1.8282027,-0.04277 3.2264515,-1.293189 1.0239075,-0.916485 1.5094795,-1.200501 2.0499545,-1.200501 0.508626,0 2.079664,-0.859672 2.214189,-1.211682 0.127156,-0.329651 -0.189429,-0.559719 -0.797403,-0.580146 -0.245281,-0.0085 -1.346197,-0.0744 -2.446397,-0.145949 -1.7614173,-0.115032 -2.0547103,-0.180867 -2.4511529,-0.554252 -0.5283544,-0.495796 -0.8040575,-1.364749 -0.805959,-2.53363 0,-0.459426 -0.080572,-0.885583 -0.17897,-0.945951 -0.097684,-0.06037 -0.1782573,-0.29614 -0.1782573,-0.523596 0,-0.292585 -0.2852114,-0.6296 -0.973043,-1.14845 -0.534772,-0.404055 -1.0445871,-0.734422 -1.133715,-0.734422 -0.088178,0 -0.5328701,-0.327755 -0.9877814,-0.727997 L 2.6874222,62.916394 v -2.58381 L 3.4151851,59.747657 C 3.8237487,59.418959 4.2917333,58.818366 4.48021,58.378177 4.6983952,57.868612 5.0370838,57.462888 5.4446997,57.222364 5.7909933,57.017958 6.0334211,56.785035 5.9832717,56.705193 5.8171368,56.43588 4.3537662,55.695042 3.7512571,55.575259 3.0021022,55.424821 2.5091616,54.986796 2.5091616,54.471487 c 0,-0.51526 0.2942425,-0.615578 1.8001595,-0.615578 1.7732998,0 2.5975603,-0.293514 2.7396901,-0.974927 C 7.1502619,52.3954 7.0649589,52.254227 6.2171448,51.495801 5.6545689,50.992642 5.1003075,50.649903 4.8476581,50.649182 4.1978315,50.646075 1.6577887,48.083692 1.3977713,47.169134 1.2863012,46.77815 1.1415566,44.37262 1.0754827,41.823316 0.95569406,37.224769 0.71160095,35.097808 0.2493211,34.635528 -0.09340741,34.293736 -0.07938454,31.419292 0.26501,31.287632 0.40333759,31.234622 0.56947322,30.976516 0.6355468,30.71385 0.7004324,30.451018 0.91766822,29.971123 1.117316,29.646921 c 0.2849734,-0.462238 0.4641809,-0.577307 0.8328164,-0.534765 0.4261529,0.04923 0.4670317,0.121711 0.4427885,0.767962 -0.039928,1.045301 0.2906778,3.716265 0.48367,3.912382 0.091979,0.09362 0.1673261,0.39264 0.1673261,0.664765 0,0.347955 0.256213,0.763175 0.8679903,1.404668 0.7120766,0.747258 0.9590208,0.898639 1.381371,0.850405 0.5136182,-0.05847 0.5136182,-0.05942 0.4644195,-1.217139 C 5.6778384,33.592856 5.5338086,32.397806 5.3370102,32.001593 5.0380173,31.397908 5.209856,30.779686 5.6963771,30.711037 c 0.593241,-0.08367 2.3387316,1.777812 2.3387316,2.492707 0,0.482737 0.1418933,0.876569 0.9887324,2.737104 0.2227014,0.490079 0.4577639,1.197629 0.5207481,1.572698 0.108617,0.64052 0.5979928,1.687021 1.0426838,2.233659 0.254313,0.312084 0.590386,0.892252 0.835431,1.441045 0.106953,0.239574 0.519083,0.801208 0.916479,1.247796 0.397392,0.447535 0.874646,0.984925 1.061223,1.194793 0.186575,0.209877 0.338925,0.458718 0.338925,0.551659 0,0.09362 0.160431,0.315615 0.356513,0.492926 0.195846,0.17731 0.356514,0.427116 0.356514,0.555215 0,0.127142 0.281172,0.455872 0.623899,0.729673 0.343443,0.2738 0.630318,0.618426 0.637686,0.765073 0.0093,0.169946 0.04635,0.189419 0.101249,0.05371 0.04825,-0.117889 -0.07701,-0.438978 -0.277605,-0.713021 -0.363881,-0.497449 -0.778863,-2.034044 -1.099252,-4.064503 -0.265484,-1.681318 -0.457763,-2.084425 -1.502111,-3.154903 -0.538573,-0.551415 -0.979462,-1.091641 -0.979462,-1.200262 0,-0.108628 -0.197033,-0.287829 -0.436373,-0.397408 -0.271189,-0.12358 -0.482958,-0.4095 -0.558064,-0.753895 -0.06584,-0.304472 -0.311117,-0.950713 -0.543089,-1.434369 -0.258115,-0.536678 -0.4232996,-1.202405 -0.4232996,-1.707471 0,-0.741801 -0.088178,-0.922891 -0.8468406,-1.736244 C 8.6839646,31.117699 8.023938,30.556757 7.6840614,30.371134 7.3432337,30.185514 7.0221348,29.878201 6.9710341,29.689717 6.9189821,29.500296 6.6534986,29.016606 6.3815975,28.615424 5.4651185,27.26661 5.5328569,26.071596 6.6266419,24.270491 6.9451266,23.746876 6.9672316,23.595474 6.7761396,23.290061 6.6515976,23.090414 6.3666252,22.562297 6.1420209,22.115704 5.5794405,20.996964 4.8374177,20.099975 3.7697764,19.250522 2.7114049,18.407486 2.5564427,17.735338 3.3046463,17.2443 c 0.7539065,-0.493892 1.3982459,-0.367685 2.1668918,0.425202 0.5561594,0.571847 0.8190292,0.713027 1.3362124,0.713027 1.00727,0 1.5187487,0.517896 1.6644439,1.686787 0.067976,0.539523 0.1970335,1.027948 0.2887774,1.083563 0.09103,0.05657 0.1654211,0.338926 0.1654211,0.626752 0,0.329419 0.092694,0.524551 0.2486093,0.524551 0.2823598,0 0.4644195,-0.377905 0.4644195,-0.965677 0,-0.220801 0.049196,-0.450159 0.1095683,-0.509578 0.05942,-0.06037 0.097446,-1.096636 0.084375,-2.302604 -0.014007,-1.206919 0.052052,-2.453767 0.144746,-2.77035 0.242428,-0.825449 2.082516,-3.501204 3.181766,-4.629215 0.803107,-0.823309 0.935967,-1.05837 0.935967,-1.6506583 0,-0.8996027 0.146646,-1.2542154 0.517896,-1.2542154 0.545942,0 0.729903,0.3990577 0.729903,1.5838724 0,1.4510113 -0.410466,2.9402883 -1.28226,4.6503663 -0.373153,0.732517 -0.678566,1.540377 -0.678566,1.795641 0,0.501259 0.498407,1.047201 1.312684,1.439128 0.843988,0.406663 1.351901,2.416689 0.918142,3.632877 -0.140228,0.391689 -0.258116,1.250412 -0.261681,1.907824 -0.0093,1.401111 0.409279,2.200399 1.617147,3.083385 0.402147,0.29421 0.916479,0.882016 1.142983,1.307198 0.360317,0.675698 0.432571,0.731583 0.582069,0.445625 0.09388,-0.180118 0.210818,-1.168876 0.260017,-2.198482 0.118839,-2.482762 0.652659,-4.747099 1.295097,-5.494353 0.202499,-0.235062 1.003706,-0.759612 1.780667,-1.165324 1.637824,-0.855871 2.139082,-1.471453 2.310903,-2.834523 0.238642,-1.892852 0.852308,-3.161091 1.649748,-3.414691 0.207958,-0.06584 0.644338,-0.298996 0.971136,-0.517896 0.826383,-0.55521 2.761319,-1.368537 3.257101,-1.368537 0.453019,0 0.626508,0.384322 0.63128,1.397297 9.88e-4,0.45206 -0.190392,0.81499 -0.800254,1.512332 -0.441167,0.50411 -0.80218,1.033414 -0.80218,1.175307 0,0.143081 -0.306363,0.6258 -0.681654,1.073344 -0.655267,0.782666 -2.075874,2.83072 -2.772264,3.996758 -0.183698,0.307315 -0.4744,0.763178 -0.645998,1.012025 -0.170886,0.249797 -0.396415,0.810474 -0.501484,1.247799 -0.103868,0.438273 -0.278533,1.116838 -0.389065,1.508772 -0.538343,1.924469 -0.568052,2.226286 -0.456585,4.714513 0.06299,1.416793 0.183714,2.659847 0.268345,2.763001 0.08438,0.102927 0.193951,0.668331 0.243119,1.257078 0.0965,1.156779 0.395524,2.710925 0.686196,3.565136 0.09933,0.294239 0.255243,0.838284 0.346299,1.208822 0.09008,0.371243 0.234793,0.812374 0.322018,0.980397 0.08631,0.168998 0.298047,0.667393 0.470871,1.108533 0.171604,0.440878 0.621032,1.459328 0.997972,2.262432 0.377905,0.803106 0.688784,1.564376 0.691667,1.693437 0.0029,0.128117 0.203411,0.554263 0.444691,0.946193 0.241448,0.391691 0.440137,0.857771 0.440137,1.035086 0,0.177306 0.228429,0.537604 0.506026,0.802149 0.709212,0.674052 1.507606,1.838409 2.042354,2.975712 0.137384,0.294222 0.452294,0.775033 0.69924,1.069539 0.246007,0.294244 0.498423,0.697095 0.560677,0.894848 0.0965,0.30825 0.602507,0.908138 1.349049,1.600748 0.105767,0.09839 0.572806,0.687834 1.038876,1.311734 2.069463,2.770603 2.378664,3.190073 2.917006,3.946839 0.314927,0.440879 0.760569,1.002535 0.992543,1.2478 0.231248,0.245038 0.781711,0.84659 1.222841,1.336918 0.440886,0.490091 0.887481,0.971148 0.99158,1.069556 0.103867,0.09838 1.014635,0.980399 2.024762,1.960817 5.55472,5.392155 8.416108,8.060543 9.691003,9.035243 0.425194,0.325137 1.146534,0.921952 1.604295,1.327672 0.457543,0.4057 1.514253,1.251593 2.347068,1.879997 3.091433,2.333275 3.87886,2.960988 6.060738,4.836244 1.546553,1.329554 4.201863,3.331271 4.418142,3.331271 0.07821,0 0.540482,0.361027 1.026054,0.802154 0.486525,0.440885 1.124209,0.923602 1.418686,1.073107 0.294239,0.1495 0.735133,0.42068 0.980423,0.602742 0.245033,0.18182 1.007267,0.704463 1.693437,1.160338 0.685927,0.456812 1.608823,1.109467 2.04994,1.451243 0.440899,0.34059 1.042461,0.742749 1.336942,0.892235 0.622947,0.317545 1.560565,0.964485 2.310679,1.596001 0.29163,0.24409 0.594193,0.443735 0.674049,0.443735 0.07984,0 0.545001,0.315649 1.03247,0.700917 0.488427,0.386206 1.06764,0.756746 1.287726,0.823535 0.219129,0.06679 0.65907,0.315644 0.977555,0.554267 0.317531,0.238617 0.88011,0.569948 1.249697,0.737025 0.369586,0.167325 0.851355,0.483922 1.071451,0.704715 0.219128,0.221035 0.589432,0.401201 0.82354,0.401201 0.256219,0 0.54024,0.176348 0.714692,0.442781 0.159718,0.243142 0.509816,0.497697 0.779109,0.564486 0.26834,0.06679 0.56899,0.232197 0.669285,0.367675 0.100303,0.135484 0.621065,0.466088 1.155817,0.733465 0.535731,0.267391 1.068835,0.676672 1.184831,0.908884 0.192043,0.385272 0.957102,0.784577 1.964378,1.02581 0.212722,0.0511 0.568288,0.28522 0.788375,0.52003 0.221035,0.23577 0.497697,0.42806 0.613676,0.42806 0.116939,0 0.515289,0.2403 0.884866,0.53477 0.370304,0.29424 0.751053,0.53477 0.845663,0.53477 0.09577,0 0.600835,0.44089 1.12254,0.98041 0.522643,0.5393 1.049099,0.98041 1.170788,0.98041 0.120509,0 0.371251,0.13738 0.556879,0.30447 0.290678,0.26358 0.359358,0.26929 0.501485,0.0444 0.326812,-0.51599 0.261697,-2.03213 -0.112414,-2.61515 -0.138328,-0.21724 -0.252416,-0.67786 -0.252416,-1.02415 0,-0.43827 -0.108612,-0.6964 -0.36127,-0.852306 -0.541185,-0.33701 -0.719443,-1.299837 -0.752939,-4.076618 l -0.03067,-2.513178 0.573745,-0.471792 c 0.333459,-0.273803 0.573751,-0.636974 0.572798,-0.866094 0,-0.216506 0.168994,-0.552582 0.376951,-0.746533 0.605369,-0.563537 0.34915,-1.701763 -0.586582,-2.607066 -0.404041,-0.389777 -1.045533,-1.129909 -1.427003,-1.644245 -0.381707,-0.514336 -0.775292,-0.935732 -0.875596,-0.935732 -0.09935,0 -0.294239,-0.271179 -0.432568,-0.6025 -0.139281,-0.331572 -0.372436,-0.64815 -0.520031,-0.70471 -0.489142,-0.187529 -1.47977,-2.487288 -1.598609,-3.708231 -0.124553,-1.296048 -0.525497,-3.678257 -0.686174,-4.07567 -0.261914,-0.651711 -0.48652,-1.589561 -0.597991,-2.49559 -0.06584,-0.539515 -0.229115,-1.196693 -0.362929,-1.46241 -0.328718,-0.649825 -0.345337,-5.188001 -0.02065,-5.44231 0.122628,-0.09555 0.48937,-0.263578 0.816186,-0.373148 0.325848,-0.109569 0.82068,-0.38266 1.099239,-0.605354 0.278563,-0.222947 0.843745,-0.606323 1.255174,-0.851366 1.21429,-0.723246 1.59693,-1.445539 1.603346,-3.027756 0.004,-0.893884 0.09295,-1.454814 0.267391,-1.685815 0.155911,-0.206085 0.26264,-0.74561 0.264537,-1.336948 0.004,-1.167918 0.587767,-2.385068 1.186474,-2.471578 0.208199,-0.02968 0.519082,-0.209873 0.691879,-0.400948 0.176348,-0.194198 0.544987,-0.346315 0.842081,-0.346315 0.332268,0 0.752968,-0.197763 1.136337,-0.534759 0.33513,-0.2945 0.6971,-0.534772 0.80501,-0.534772 0.10767,0 0.73513,-0.550716 1.39634,-1.22285 l 1.20122,-1.222597 0.12716,-1.361172 c 0.0706,-0.748207 0.20154,-1.405638 0.29067,-1.461225 0.0901,-0.05588 0.16068,-1.158702 0.15687,-2.452108 -0.006,-2.271722 -0.0882,-2.828828 -0.79645,-5.381945 -0.29996,-1.082609 -0.3955,-4.745205 -0.15045,-5.769346 0.28688,-1.199562 1.18457,-2.312582 2.33968,-2.901302 1.16033,-0.591324 1.98483,-0.286867 1.75452,0.648135 -0.0601,0.245045 -0.16328,0.667395 -0.2284,0.936682 -0.0639,0.269296 -0.26644,0.692597 -0.44921,0.940478 -0.18301,0.247907 -0.33703,0.689021 -0.34345,0.980426 -0.0152,0.727045 0.29046,2.030458 0.53288,2.273848 0.10957,0.109554 0.19964,0.494826 0.19964,0.855864 0,0.540476 0.11028,0.740133 0.6239,1.131815 0.36009,0.274758 0.63032,0.641482 0.63959,0.867999 0.0123,0.273083 0.0696,0.202488 0.19323,-0.231988 0.23934,-0.848735 0.98684,-1.604307 1.58649,-1.604307 0.76317,0 1.08642,0.890331 1.05385,2.90393 -0.0152,0.902454 0.0594,2.122432 0.16519,2.711176 0.106,0.588476 0.19228,1.475251 0.19323,1.971045 0,0.515257 0.11312,1.05003 0.26263,1.247797 0.14403,0.190146 0.26453,0.44562 0.26739,0.566375 0.003,0.120509 0.24599,0.610827 0.54047,1.08903 0.29424,0.477971 0.53477,1.021995 0.53477,1.208591 0,0.186813 0.18087,0.41783 0.40097,0.514563 0.39097,0.171582 0.40285,0.257173 0.45039,3.206731 0.0297,1.798245 -0.0307,3.356232 -0.14855,3.832504 -0.10862,0.440899 -0.26835,1.471468 -0.35485,2.289535 -0.0863,0.817841 -0.19679,1.62001 -0.24696,1.782578 -0.0492,0.162332 -0.10765,1.423205 -0.12976,2.802918 -0.0373,2.298554 -0.009,2.559525 0.34534,3.130426 0.94976,1.537526 1.55774,1.54037 1.74716,0.0068 0.12715,-1.030558 0.78742,-2.721154 1.28225,-3.283017 0.15117,-0.171602 0.42047,-0.311832 0.59872,-0.311832 0.55427,0 0.82449,0.851356 0.84946,2.67386 0.0307,2.263394 0.16826,3.142551 0.64076,4.099905 0.21819,0.44089 0.44469,1.082387 0.50317,1.426055 0.0585,0.34345 0.18942,1.10472 0.29162,1.693451 0.19941,1.152969 -0.0577,2.35821 -0.70376,3.297755 -0.16802,0.245043 -0.6453,1.207869 -1.06028,2.139087 -0.41498,0.931198 -0.89698,1.854103 -1.07047,2.04994 -0.17376,0.195857 -0.39005,0.496744 -0.48011,0.667397 -0.24695,0.466083 -2.51224,1.893091 -3.34505,2.107715 -0.4012,0.102922 -0.95261,0.257168 -1.22641,0.342477 -0.86895,0.270252 -1.75476,0 -2.73708,-0.834711 -0.70732,-0.600609 -0.8958,-0.865131 -0.82069,-1.151305 0.0853,-0.326796 0.18943,-0.358163 0.88296,-0.263578 0.56068,0.07701 0.90698,0.02781 1.21262,-0.171839 1.00062,-0.65621 1.54941,-3.101661 0.91339,-4.07281 -0.15972,-0.244327 -0.29043,-0.590622 -0.29043,-0.770546 0,-0.180175 -0.0865,-0.413315 -0.19228,-0.519087 -0.10577,-0.105776 -0.26192,-0.462285 -0.34724,-0.793842 -0.0853,-0.330594 -0.30923,-1.026751 -0.4977,-1.547734 l -0.34155,-0.946904 -0.35841,0.688076 c -0.3722,0.714687 -0.59324,1.699862 -0.61463,2.738718 -0.0249,1.218108 -0.63222,1.67778 -1.73052,1.312692 -0.53477,-0.177301 -0.73538,-0.401912 -1.20882,-1.350712 -0.51623,-1.035314 -0.56829,-1.292472 -0.57375,-2.831662 -0.006,-1.488324 0.0696,-1.909024 0.61915,-3.47601 2.02119,-5.754378 2.06113,-5.92717 2.14669,-9.233247 0.0611,-2.375798 -0.11979,-3.113767 -0.36412,-1.48546 -0.0649,0.431852 -0.27571,0.927415 -0.4687,1.102094 -0.19322,0.174456 -0.53026,0.675956 -0.74939,1.114949 -0.54405,1.089025 -1.01202,1.373994 -1.89215,1.150341 -0.64505,-0.164228 -0.70541,-0.143786 -0.9785,0.317536 -0.16067,0.27119 -0.29139,0.579218 -0.29139,0.684268 0,0.105772 -0.29258,0.815228 -0.6491,1.577457 -0.72515,1.544894 -1.11779,2.970949 -1.12706,4.09136 -0.005,0.584913 -0.0827,0.76983 -0.36127,0.858004 -0.19489,0.06227 -0.43636,0.06298 -0.53477,0.002 -0.282123,-0.174698 -0.218901,2.498204 0.092,3.920692 0.15046,0.685938 0.4038,1.648769 0.56161,2.139092 0.15879,0.490091 0.32136,1.167934 0.35939,1.506855 0.039,0.337751 0.13475,0.699011 0.21271,0.802165 0.077,0.101958 0.3684,0.748197 0.64697,1.434362 0.52096,1.280135 1.58671,2.694311 3.20219,4.248466 0.88487,0.851361 2.3423,1.655422 3.77121,2.081569 1.29605,0.386221 3.88837,3.275416 4.23633,4.721908 0.6472,2.692381 0.48748,4.611376 -0.5709,6.862888 -0.25241,0.53928 -0.60535,1.1715 -0.78266,1.40563 -0.40476,0.5338 -0.41023,1.15295 -0.0159,1.81963 0.38789,0.65742 0.56805,0.64981 1.4389,-0.0613 0.39001,-0.31849 0.97209,-0.73989 1.29437,-0.93573 1.37781,-0.83924 1.7676,-1.09831 2.08704,-1.38804 0.18562,-0.16802 0.43542,-0.30541 0.55522,-0.30541 0.11883,0 0.39834,-0.1811 0.62008,-0.4031 0.22104,-0.22175 0.75107,-0.55972 1.17625,-0.752005 0.42522,-0.192039 0.86255,-0.435413 0.9702,-0.541189 0.44114,-0.431619 1.88382,-1.334077 2.13173,-1.334077 0.14664,0 0.5041,-0.200598 0.79573,-0.445641 0.2914,-0.245043 0.60726,-0.445641 0.70185,-0.445641 0.0956,0 0.47535,-0.240529 0.84589,-0.534758 0.3703,-0.294496 0.76865,-0.534773 0.88464,-0.534773 0.11693,0 0.39192,-0.191338 0.61177,-0.426167 0.2201,-0.234103 0.62223,-0.469871 0.8932,-0.52455 0.27117,-0.05396 0.8347,-0.383598 1.25255,-0.732511 0.41781,-0.34915 0.85586,-0.634119 0.97374,-0.634119 0.25742,0 1.74098,-1.050062 1.94419,-1.375915 0.078,-0.125492 0.2479,-0.228404 0.37601,-0.228404 0.12907,0 0.51813,-0.221035 0.86537,-0.490327 0.34726,-0.269279 0.89771,-0.650753 1.22166,-0.846585 1.18577,-0.715897 1.56914,-0.968309 2.41503,-1.589591 0.47345,-0.348192 1.54299,-1.094493 2.37675,-1.658025 0.83354,-0.563527 1.55511,-1.07524 1.60432,-1.136571 0.0492,-0.06107 0.35462,-0.247888 0.67761,-0.413069 0.32396,-0.166135 0.73728,-0.438287 0.91814,-0.604412 0.88201,-0.811429 1.19861,-1.065738 1.56914,-1.261589 0.85325,-0.452299 3.17986,-2.229158 4.46118,-3.408273 0.26644,-0.24529 0.945,-0.806906 1.50758,-1.247791 0.56257,-0.441131 1.40466,-1.108528 1.87169,-1.483572 0.46704,-0.374358 1.28963,-1.012981 1.82916,-1.417743 1.33501,-1.003701 1.19004,-0.888664 2.58473,-2.056603 0.68593,-0.574713 1.38041,-1.117789 1.54393,-1.207874 0.3898,-0.214382 4.71716,-4.110128 6.29937,-5.671662 0.68594,-0.677615 2.40552,-2.351567 3.82135,-3.720094 2.73779,-2.64796 5.7154,-5.935472 5.7154,-6.311495 0,-0.124311 0.18847,-0.350078 0.41855,-0.500304 0.22935,-0.151412 0.50149,-0.457751 0.60346,-0.682619 0.1022,-0.223647 0.67594,-1.016537 1.27583,-1.762111 0.59872,-0.744409 1.08903,-1.41109 1.08903,-1.481667 0,-0.06967 0.31755,-0.418793 0.70542,-0.775302 0.38909,-0.356513 0.8497,-0.899608 1.02512,-1.206921 1.39823,-2.449254 2.32279,-3.894805 3.0016,-4.689357 0.43637,-0.511716 0.79384,-1.044587 0.79384,-1.183864 0,-0.138313 0.21248,-0.673085 0.47345,-1.188379 0.7482,-1.478816 0.9526,-1.933016 0.9526,-2.111989 0,-0.09293 0.20036,-0.485569 0.44564,-0.873694 0.24504,-0.388116 0.44565,-0.807865 0.44565,-0.932156 0,-0.124545 0.19299,-0.707566 0.43067,-1.296044 0.64053,-1.588647 1.00465,-2.74635 1.17815,-3.743401 0.0856,-0.490342 0.29068,-1.57272 0.45681,-2.406457 0.3425,-1.717681 0.55047,-7.74684 0.27951,-8.082879 -0.092,-0.11338 -0.31112,-0.807634 -0.48843,-1.542058 -0.19678,-0.819032 -0.60155,-1.79184 -1.04435,-2.513424 -1.65089,-2.686688 -2.17448,-3.471257 -2.64413,-3.960631 -0.27214,-0.283073 -0.70209,-0.888432 -0.95546,-1.344295 -0.25432,-0.454912 -0.7772,-1.170792 -1.16152,-1.589339 -0.60252,-0.654559 -0.68594,-0.843037 -0.5942,-1.336927 0.0594,-0.316584 0.13002,-0.736319 0.15688,-0.932164 0.11052,-0.781717 1.21452,-0.471787 4.29218,1.203114 1.26277,0.687121 1.80396,1.569138 2.05542,3.350755 0.25456,1.797306 0.56828,2.214189 2.36584,3.144453 2.34514,1.213574 2.6496,1.865281 2.97926,6.383962 0.0863,1.176253 0.23196,2.339437 0.32394,2.584719 0.1652,0.439972 0.1709,0.437327 0.46704,-0.267386 0.33132,-0.788328 1.11303,-1.693406 1.46408,-1.693406 0.1236,0 0.47536,-0.363171 0.78077,-0.807865 0.55236,-0.802187 0.55427,-0.816922 0.4504,-2.540053 -0.22936,-3.778809 -0.0651,-4.744249 0.88297,-5.185375 1.39063,-0.646954 1.51232,-1.437939 0.51337,-3.340297 -0.91173,-1.733372 -1.44007,-4.182622 -1.16984,-5.4173478 0.10956,-0.502447 0.22009,-0.6238997 0.56543,-0.6238997 0.38812,0 0.4492,0.1114712 0.63769,1.152016 0.14023,0.7743485 0.31491,1.2135735 0.53311,1.3369265 0.8012,0.454912 3.16108,3.666389 3.58177,4.874258 0.11314,0.323953 0.21082,1.607165 0.21627,2.852111 0.007,1.244234 0.0751,2.583775 0.15402,2.975702 0.17375,0.863477 0.6434,0.978513 0.73086,0.178258 0.0314,-0.294482 0.13168,-0.611066 0.22271,-0.703759 0.0901,-0.09388 0.16517,-0.494841 0.16707,-0.891284 0.002,-0.397395 0.0613,-0.80691 0.13382,-0.910775 0.28878,-0.415933 1.0434,-0.791936 1.58935,-0.791936 0.43733,0 0.74938,-0.17374 1.28415,-0.713027 0.81594,-0.824498 1.48262,-0.92765 2.22441,-0.34368 0.7734,0.608212 0.6201,1.084516 -0.67856,2.11793 -1.17079,0.931215 -1.40204,1.232826 -2.41218,3.139937 l -0.5728,1.081425 0.36674,0.701158 c 0.868,1.661826 0.9469,1.914236 0.83376,2.668155 -0.0613,0.410428 -0.38716,1.178158 -0.72419,1.706487 -0.33607,0.528103 -0.61368,1.060262 -0.61653,1.181009 -0.003,0.121481 -0.26739,0.330379 -0.58848,0.46512 -0.32135,0.133578 -0.96378,0.665512 -1.42607,1.179838 -0.75033,0.833775 -0.84207,1.027951 -0.84207,1.768784 0,0.45778 -0.10506,0.990652 -0.23317,1.183639 -0.1281,0.194174 -0.38907,0.82354 -0.57921,1.4011 -0.23412,0.708272 -0.4763,1.108516 -0.74748,1.231863 -0.22106,0.100311 -0.40097,0.278565 -0.40097,0.396453 0,0.117889 -0.47369,0.697336 -1.05196,1.286767 -1.08451,1.10496 -1.12064,1.187678 -1.50877,3.522596 -0.28497,1.708181 -0.74274,3.269959 -1.13086,3.856536 -0.24409,0.36959 -0.4019,0.775306 -0.35081,0.902464 0.0604,0.152322 0.0975,0.127147 0.10672,-0.07226 0.008,-0.168295 0.33513,-0.632453 0.72705,-1.03246 0.39169,-0.400246 0.71303,-0.84686 0.71303,-0.993487 0,-0.145704 0.1205,-0.311839 0.26737,-0.368638 0.14667,-0.05563 0.26739,-0.180884 0.26739,-0.276659 0,-0.0965 0.50673,-0.766743 1.12706,-1.489999 0.61916,-0.723239 1.34145,-1.75475 1.60433,-2.29143 0.26261,-0.537611 0.55972,-1.026751 0.65812,-1.08807 0.28687,-0.177303 0.88867,-1.460522 0.88867,-1.893097 0,-0.216277 0.25146,-0.961884 0.55877,-1.656357 0.99443,-2.246769 1.04553,-2.380345 1.04553,-2.751828 0,-0.468682 0.76129,-1.598599 1.43628,-2.131701 0.91434,-0.723003 1.74264,-0.234807 1.26895,0.748441 -0.24409,0.508851 -0.44564,2.065626 -0.46322,3.58653 l -0.014,1.247805 h 0.6201 c 0.5022,0 0.68878,-0.107681 0.98041,-0.565434 0.19774,-0.311119 0.54024,-0.65004 0.76128,-0.753907 0.29804,-0.139289 0.4012,-0.340827 0.4012,-0.780768 0,-0.324897 0.0779,-0.670488 0.17444,-0.766037 0.1949,-0.195827 0.36103,-1.914459 0.34629,-3.595773 l -0.009,-1.114007 h 0.53095 c 0.48201,0 0.59063,0.120756 1.16984,1.294122 0.57945,1.170796 0.63983,1.43441 0.63983,2.775137 0,1.079743 -0.0725,1.555108 -0.26739,1.749056 -0.16448,0.165412 -0.26739,0.601556 -0.26739,1.135606 0,0.477969 -0.0798,0.918149 -0.17825,0.978512 -0.11147,0.06868 -0.17826,1.751908 -0.17826,4.46 0,5.471291 -0.0808,5.809275 -1.84127,7.673569 -0.94214,0.998027 -1.38517,1.332207 -1.96083,1.476951 -1.02675,0.259069 -2.31069,1.561745 -2.22797,2.260776 0.078,0.665723 0.86704,0.942379 2.74159,0.959947 0.86063,0.0085 1.5197,0.09937 1.64875,0.227475 0.55901,0.559967 -0.0333,1.341669 -1.14559,1.511621 -0.37981,0.05847 -0.81142,0.199413 -0.95807,0.314672 -0.14689,0.115046 -0.48843,0.302551 -0.75771,0.417849 -0.6415,0.272849 -0.622,0.622947 0.0482,0.876288 0.38718,0.145726 0.64338,0.441146 0.91268,1.049123 0.20606,0.46512 0.61367,1.047183 0.90697,1.294122 1.00014,0.840456 1.0289,0.899871 1.0289,2.08348 0,1.004649 -0.0613,1.209781 -0.52003,1.731466 -0.28593,0.325853 -0.74653,0.708523 -1.02487,0.850408 -0.27759,0.142126 -0.90625,0.548784 -1.39633,0.903416 -0.96664,0.699228 -1.21644,1.249692 -1.44745,3.192927 -0.23222,1.956067 -0.85135,2.483481 -2.95527,2.515085 -0.71588,0.01042 -1.78257,0.07059 -2.37105,0.133572 -0.91173,0.09746 -1.06954,0.166372 -1.06954,0.469886 0,0.415934 1.51874,1.326699 2.2282,1.335031 0.53289,0.0065 1.13824,0.388123 2.07206,1.307215 1.56082,1.536563 3.29419,1.676797 4.9653,0.401206 0.82996,-0.634129 1.38231,-0.7734 1.85957,-0.471807 0.41594,0.263835 0.26644,1.847707 -0.24885,2.639648 -1.05456,1.620938 -1.56438,2.18733 -1.96819,2.18733 -0.42521,0 -1.01108,0.599655 -1.54774,1.583867 -0.16709,0.307313 -0.50958,0.636015 -0.76033,0.731563 -1.11874,0.425214 -2.38697,1.83818 -2.16688,2.412894 0.0556,0.144981 0.28401,0.265485 0.50789,0.26833 0.22367,0.003 0.56259,0.123596 0.75297,0.267386 0.4214,0.319433 2.77867,0.363172 3.08408,0.05751 0.1533,-0.153061 0.17636,-0.09744 0.0939,0.222936 -0.0984,0.382438 -0.0789,0.400969 0.18847,0.182072 0.39075,-0.320395 0.37791,-0.06607 -0.0307,0.601557 -0.31658,0.517186 -0.78836,0.728708 -2.43427,1.089035 -0.29448,0.06488 -0.65551,0.210811 -0.80216,0.323947 -0.781,0.602509 -1.16888,0.653617 -4.46118,0.585875 -1.87455,-0.03897 -3.63858,-0.165191 -4.09515,-0.292589 -0.98707,-0.275709 -7.03474,-0.140946 -9.16836,0.204415 l -1.41392,0.228399 -0.36388,1.015594 -0.36484,1.01583 0.37601,0.658112 c 0.44849,0.784572 1.29223,1.136325 2.73516,1.140143 1.07692,0.003 3.68946,-0.448506 3.99581,-0.689746 0.10578,-0.08367 0.51434,-0.253607 0.90627,-0.376951 0.39169,-0.123581 1.17151,-0.504112 1.73146,-0.846841 1.19196,-0.72777 2.56049,-0.983027 2.74159,-0.511481 0.25527,0.664784 -0.13286,1.574611 -1.14202,2.678374 -0.55783,0.610106 -1.25803,1.384464 -1.55702,1.721479 -0.29876,0.33704 -0.80026,0.749155 -1.11398,0.916248 -0.56544,0.300901 -0.57089,0.317546 -0.57089,1.646141 0,1.213347 -0.0476,1.395394 -0.49034,1.889283 -0.53667,0.598954 -1.36948,0.886782 -2.92722,1.012028 -0.63413,0.0511 -1.11041,0.192281 -1.27655,0.377909 -0.28878,0.322988 -0.4504,2.735891 -0.21819,3.272551 0.2265,0.5255 0.0352,0.94239 -0.45872,0.9999 -0.45039,0.053 -0.56353,-0.0502 -1.71198,-1.56153 -0.0335,-0.0445 -0.56828,0.17635 -1.18647,0.49033 -0.61939,0.31467 -1.18934,0.57185 -1.26824,0.57185 -0.0789,0 -0.40405,0.19869 -0.72135,0.44089 -0.71587,0.54594 -1.67585,0.70945 -3.20221,0.54594 -1.01106,-0.10862 -1.20501,-0.18752 -1.37399,-0.55806 -0.23768,-0.52076 -1.70011,-1.26349 -2.81219,-1.42773 -0.44112,-0.0661 -0.91078,-0.20535 -1.04459,-0.31112 -0.13286,-0.10575 -0.97494,-0.27475 -1.87169,-0.37695 -3.3933,-0.38527 -7.85994,0.34177 -9.92393,1.61549 -0.93952,0.58016 -1.02581,0.69068 -1.21238,1.5513 -0.37244,1.71198 -0.44303,2.44188 -0.23673,2.44188 0.10673,0 0.45849,0.22842 0.77982,0.50769 0.47893,0.41521 0.70732,0.49317 1.25421,0.42615 0.36768,-0.0445 0.66859,-0.14665 0.66859,-0.22461 0,-0.0789 0.33702,-0.39074 0.7482,-0.69354 0.67501,-0.49674 0.8756,-0.55045 2.04806,-0.55045 1.07333,0 1.52635,0.0994 2.594,0.56899 0.71207,0.31302 1.47905,0.70852 1.70365,0.8794 0.22555,0.1697 0.6555,0.36294 0.95545,0.42877 0.29994,0.0661 0.82356,0.30922 1.16319,0.53952 0.33989,0.23103 0.77721,0.4706 0.9721,0.53192 0.23672,0.0751 0.33512,0.23958 0.29804,0.49769 -0.0521,0.36674 -0.16899,0.39075 -2.372,0.4882 -3.12877,0.13832 -4.29956,0.61558 -6.58625,2.68145 -0.60915,0.55141 -1.38802,1.09449 -1.73075,1.20691 -0.71374,0.23578 -1.14655,0.75844 -1.83628,2.21706 -0.60345,1.27561 -2.07039,2.79459 -2.69904,2.79459 -0.24505,0 -0.68784,0.12525 -0.98493,0.27855 -0.54691,0.28308 -1.96368,0.27761 -5.18254,-0.0197 -1.13917,-0.10506 -1.23377,-0.0837 -2.04994,0.47153 -0.47061,0.3204 -0.8977,0.6434 -0.9488,0.7178 -0.13381,0.19298 -1.27561,0.95332 -1.64519,1.0945 -0.3936,0.15138 -0.41214,0.97756 -0.0342,1.51708 0.34059,0.48747 1.42415,0.53929 2.25508,0.10957 0.37694,-0.19513 1.07049,-0.29257 2.17426,-0.30731 1.44934,-0.0197 1.71958,0.0307 2.54859,0.46964 1.29058,0.68332 1.68702,1.30531 1.79564,2.81219 0.0853,1.19955 0.077,1.2283 -0.39383,1.40752 -0.26452,0.10029 -1.02676,0.183 -1.6951,0.183 -1.59599,0 -1.6982,0.12906 -1.63688,2.06208 0.0352,1.13442 -0.0242,1.61619 -0.24694,1.99315 -0.42996,0.728 -1.5273,1.11422 -3.16418,1.11422 -1.36473,0 -1.37946,0.004 -1.37946,0.46038 0,0.33702 -0.30638,0.74654 -1.13824,1.52184 -0.62674,0.58302 -1.36404,1.38423 -1.63878,1.78067 -0.2738,0.39645 -0.80501,0.87631 -1.17815,1.06669 -0.3741,0.19132 -0.67953,0.41307 -0.67953,0.49294 0,0.35651 -1.04077,0.55996 -2.86803,0.55996 -2.22821,0 -2.7461,-0.17921 -4.04691,-1.40465 -1.21903,-1.14775 -2.57545,-1.21644 -2.85496,-0.14404 l -0.14759,0.56827 -1.54394,0.0123 c -1.48002,0.0121 -1.56915,0.0352 -2.17069,0.58397 -0.34536,0.31374 -0.62844,0.71468 -0.62844,0.89034 0,0.1754 -0.22934,0.53834 -0.51075,0.80762 -1.15296,1.10496 -4.88353,0.65837 -6.20097,-0.74178 -0.48818,-0.52004 -2.51602,-1.10663 -3.82135,-1.10663 -1.73599,0 -3.60221,0.59133 -4.70789,1.4919 -1.16437,0.9488 -2.54027,1.427 -4.90206,1.70366 -2.75205,0.32299 -3.08052,0.33701 -3.92165,0.16352 z"
           id="path1520" /><path
           style="fill:none;fill-opacity:1;fill-rule:nonzero;stroke:#000000;stroke-width:0.28346458;stroke-opacity:1;stroke-miterlimit:4;stroke-dasharray:none"
           d="m 94.441244,153.47798 c -0.385277,-0.21534 -0.404766,-1.12421 -0.03971,-1.8244 0.14665,-0.28022 0.266433,-0.8763 0.266433,-1.3229 0,-0.50601 0.111234,-0.93502 0.295197,-1.13823 0.274756,-0.3035 0.274756,-0.34819 0,-0.6517 -0.386216,-0.42712 -0.40572,-2.03523 -0.02781,-2.34801 0.147599,-0.12169 0.267382,-0.36412 0.267382,-0.53763 0,-0.60251 1.186489,-0.73537 1.682269,-0.18847 0.170654,0.18943 0.584923,0.47439 0.919098,0.63221 0.433535,0.20607 0.607261,0.40667 0.607261,0.70185 0,0.22748 0.150216,0.60443 0.333222,0.83853 0.429002,0.54595 0.857771,2.95979 0.577548,3.24 -0.108611,0.10886 -0.197738,0.33442 -0.197738,0.50149 0,0.1671 -0.274039,0.63223 -0.608209,1.03247 -0.335133,0.40097 -0.637927,0.81595 -0.67405,0.92361 -0.08367,0.25265 -2.987598,0.37244 -3.400899,0.14118 z"
           id="path1516" /><path
           style="fill:none;fill-opacity:1;fill-rule:nonzero;stroke:#000000;stroke-width:0.28346458;stroke-opacity:1;stroke-miterlimit:4;stroke-dasharray:none"
           d="m 145.88786,180.23982 c -0.21154,-0.0856 -0.42972,-0.3009 -0.48368,-0.47916 -0.12241,-0.40477 -0.76675,-4.91584 -0.92645,-6.48688 l -0.11884,-1.17247 0.68616,-0.56542 c 0.39075,-0.32229 0.89034,-0.56543 1.16035,-0.56543 0.2619,0 0.52192,-0.12075 0.5785,-0.26739 0.0556,-0.14664 0.21533,-0.26739 0.35366,-0.26739 0.13736,0 0.35105,-0.12074 0.47272,-0.26738 0.12242,-0.14664 0.47987,-0.26739 0.79456,-0.26739 0.41141,0 0.70662,-0.15044 1.0491,-0.53477 0.26192,-0.29448 0.63602,-0.53477 0.83187,-0.53477 0.19514,0 0.35485,-0.0799 0.35485,-0.17825 0,-0.0984 0.15021,-0.17826 0.33512,-0.17826 0.18373,0 0.43447,-0.12073 0.55617,-0.26739 0.12239,-0.14664 0.35723,-0.26738 0.52359,-0.26738 0.16519,0 0.53191,-0.24054 0.81332,-0.53477 0.28212,-0.29448 0.60514,-0.53478 0.71945,-0.53478 0.32302,0 1.37876,-0.54879 1.8168,-0.94428 0.28141,-0.25431 0.36769,-0.48081 0.29354,-0.77531 -0.077,-0.30636 -0.0178,-0.44374 0.22649,-0.51979 0.18206,-0.0575 0.45112,-0.17825 0.59799,-0.26929 0.1476,-0.092 0.44827,-0.24409 0.66835,-0.33987 0.22103,-0.0946 0.40119,-0.29971 0.40119,-0.45396 0,-0.15497 0.2403,-0.36484 0.53479,-0.46798 0.29424,-0.10197 0.53477,-0.25883 0.53477,-0.34701 0,-0.0884 0.12977,-0.16067 0.28853,-0.16067 0.15877,0 0.56282,-0.24053 0.897,-0.53478 0.33511,-0.29447 0.7047,-0.53476 0.82164,-0.53476 0.27023,0 2.80575,-2.50867 2.80575,-2.77606 0,-0.35841 0.60608,-0.89675 1.50664,-1.33787 0.95641,-0.468 3.69609,-3.07576 4.35993,-4.15006 0.22103,-0.35652 0.50053,-0.64887 0.62105,-0.64887 0.29543,0 1.06882,-0.84494 1.4327,-1.56722 0.16328,-0.323 0.49295,-0.66193 0.73347,-0.75391 0.24029,-0.091 0.43732,-0.28307 0.43732,-0.42711 0,-0.14378 0.35272,-0.61914 0.78433,-1.05742 0.43185,-0.43732 0.88868,-1.08357 1.01583,-1.43531 0.1281,-0.35202 0.35746,-0.68047 0.51148,-0.72873 0.15425,-0.0492 0.43922,-0.38455 0.63317,-0.74557 0.19418,-0.36034 0.76413,-1.15773 1.26633,-1.77141 0.50339,-0.61273 1.09568,-1.42154 1.31648,-1.79565 0.22201,-0.3741 0.58493,-0.84113 0.80692,-1.03698 0.22271,-0.19584 0.82165,-1.15866 1.33123,-2.13908 0.50981,-0.98041 1.19954,-2.23487 1.533,-2.78627 0.33322,-0.55237 0.60536,-1.12896 0.60536,-1.28203 0,-0.15329 0.15307,-0.38622 0.34059,-0.51718 0.36769,-0.25812 1.7985,-2.84854 1.7985,-3.25687 0,-0.13667 0.28116,-0.86443 0.62389,-1.61739 0.34344,-0.75295 0.6239,-1.44008 0.6239,-1.52635 0,-0.0863 0.19941,-0.56995 0.44279,-1.07406 0.24315,-0.50506 0.4939,-1.20619 0.55712,-1.55893 0.063,-0.3527 0.21343,-0.76222 0.33512,-0.90886 0.12074,-0.14664 0.35936,-0.82925 0.53001,-1.51518 0.34082,-1.37234 0.38718,-1.50307 1.05006,-2.97476 0.76317,-1.69438 1.37044,-3.73603 1.47526,-4.95768 0.0549,-0.63697 0.21724,-1.42153 0.36031,-1.74169 0.14381,-0.32133 0.34059,-1.04268 0.43827,-1.60431 0.0984,-0.56186 0.29425,-1.54323 0.43637,-2.17997 0.1419,-0.63696 0.33774,-2.44188 0.43615,-4.01077 0.0977,-1.56914 0.25907,-3.33318 0.35745,-3.92165 0.0984,-0.58873 0.25551,-2.06684 0.3482,-3.286597 0.0929,-1.219032 0.25812,-2.430704 0.36673,-2.692618 0.29069,-0.702804 1.59694,-1.233779 2.92366,-1.187442 l 1.05457,0.03635 0.43281,0.802164 c 0.39644,0.736092 0.4252,0.94595 0.34248,2.546694 -0.0492,0.959028 -0.16613,1.842008 -0.26003,1.960842 -0.0936,0.118837 -0.22079,2.100807 -0.28304,4.405307 -0.0623,2.30427 -0.19681,4.46926 -0.29996,4.81294 -0.10291,0.34345 -0.30161,1.26539 -0.44184,2.04995 -0.14023,0.78458 -0.3798,1.94777 -0.53191,2.58474 -0.15235,0.63673 -0.39384,1.96082 -0.53668,2.94124 -0.14213,0.98039 -0.38528,2.26337 -0.53952,2.85211 -0.50506,1.92542 -0.50601,1.93468 -0.2738,1.79088 0.30921,-0.19132 2.1531,-2.71474 2.1531,-2.94694 0,-0.27928 0.56448,-1.12136 0.93478,-1.39635 0.17468,-0.12881 0.47178,-0.53478 0.65932,-0.90317 0.18752,-0.36767 0.46679,-0.77339 0.62103,-0.90054 0.15401,-0.12811 0.28046,-0.36579 0.28046,-0.52836 0,-0.16257 0.16709,-0.43828 0.37125,-0.61273 0.20417,-0.17542 0.5709,-0.75296 0.81428,-1.28392 0.24315,-0.53121 0.51528,-1.01203 0.60536,-1.06788 0.0901,-0.0556 0.53667,-0.67857 0.99254,-1.38423 0.45586,-0.70661 1.01274,-1.50306 1.23663,-1.77045 0.22365,-0.26834 0.54951,-0.80952 0.7242,-1.20335 0.1735,-0.39454 0.37315,-0.7166 0.44373,-0.7166 0.0706,0 0.29329,-0.34083 0.49579,-0.7577 0.46419,-0.95617 1.39731,-2.0944 1.71651,-2.0944 0.1338,0 0.30185,0.0927 0.37243,0.207 0.18848,0.30637 0.11788,4.04882 -0.0939,4.97077 -0.10125,0.43637 -0.18562,1.20976 -0.18753,1.71934 -0.003,0.50886 -0.0799,0.97115 -0.17089,1.02795 -0.24409,0.15116 -0.65907,1.75096 -0.8996,3.46936 -0.12431,0.88938 -0.38717,1.83914 -0.64434,2.3323 -0.23958,0.45683 -0.5476,1.3702 -0.68594,2.02857 -0.1376,0.65908 -0.32418,1.29511 -0.41427,1.41205 -0.31088,0.40379 -0.79739,1.82249 -1.11303,3.24307 -0.41236,1.85673 -1.94513,5.34771 -2.99043,6.81084 -0.22391,0.31374 -0.57756,0.95546 -0.78552,1.42607 -0.20797,0.46988 -0.48463,0.93407 -0.61654,1.03246 -0.13072,0.0984 -0.38051,0.57921 -0.55425,1.06953 -0.17351,0.49009 -0.52265,1.0964 -0.77697,1.3481 -0.25456,0.25052 -0.60535,0.89224 -0.78077,1.42606 -0.17563,0.53287 -0.42259,1.03056 -0.5488,1.10567 -0.12714,0.0742 -0.52739,0.75677 -0.89032,1.51518 -0.36293,0.75843 -0.96925,1.71767 -1.34811,2.13266 -0.37884,0.41404 -0.68878,0.87631 -0.68878,1.02677 0,0.15139 -0.37242,0.73061 -0.8264,1.28964 -0.45491,0.5578 -0.935,1.2737 -1.06669,1.58932 -0.13285,0.31564 -0.32228,0.62486 -0.42258,0.68713 -0.10007,0.0613 -0.50863,0.59323 -0.90793,1.18196 -0.40024,0.58849 -0.97114,1.28582 -1.27014,1.54846 -0.29803,0.26357 -0.72965,0.77341 -0.95901,1.13371 -0.79931,1.25517 -3.16394,3.92617 -4.42197,4.99381 -0.69639,0.59062 -1.3973,1.28605 -1.55701,1.54584 -0.15972,0.25906 -0.38172,0.45041 -0.49295,0.42521 -0.11241,-0.0249 -0.30184,0.17374 -0.42258,0.44207 -0.25717,0.5709 -3.04224,3.35622 -3.70442,3.70442 -0.24955,0.13072 -1.25327,1.06669 -2.22987,2.07967 -1.79469,1.85956 -2.19209,2.19184 -3.57821,2.9997 -0.75677,0.44089 -3.22075,2.38318 -4.48994,3.539 -0.36103,0.3287 -0.89676,0.71969 -1.19099,0.86917 -0.29448,0.14855 -0.89604,0.52622 -1.33693,0.83924 -1.23495,0.87465 -5.39524,3.25498 -6.92136,3.95969 -1.98127,0.91552 -3.12901,1.49092 -4.88186,2.44734 -1.58553,0.86704 -4.75612,2.07491 -5.39858,2.05828 -0.19607,-0.006 -0.53025,-0.0799 -0.74201,-0.16518 z"
           id="path1512" /><path
           style="fill:none;fill-opacity:1;fill-rule:nonzero;stroke:#000000;stroke-width:0.28346458;stroke-opacity:1;stroke-miterlimit:4;stroke-dasharray:none"
           d="m 59.194866,179.89708 c -2.464965,-0.82425 -12.471577,-5.95022 -14.795342,-7.57853 -0.441128,-0.30922 -1.302706,-0.86442 -1.914468,-1.23496 -0.611797,-0.36935 -1.213585,-0.81143 -1.33694,-0.98208 -0.123591,-0.17089 -0.585877,-0.56923 -1.026751,-0.88486 -0.44114,-0.3166 -1.260881,-0.95902 -1.822497,-1.42797 -0.560934,-0.46893 -1.242353,-0.96638 -1.515191,-1.10471 -0.937865,-0.47725 -1.74739,-1.15131 -3.447269,-2.8716 -0.9388,-0.94903 -2.101029,-2.02689 -2.584719,-2.39458 -1.119701,-0.85041 -3.419427,-3.21315 -3.559669,-3.65689 -0.05941,-0.18587 -0.224582,-0.33797 -0.367692,-0.33797 -0.141898,0 -0.330338,-0.18016 -0.416889,-0.4012 -0.08722,-0.22079 -0.578264,-0.7223 -1.091612,-1.114 -1.504977,-1.14939 -4.002477,-3.88456 -4.913252,-5.38215 -0.208917,-0.3425 -0.679752,-0.91363 -1.046487,-1.27015 -0.676663,-0.65812 -1.724815,-2.07015 -2.649611,-3.57346 -0.279507,-0.45395 -0.768644,-1.1475 -1.088081,-1.53919 -0.319436,-0.39192 -0.640536,-0.90531 -0.714928,-1.14012 -0.07416,-0.23482 -0.432571,-0.75677 -0.79669,-1.15868 -0.362931,-0.40214 -0.768644,-1.01202 -0.900554,-1.35548 -0.345343,-0.89792 -1.077861,-2.13906 -1.262535,-2.13906 -0.08723,0 -0.21177,-0.22104 -0.276654,-0.49033 -0.153301,-0.63673 -0.89794,-2.12506 -1.13728,-2.2736 -0.102201,-0.0632 -0.422588,-0.61013 -0.7120779,-1.21524 -0.7028063,-1.4698 -1.6397248,-3.14374 -2.4029022,-4.2922 -0.3434414,-0.51717 -0.8558713,-1.50211 -1.1391808,-2.18924 -0.2830709,-0.68616 -0.6322168,-1.52158 -0.7769637,-1.85599 -0.267384,-0.61916 -0.6008437,-1.82321 -0.85896,-3.10262 -0.078907,-0.39194 -0.3172971,-1.11424 -0.5309673,-1.60433 -0.214384,-0.49033 -0.5468915,-1.45315 -0.7398874,-2.13812 -0.1922759,-0.68619 -0.5395245,-1.60906 -0.7695911,-2.04997 -0.2759434,-0.52833 -0.4577654,-1.26086 -0.5321579,-2.14003 -0.1076673,-1.27013 -0.2747534,-2.02856 -0.6702461,-3.03036 -0.3146829,-0.79574 -0.92741158,-7.29926 -0.7436879,-7.88799 0.18657551,-0.5968 0.7520066,-0.33228 1.4902279,0.69734 0.3971558,0.55521 0.7222955,1.11779 0.7222955,1.24969 0,0.13168 0.1604346,0.3779 0.3565143,0.54596 0.1958475,0.16708 0.3565152,0.36934 0.3565152,0.4492 0,0.1552 2.5390918,3.94399 2.9764145,4.44073 0.1440328,0.16424 0.4948426,0.7658 0.7807662,1.33694 0.2849739,0.57185 0.8801139,1.54679 1.3221904,2.16499 0.4418404,0.61938 0.8031077,1.23946 0.8031077,1.37781 0,0.13832 0.1856247,0.37313 0.4121295,0.52168 0.2265051,0.14855 0.6006081,0.61203 0.8328171,1.02867 0.539287,0.97495 1.623801,2.54671 2.306169,3.34434 l 0.53382,0.6239 -0.278555,-0.89129 c -0.395493,-1.26371 -0.579218,-2.12339 -0.782668,-3.65427 -0.09745,-0.73535 -0.410227,-2.3796 -0.695439,-3.65425 -0.285925,-1.2749 -0.602509,-2.91891 -0.705422,-3.65427 -0.236725,-1.70011 -0.555212,-6.4377 -0.554261,-8.25662 9.88e-4,-0.7658 -0.07724,-1.53826 -0.171839,-1.71651 -0.09555,-0.177311 -0.207966,-1.155107 -0.251699,-2.171649 -0.06869,-1.64708 -0.03517,-1.926364 0.309216,-2.561426 0.370536,-0.681419 0.427104,-0.713981 1.276557,-0.723241 0.976849,-0.01235 2.453054,0.428769 2.885623,0.860616 0.202502,0.203216 0.316586,0.899604 0.429005,2.621814 0.08438,1.290566 0.190141,2.405506 0.235775,2.478946 0.163284,0.26453 0.495793,3.19009 0.630317,5.54641 0.174692,3.05628 0.750104,6.50899 1.248748,7.49416 0.07701,0.15044 0.194895,0.71208 0.263584,1.24779 0.157817,1.23949 0.749392,3.41281 1.20882,4.44907 0.196082,0.44087 0.471786,1.08238 0.612015,1.42604 0.139991,0.34345 0.33132,0.76317 0.424252,0.93312 0.09364,0.17065 0.169937,0.4687 0.169937,0.6636 0,0.19419 0.240291,1.01297 0.534772,1.81892 0.294243,0.80573 0.534769,1.56439 0.534769,1.68609 0,0.1205 0.280221,0.82615 0.622949,1.56794 0.342492,0.74179 0.704711,1.71484 0.804772,2.16333 0.230307,1.02771 1.107808,2.78603 2.752068,5.51669 0.708248,1.17626 1.713607,2.94124 2.234603,3.92166 0.519817,0.98042 1.194814,2.07586 1.499281,2.43427 0.304707,0.35842 1.035301,1.35357 1.623095,2.21159 1.437937,2.09819 3.050794,4.30215 3.725551,5.09409 0.303749,0.35651 0.953543,1.15321 1.443877,1.76879 0.490094,0.61629 1.292253,1.53824 1.78257,2.04901 0.490087,0.51052 2.161186,2.25507 3.713688,3.87697 3.067446,3.20577 5.649302,5.41187 9.544123,8.15441 0.355561,0.25075 1.000851,0.79194 1.433409,1.20312 0.432582,0.41142 0.924787,0.74844 1.092848,0.74844 0.167077,0 0.404761,0.12074 0.526451,0.26738 0.1224,0.14665 0.318247,0.26738 0.43637,0.26738 0.117896,0 0.402845,0.20061 0.633146,0.44566 0.230078,0.24504 0.55522,0.44564 0.722332,0.44564 0.167058,0 0.403784,0.12074 0.525498,0.26738 0.122381,0.14666 0.362929,0.26739 0.534768,0.26739 0.171582,0 0.413079,0.12074 0.534748,0.26739 0.12242,0.14664 0.340596,0.26738 0.486308,0.26738 0.145914,0 0.422591,0.2006 0.614625,0.44563 0.200608,0.25337 0.534783,0.44565 0.778151,0.44565 0.438993,0 1.788969,0.62486 1.964399,0.90983 0.05489,0.0882 0.314903,0.16162 0.578507,0.16422 0.264512,0.003 0.761255,0.23768 1.104004,0.52266 0.572773,0.47464 0.621036,0.58967 0.587511,1.39469 -0.04919,1.19099 -0.741787,6.05502 -0.96092,6.74951 -0.291395,0.92385 -0.869897,0.97305 -3.013473,0.25526 z"
           id="path1508" /><path
           style="fill:none;fill-opacity:1;fill-rule:nonzero;stroke:#000000;stroke-width:0.28346458;stroke-opacity:1;stroke-miterlimit:4;stroke-dasharray:none"
           d="m 94.355915,216.8381 c 0.639813,-0.16709 0.28046,-0.36768 -0.660028,-0.36768 -0.780764,0 -1.129919,-0.10482 -1.774251,-0.53096 -1.861487,-1.23307 -3.136145,-2.7416 -3.136145,-3.70989 0,-0.35105 -0.105989,-0.61939 -0.269278,-0.68166 -0.389081,-0.1495 -1.104,0.16804 -1.330517,0.59158 -0.175395,0.32775 -0.364811,0.36483 -1.855052,0.36483 -1.357369,0 -1.709127,-0.0568 -1.932774,-0.31207 -0.305663,-0.3482 -1.436274,-2.53077 -2.262688,-4.36729 -0.53666,-1.19196 -0.548794,-1.20311 -1.24779,-1.20311 -0.389076,0 -0.754865,-0.078 -0.81428,-0.17375 -0.05848,-0.0956 -0.427821,-0.25978 -0.819742,-0.36484 -0.445656,-0.12073 -0.778872,-0.33987 -0.887484,-0.58491 -0.09483,-0.21534 -0.372441,-0.74559 -0.615573,-1.17721 -0.269307,-0.47725 -0.443744,-1.07239 -0.445646,-1.51518 -0.003,-0.79289 -0.348196,-1.95441 -0.680465,-2.28669 -0.11434,-0.11408 -0.207962,-0.41687 -0.207962,-0.6731 0,-0.25525 -0.118128,-0.62009 -0.261938,-0.81047 -0.143781,-0.19037 -0.263569,-0.50886 -0.267372,-0.70756 -0.003,-0.1987 -0.111471,-0.5198 -0.240529,-0.71303 -0.287828,-0.43066 -0.831872,-1.87169 -0.842085,-2.22917 -0.0035,-0.14378 -0.233877,-0.73606 -0.510528,-1.31553 l -0.504113,-1.05361 -1.31649,-0.0447 c -0.723246,-0.0243 -1.787325,-0.11146 -2.364636,-0.19393 -0.953556,-0.13573 -1.080713,-0.20702 -1.387077,-0.77341 -0.451341,-0.83471 -0.384557,-2.02024 0.118839,-2.11128 0.966393,-0.17278 1.553217,-1.61738 0.882728,-2.17449 -0.186572,-0.15497 -0.258832,-0.46513 -0.2227,-0.95712 l 0.053,-0.72872 0.750108,0.015 c 0.503169,0.0104 0.974008,0.17089 1.435325,0.49033 1.108524,0.76863 1.338839,0.69069 3.22264,-1.08547 0.759384,-0.71659 1.236643,-1.00537 2.025725,-1.2264 0.568268,-0.15973 1.213326,-0.4466 1.434356,-0.63864 0.22106,-0.19228 0.520999,-0.41594 0.666686,-0.49769 0.187535,-0.10483 0.296151,-0.58777 0.369365,-1.63307 0.08913,-1.27394 0.182057,-1.59885 0.655504,-2.28669 0.656452,-0.95546 1.30722,-1.58031 2.274798,-2.18567 0.726812,-0.45396 1.636629,-1.32766 1.501155,-1.44078 -0.108616,-0.091 -2.512235,-0.50411 -2.897507,-0.49865 -0.662157,0.0104 -1.188371,-0.31374 -1.185754,-0.72777 0.004,-0.48272 0.168036,-0.76126 0.532156,-0.89959 0.214382,-0.0818 0.207013,-0.10505 -0.04089,-0.11623 -0.337005,-0.015 -0.558045,-0.62651 -0.464167,-1.28868 0.05751,-0.40381 0.121452,-0.42044 1.841978,-0.46323 2.077776,-0.0511 2.584728,-0.14188 2.584728,-0.46419 0,-0.12904 0.265495,-0.58847 0.588494,-1.02224 0.682366,-0.91077 1.015825,-1.7954 1.015825,-2.69334 0,-0.3489 0.120504,-0.73441 0.267387,-0.85587 0.147598,-0.12169 0.267391,-0.35841 0.267391,-0.52551 0,-0.35294 0.449197,-0.79003 1.693431,-1.64708 1.019387,-0.70186 2.001465,-1.21429 2.328277,-1.21429 0.12359,0 0.612965,-0.30637 1.087365,-0.68142 0.723236,-0.57113 4.225165,-2.34895 4.627072,-2.34895 0.228409,0 3.714642,-2.19113 4.346153,-2.73137 0.99134,-0.84874 1.2459,-1.3462 1.2459,-2.43808 0,-0.53953 -0.11979,-1.21072 -0.26643,-1.49118 -0.15522,-0.29804 -0.26645,-0.98588 -0.26645,-1.65256 0,-1.38613 0.60512,-2.56048 1.31816,-2.56048 0.46251,0 0.99918,-0.65646 0.99918,-1.22 0,-0.49769 -0.45492,-1.50496 -0.83187,-1.84388 -0.18016,-0.16066 -0.64719,-0.34915 -1.03983,-0.41689 -0.39192,-0.0687 -0.890326,-0.23577 -1.107805,-0.3722 -0.217246,-0.1357 -0.66835,-0.24694 -1.002525,-0.24694 -0.53215,0 -0.608209,-0.0568 -0.608209,-0.45134 0,-0.8402 0.28972,-0.87728 7.343949,-0.94501 5.47938,-0.053 6.76711,-0.0178 7.66505,0.20987 0.59324,0.14927 1.68037,0.40929 2.41574,0.57636 1.10092,0.25075 1.47883,0.43448 2.13908,1.04174 0.44089,0.40476 1.46028,1.19861 2.26435,1.76308 1.75475,1.23211 2.55405,2.12791 3.28468,3.68113 0.30185,0.64076 0.63506,1.27108 0.74084,1.4011 0.21462,0.26167 0.90528,1.8755 1.27394,2.97284 0.34343,1.02225 0.78552,3.9699 0.92193,6.15438 l 0.11789,1.8755 -0.68331,1.30533 c -0.47347,0.90339 -0.98328,1.56057 -1.65733,2.13456 -0.53571,0.45657 -1.34809,1.27916 -1.80489,1.82796 -0.89297,1.0705 -3.2103,3.1649 -3.92999,3.55207 -0.43161,0.23221 -0.66098,0.29163 -2.71733,0.7009 -2.33137,0.46537 -2.29145,-0.17161 0.16137,-2.53458 2.14574,-2.06754 3.72486,-4.26033 3.44463,-4.78392 -0.2619,-0.48938 -0.83852,-0.58684 -1.38064,-0.23222 -0.26455,0.1728 -1.02678,0.84114 -1.69345,1.48547 -2.46138,2.37867 -5.6113,4.70812 -7.02166,5.1918 -0.56995,0.1949 -1.17721,0.53382 -1.35,0.752 -0.62938,0.79479 -1.02296,1.94324 -1.02296,2.98212 0,1.16795 -0.19608,1.42606 -1.20715,1.5903 -0.57637,0.0939 -0.71207,0.22199 -1.14655,1.0845 -0.49104,0.97473 -0.6712,2.3656 -0.33417,2.57452 0.091,0.0556 0.21533,0.33322 0.2776,0.61629 0.11243,0.51172 0.12074,0.51433 1.16794,0.41974 1.03341,-0.0939 1.05837,-0.0853 1.25161,0.41877 0.20226,0.52646 0.1792,0.60893 -0.6491,2.26719 -0.31088,0.62391 -0.32394,1.18007 -0.0288,1.25897 1.28131,0.3406 1.26634,0.32491 1.51067,1.53563 0.1735,0.86325 0.36388,1.27917 0.7482,1.64044 0.44279,0.41594 0.54594,0.44754 0.73252,0.2227 0.11884,-0.14379 0.39739,-0.26073 0.61843,-0.26073 0.2208,0 0.49746,-0.11526 0.61464,-0.25621 0.27284,-0.32871 0.85967,-0.27119 1.47976,0.1457 1.00728,0.67761 0.48938,2.16594 -0.98231,2.82525 -0.41213,0.18467 -0.88938,0.46228 -1.06194,0.6182 -0.4523,0.4095 -6.2706,0.38431 -6.72741,-0.0287 -0.16614,-0.15045 -0.43187,-0.27381 -0.59063,-0.27381 -0.15781,0 -0.33417,-0.0753 -0.39074,-0.16803 -0.0566,-0.092 -0.48272,-0.22199 -0.94619,-0.28687 -0.67761,-0.0958 -1.009176,-0.28046 -1.689636,-0.93953 -0.46512,-0.45136 -0.84661,-0.92029 -0.84661,-1.04174 0,-0.12074 -0.361255,-0.46894 -0.802154,-0.77245 -0.441122,-0.30375 -0.80214,-0.64148 -0.80214,-0.75106 0,-0.32609 -0.59159,-1.56628 -0.747496,-1.56628 -0.07892,0 -0.145707,-0.18016 -0.147603,-0.4012 -0.002,-0.2208 -0.153303,-0.59513 -0.335114,-0.83186 l -0.330614,-0.43068 -0.613686,0.60893 c -1.098286,1.09189 -1.390633,1.75666 -1.390633,3.15943 0,0.69354 -0.07986,1.31102 -0.178255,1.3714 -0.09769,0.0604 -0.178259,0.76958 -0.178259,1.57554 0,1.0491 -0.07985,1.57912 -0.282361,1.86789 -0.331316,0.47251 -0.26834,2.01573 0.127161,3.12687 0.262873,0.74083 2.697142,3.19746 3.643087,3.67757 0.287829,0.14568 0.804071,0.48081 1.146781,0.74558 0.888447,0.68593 2.364646,1.21714 3.379282,1.21714 0.81904,0 0.91553,-0.0511 1.59695,-0.84684 0.84399,-0.98493 0.88392,-1.30342 0.28687,-2.27266 -0.49936,-0.81142 -0.57827,-1.72124 -0.17825,-2.05376 0.376,-0.31183 2.58663,-0.091 3.43892,0.3444 0.88939,0.45492 1.63689,1.17554 1.63689,1.57746 0,0.18205 0.11788,0.48651 0.26168,0.6769 0.14403,0.19013 0.26453,0.48082 0.26738,0.64529 0.003,0.16517 0.27571,0.58563 0.60631,0.93572 0.49389,0.52455 0.7261,0.63697 1.31459,0.63697 0.41403,0 0.80691,0.11123 0.93407,0.2636 0.75842,0.91456 2.34895,1.051 3.44985,0.29709 0.40762,-0.27952 0.94715,-0.63222 1.1979,-0.78363 0.32846,-0.1987 0.54024,-0.5766 0.75653,-1.35641 0.19037,-0.68522 0.4309,-1.15035 0.65645,-1.27085 0.47986,-0.25716 0.93857,-1.18576 0.80025,-1.62023 -0.0613,-0.193 -0.32585,-0.49009 -0.58778,-0.65908 -0.80856,-0.52099 -1.08903,-0.97495 -1.09449,-1.77425 -0.006,-0.65932 0.0501,-0.76889 0.44019,-0.86728 0.60061,-0.15022 1.60501,0.053 1.8762,0.3798 0.2952,0.35652 0.70757,0.0188 0.70757,-0.57922 0,-0.24527 0.27666,-0.76317 0.62556,-1.17079 0.54237,-0.63412 0.61106,-0.81522 0.51361,-1.36569 -0.0623,-0.34915 -0.30375,-0.83946 -0.53666,-1.08998 -0.4523,-0.48557 -0.54691,-1.04364 -0.23126,-1.36021 0.246,-0.24505 -0.14214,-1.03246 -0.8169,-1.65993 -0.68521,-0.63697 -0.98708,-1.27941 -0.7772,-1.65446 0.26098,-0.46703 0.52741,-0.37696 1.40111,0.4782 0.88556,0.86609 1.07879,1.20312 2.10175,3.67186 0.70947,1.71387 1.10948,3.96705 0.74275,4.19355 -0.0936,0.0575 -0.17066,0.49223 -0.17066,0.96474 0,0.506 -0.0994,0.94142 -0.24147,1.05931 -0.15781,0.13095 -0.28593,0.83923 -0.3677,2.0276 -0.0687,1.00467 -0.20059,1.90237 -0.29232,1.9953 -0.093,0.0936 -0.16805,0.54951 -0.16805,1.01463 0,0.46514 -0.0687,0.88773 -0.15139,0.93859 -0.0846,0.0521 -0.2006,0.66312 -0.25811,1.35927 -0.16069,1.91353 -0.50602,2.45662 -1.9442,3.05912 -1.10663,0.46348 -1.86599,0.8932 -2.994,1.69725 -0.61296,0.43637 -3.41113,1.83367 -3.67305,1.83367 -0.11693,0 -0.64243,0.2265 -1.16794,0.50317 -0.52621,0.27569 -1.11588,0.55425 -1.31078,0.61819 -0.19513,0.0642 -0.4744,0.19228 -0.622,0.28616 -0.82449,0.52621 -7.19348,0.65716 -11.701022,0.24124 -1.364743,-0.12526 -1.504963,-0.17921 -2.349904,-0.89129 -0.49293,-0.41688 -0.969237,-0.75747 -1.057416,-0.75747 -0.08723,0 -0.353664,0.20702 -0.591338,0.45942 -0.524539,0.55808 -0.487463,1.17816 0.118835,1.97937 0.235782,0.31207 0.429012,0.63888 0.429012,0.72705 0,0.0872 0.185618,0.33323 0.413078,0.54689 0.356519,0.33513 0.616537,0.38718 1.939428,0.38718 1.433443,0 1.533717,0.0249 1.634974,0.40096 0.140245,0.52099 -0.33416,1.16152 -1.229259,1.66278 -0.38146,0.21367 -0.723246,0.47821 -0.760322,0.58777 -0.03709,0.11052 -0.401201,0.19134 -0.809534,0.18016 -0.408545,-0.0123 -0.602732,-0.0575 -0.430893,-0.1022 z"
           id="path834" /></g></g></g></svg>
