<?xml version="1.0" encoding="UTF-8" standalone="no"?>
<svg
   xmlns:dc="http://purl.org/dc/elements/1.1/"
   xmlns:cc="http://creativecommons.org/ns#"
   xmlns:rdf="http://www.w3.org/1999/02/22-rdf-syntax-ns#"
   xmlns:svg="http://www.w3.org/2000/svg"
   xmlns="http://www.w3.org/2000/svg"
   xmlns:sodipodi="http://sodipodi.sourceforge.net/DTD/sodipodi-0.dtd"
   xmlns:inkscape="http://www.inkscape.org/namespaces/inkscape"
   width="70.925407mm"
   height="109.60541mm"
   viewBox="0 0 70.925404 109.6054"
   version="1.1"
   id="svg576"
   sodipodi:docname="servo.svg"
   inkscape:version="1.0.2 (e86c870879, 2021-01-15, custom)">
  <metadata
     id="metadata582">
    <rdf:RDF>
      <cc:Work
         rdf:about="">
        <dc:format>image/svg+xml</dc:format>
        <dc:type
           rdf:resource="http://purl.org/dc/dcmitype/StillImage" />
      </cc:Work>
    </rdf:RDF>
  </metadata>
  <defs
     id="defs580" />
  <sodipodi:namedview
     pagecolor="#ffffff"
     bordercolor="#666666"
     borderopacity="1"
     objecttolerance="10"
     gridtolerance="10"
     guidetolerance="10"
     inkscape:pageopacity="0"
     inkscape:pageshadow="2"
     inkscape:window-width="2560"
     inkscape:window-height="1377"
     id="namedview578"
     showgrid="false"
     inkscape:zoom="2.3923573"
     inkscape:cx="271.60707"
     inkscape:cy="417.7992"
     inkscape:window-x="-8"
     inkscape:window-y="472"
     inkscape:window-maximized="1"
     inkscape:current-layer="svg576" />
  <line
     x1="30.9627"
     y1="22.9027"
     x2="24.7707"
     y2="22.9027"
     fill="none"
     stroke="#0000ff"
     stroke-width="0.0254"
     id="line2" />
  <path
     d="m 24.770701,22.902701 a 1.05,1.05 0 0 1 -0.968,-0.643"
     fill="none"
     stroke="#0000ff"
     stroke-width="0.0254"
     id="path4" />
  <line
     x1="23.8027"
     y1="22.259701"
     x2="21.3937"
     y2="16.529701"
     fill="none"
     stroke="#0000ff"
     stroke-width="0.0254"
     id="line6" />
  <path
     d="m 21.393701,16.529701 a 0.95015788,0.95015788 0 0 0 -1.752,0.736"
     fill="none"
     stroke="#0000ff"
     stroke-width="0.0254"
     id="path8" />
  <line
     x1="19.641701"
     y1="17.265701"
     x2="21.1677"
     y2="20.895699"
     fill="none"
     stroke="#0000ff"
     stroke-width="0.0254"
     id="line10" />
  <path
     d="m 21.167701,20.895701 a 5.05,5.05 0 0 1 0.235,0.695"
     fill="none"
     stroke="#0000ff"
     stroke-width="0.0254"
     id="path12" />
  <path
     d="m 21.402701,21.590701 a 1.05,1.05 0 0 1 -1.017,1.312"
     fill="none"
     stroke="#0000ff"
     stroke-width="0.0254"
     id="path14" />
  <line
     x1="20.3857"
     y1="22.9027"
     x2="12.639701"
     y2="22.9027"
     fill="none"
     stroke="#0000ff"
     stroke-width="0.0254"
     id="line16" />
  <path
     d="m 12.639701,22.902701 a 1.05,1.05 0 0 1 -1.017,-1.312"
     fill="none"
     stroke="#0000ff"
     stroke-width="0.0254"
     id="path18" />
  <path
     d="m 11.622701,21.590701 a 5.05,5.05 0 0 1 0.235,-0.695"
     fill="none"
     stroke="#0000ff"
     stroke-width="0.0254"
     id="path20" />
  <line
     x1="11.857701"
     y1="20.895699"
     x2="13.3837"
     y2="17.265701"
     fill="none"
     stroke="#0000ff"
     stroke-width="0.0254"
     id="line22" />
  <path
     d="m 13.383701,17.265701 a 0.95015788,0.95015788 0 0 0 -1.752,-0.736"
     fill="none"
     stroke="#0000ff"
     stroke-width="0.0254"
     id="path24" />
  <line
     x1="11.631701"
     y1="16.529701"
     x2="9.2227011"
     y2="22.259701"
     fill="none"
     stroke="#0000ff"
     stroke-width="0.0254"
     id="line26" />
  <path
     d="m 9.2227008,22.259701 a 1.05,1.05 0 0 1 -0.968,0.643"
     fill="none"
     stroke="#0000ff"
     stroke-width="0.0254"
     id="path28" />
  <line
     x1="8.2547007"
     y1="22.9027"
     x2="0.062699236"
     y2="22.9027"
     fill="none"
     stroke="#0000ff"
     stroke-width="0.0254"
     id="line30" />
  <path
     d="m 0.06270076,22.902701 a 0.05,0.05 0 0 1 -0.05,-0.05"
     fill="none"
     stroke="#0000ff"
     stroke-width="0.0254"
     id="path32" />
  <line
     x1="0.0127"
     y1="22.852699"
     x2="0.0127"
     y2="20.547699"
     fill="none"
     stroke="#0000ff"
     stroke-width="0.0254"
     id="line34" />
  <path
     d="m 0.01270076,20.547701 a 0.05,0.05 0 0 1 0.05,-0.05"
     fill="none"
     stroke="#0000ff"
     stroke-width="0.0254"
     id="path36" />
  <line
     x1="0.062699236"
     y1="20.4977"
     x2="2.9127016"
     y2="20.4977"
     fill="none"
     stroke="#0000ff"
     stroke-width="0.0254"
     id="line38" />
  <line
     x1="2.9127016"
     y1="20.4977"
     x2="2.9127016"
     y2="15.597699"
     fill="none"
     stroke="#0000ff"
     stroke-width="0.0254"
     id="line40" />
  <line
     x1="2.9127016"
     y1="15.597699"
     x2="0.062699236"
     y2="15.597699"
     fill="none"
     stroke="#0000ff"
     stroke-width="0.0254"
     id="line42" />
  <path
     d="m 0.06270076,15.597701 a 0.05,0.05 0 0 1 -0.05,-0.05"
     fill="none"
     stroke="#0000ff"
     stroke-width="0.0254"
     id="path44" />
  <line
     x1="0.0127"
     y1="15.5477"
     x2="0.0127"
     y2="8.2487001"
     fill="none"
     stroke="#0000ff"
     stroke-width="0.0254"
     id="line46" />
  <path
     d="m 0.01270076,8.2487009 a 0.05,0.05 0 0 1 0.05,-0.05"
     fill="none"
     stroke="#0000ff"
     stroke-width="0.0254"
     id="path48" />
  <line
     x1="0.062699236"
     y1="8.1987009"
     x2="2.9127016"
     y2="8.1987009"
     fill="none"
     stroke="#0000ff"
     stroke-width="0.0254"
     id="line50" />
  <line
     x1="2.9127016"
     y1="8.1987009"
     x2="2.9127016"
     y2="3.2986994"
     fill="none"
     stroke="#0000ff"
     stroke-width="0.0254"
     id="line52" />
  <line
     x1="2.9127016"
     y1="3.2986994"
     x2="0.062699236"
     y2="3.2986994"
     fill="none"
     stroke="#0000ff"
     stroke-width="0.0254"
     id="line54" />
  <path
     d="m 0.06270076,3.2987009 a 0.05,0.05 0 0 1 -0.05,-0.05"
     fill="none"
     stroke="#0000ff"
     stroke-width="0.0254"
     id="path56" />
  <line
     x1="0.0127"
     y1="3.2487001"
     x2="0.0127"
     y2="0.94270033"
     fill="none"
     stroke="#0000ff"
     stroke-width="0.0254"
     id="line58" />
  <path
     d="m 0.01270076,0.94270092 a 0.05,0.05 0 0 1 0.05,-0.05"
     fill="none"
     stroke="#0000ff"
     stroke-width="0.0254"
     id="path60" />
  <line
     x1="0.062699236"
     y1="0.89270109"
     x2="8.2547007"
     y2="0.89270109"
     fill="none"
     stroke="#0000ff"
     stroke-width="0.0254"
     id="line62" />
  <path
     d="m 8.2547008,0.89270092 a 1.05,1.05 0 0 1 0.968,0.64299998"
     fill="none"
     stroke="#0000ff"
     stroke-width="0.0254"
     id="path64" />
  <line
     x1="9.2227011"
     y1="1.5357026"
     x2="11.631701"
     y2="7.2657022"
     fill="none"
     stroke="#0000ff"
     stroke-width="0.0254"
     id="line66" />
  <path
     d="m 11.631701,7.2657009 a 0.95,0.95 0 0 0 1.244,0.508"
     fill="none"
     stroke="#0000ff"
     stroke-width="0.0254"
     id="path68" />
  <path
     d="m 12.875701,7.7737009 a 0.95,0.95 0 0 0 0.508,-1.244"
     fill="none"
     stroke="#0000ff"
     stroke-width="0.0254"
     id="path70" />
  <line
     x1="13.3837"
     y1="6.5297022"
     x2="11.857701"
     y2="2.8997011"
     fill="none"
     stroke="#0000ff"
     stroke-width="0.0254"
     id="line72" />
  <path
     d="m 11.857701,2.8997009 a 5.05,5.05 0 0 1 -0.235,-0.694"
     fill="none"
     stroke="#0000ff"
     stroke-width="0.0254"
     id="path74" />
  <path
     d="m 11.622701,2.2057009 a 1.05,1.05 0 0 1 1.017,-1.31299998"
     fill="none"
     stroke="#0000ff"
     stroke-width="0.0254"
     id="path76" />
  <line
     x1="12.639701"
     y1="0.89270109"
     x2="20.3857"
     y2="0.89270109"
     fill="none"
     stroke="#0000ff"
     stroke-width="0.0254"
     id="line78" />
  <path
     d="m 20.385701,0.89270092 a 1.05,1.05 0 0 1 1.017,1.31299998"
     fill="none"
     stroke="#0000ff"
     stroke-width="0.0254"
     id="path80" />
  <path
     d="m 21.402701,2.2057009 a 5.05,5.05 0 0 1 -0.235,0.694"
     fill="none"
     stroke="#0000ff"
     stroke-width="0.0254"
     id="path82" />
  <line
     x1="21.1677"
     y1="2.8997011"
     x2="19.641701"
     y2="6.5297022"
     fill="none"
     stroke="#0000ff"
     stroke-width="0.0254"
     id="line84" />
  <path
     d="m 19.641701,6.5297009 a 0.95,0.95 0 0 0 0.508,1.244"
     fill="none"
     stroke="#0000ff"
     stroke-width="0.0254"
     id="path86" />
  <path
     d="m 20.149701,7.7737009 a 0.95,0.95 0 0 0 1.244,-0.508"
     fill="none"
     stroke="#0000ff"
     stroke-width="0.0254"
     id="path88" />
  <line
     x1="21.3937"
     y1="7.2657022"
     x2="23.8027"
     y2="1.5357026"
     fill="none"
     stroke="#0000ff"
     stroke-width="0.0254"
     id="line90" />
  <path
     d="m 23.802701,1.5357009 a 1.05,1.05 0 0 1 0.968,-0.64299998"
     fill="none"
     stroke="#0000ff"
     stroke-width="0.0254"
     id="path92" />
  <line
     x1="24.7707"
     y1="0.89270109"
     x2="32.9627"
     y2="0.89270109"
     fill="none"
     stroke="#0000ff"
     stroke-width="0.0254"
     id="line94" />
  <path
     d="m 32.962701,0.89270092 a 0.05,0.05 0 0 1 0.05,0.05"
     fill="none"
     stroke="#0000ff"
     stroke-width="0.0254"
     id="path96" />
  <line
     x1="33.012699"
     y1="0.94270033"
     x2="33.012699"
     y2="3.2487001"
     fill="none"
     stroke="#0000ff"
     stroke-width="0.0254"
     id="line98" />
  <path
     d="m 33.012701,3.2487009 a 0.05,0.05 0 0 1 -0.05,0.05"
     fill="none"
     stroke="#0000ff"
     stroke-width="0.0254"
     id="path100" />
  <line
     x1="32.9627"
     y1="3.2986994"
     x2="30.112701"
     y2="3.2986994"
     fill="none"
     stroke="#0000ff"
     stroke-width="0.0254"
     id="line102" />
  <line
     x1="30.112701"
     y1="3.2986994"
     x2="30.112701"
     y2="8.1987009"
     fill="none"
     stroke="#0000ff"
     stroke-width="0.0254"
     id="line104" />
  <line
     x1="30.112701"
     y1="8.1987009"
     x2="32.9627"
     y2="8.1987009"
     fill="none"
     stroke="#0000ff"
     stroke-width="0.0254"
     id="line106" />
  <path
     d="m 32.962701,8.1987009 a 0.05,0.05 0 0 1 0.05,0.05"
     fill="none"
     stroke="#0000ff"
     stroke-width="0.0254"
     id="path108" />
  <line
     x1="33.012699"
     y1="8.2487001"
     x2="33.012699"
     y2="15.5477"
     fill="none"
     stroke="#0000ff"
     stroke-width="0.0254"
     id="line110" />
  <path
     d="m 33.012701,15.547701 a 0.05,0.05 0 0 1 -0.05,0.05"
     fill="none"
     stroke="#0000ff"
     stroke-width="0.0254"
     id="path112" />
  <line
     x1="32.9627"
     y1="15.597699"
     x2="30.112701"
     y2="15.597699"
     fill="none"
     stroke="#0000ff"
     stroke-width="0.0254"
     id="line114" />
  <line
     x1="30.112701"
     y1="15.597699"
     x2="30.112701"
     y2="20.4977"
     fill="none"
     stroke="#0000ff"
     stroke-width="0.0254"
     id="line116" />
  <line
     x1="30.112701"
     y1="20.4977"
     x2="32.9627"
     y2="20.4977"
     fill="none"
     stroke="#0000ff"
     stroke-width="0.0254"
     id="line118" />
  <path
     d="m 32.962701,20.497701 a 0.05,0.05 0 0 1 0.05,0.05"
     fill="none"
     stroke="#0000ff"
     stroke-width="0.0254"
     id="path120" />
  <line
     x1="33.012699"
     y1="20.547699"
     x2="33.012699"
     y2="22.852699"
     fill="none"
     stroke="#0000ff"
     stroke-width="0.0254"
     id="line122" />
  <path
     d="m 33.012701,22.852701 a 0.05,0.05 0 0 1 -0.05,0.05"
     fill="none"
     stroke="#0000ff"
     stroke-width="0.0254"
     id="path124" />
  <line
     x1="32.9627"
     y1="22.9027"
     x2="30.9627"
     y2="22.9027"
     fill="none"
     stroke="#0000ff"
     stroke-width="0.0254"
     id="line126" />
  <path
     d="m 30.049701,32.134701 a 1.4501625,1.4501625 0 0 0 1.846,2.237"
     fill="none"
     stroke="#0000ff"
     stroke-width="0.0254"
     id="path128" />
  <path
     d="m 31.895701,34.371701 a 1.4501625,1.4501625 0 0 0 -1.846,-2.237"
     fill="none"
     stroke="#0000ff"
     stroke-width="0.0254"
     id="path130" />
  <path
     d="m 15.467701,33.252701 a 1.45,1.45 0 0 0 -2.9,0"
     fill="none"
     stroke="#0000ff"
     stroke-width="0.0254"
     id="path132" />
  <path
     d="m 12.567701,33.252701 a 1.45,1.45 0 0 0 2.9,0"
     fill="none"
     stroke="#0000ff"
     stroke-width="0.0254"
     id="path134" />
  <line
     x1="28.3647"
     y1="23.8027"
     x2="36.507702"
     y2="23.8027"
     fill="none"
     stroke="#0000ff"
     stroke-width="0.0254"
     id="line136" />
  <path
     d="m 36.507701,23.802701 a 0.05,0.05 0 0 1 0.05,0.05"
     fill="none"
     stroke="#0000ff"
     stroke-width="0.0254"
     id="path138" />
  <line
     x1="36.557701"
     y1="23.852699"
     x2="36.557701"
     y2="26.7027"
     fill="none"
     stroke="#0000ff"
     stroke-width="0.0254"
     id="line140" />
  <line
     x1="36.557701"
     y1="26.7027"
     x2="41.457699"
     y2="26.7027"
     fill="none"
     stroke="#0000ff"
     stroke-width="0.0254"
     id="line142" />
  <line
     x1="41.457699"
     y1="26.7027"
     x2="41.457699"
     y2="23.852699"
     fill="none"
     stroke="#0000ff"
     stroke-width="0.0254"
     id="line144" />
  <path
     d="m 41.457701,23.852701 a 0.05,0.05 0 0 1 0.05,-0.05"
     fill="none"
     stroke="#0000ff"
     stroke-width="0.0254"
     id="path146" />
  <line
     x1="41.507702"
     y1="23.8027"
     x2="47.952702"
     y2="23.8027"
     fill="none"
     stroke="#0000ff"
     stroke-width="0.0254"
     id="line148" />
  <path
     d="m 47.952701,23.802701 a 0.05,0.05 0 0 1 0.05,0.05"
     fill="none"
     stroke="#0000ff"
     stroke-width="0.0254"
     id="path150" />
  <line
     x1="48.002701"
     y1="23.852699"
     x2="48.002701"
     y2="36.752701"
     fill="none"
     stroke="#0000ff"
     stroke-width="0.0254"
     id="line152" />
  <path
     d="m 48.002701,36.752701 a 0.05,0.05 0 0 1 -0.05,0.05"
     fill="none"
     stroke="#0000ff"
     stroke-width="0.0254"
     id="path154" />
  <line
     x1="47.952702"
     y1="36.8027"
     x2="0.062699236"
     y2="36.8027"
     fill="none"
     stroke="#0000ff"
     stroke-width="0.0254"
     id="line156" />
  <path
     d="m 0.06270076,36.802701 a 0.05,0.05 0 0 1 -0.05,-0.05"
     fill="none"
     stroke="#0000ff"
     stroke-width="0.0254"
     id="path158" />
  <line
     x1="0.0127"
     y1="36.752701"
     x2="0.0127"
     y2="23.852699"
     fill="none"
     stroke="#0000ff"
     stroke-width="0.0254"
     id="line160" />
  <path
     d="m 0.01270076,23.852701 a 0.05,0.05 0 0 1 0.05,-0.05"
     fill="none"
     stroke="#0000ff"
     stroke-width="0.0254"
     id="path162" />
  <line
     x1="0.062699236"
     y1="23.8027"
     x2="6.5077009"
     y2="23.8027"
     fill="none"
     stroke="#0000ff"
     stroke-width="0.0254"
     id="line164" />
  <path
     d="m 6.5077008,23.802701 a 0.05,0.05 0 0 1 0.05,0.05"
     fill="none"
     stroke="#0000ff"
     stroke-width="0.0254"
     id="path166" />
  <line
     x1="6.5577002"
     y1="23.852699"
     x2="6.5577002"
     y2="26.7027"
     fill="none"
     stroke="#0000ff"
     stroke-width="0.0254"
     id="line168" />
  <line
     x1="6.5577002"
     y1="26.7027"
     x2="11.457702"
     y2="26.7027"
     fill="none"
     stroke="#0000ff"
     stroke-width="0.0254"
     id="line170" />
  <line
     x1="11.457702"
     y1="26.7027"
     x2="11.457702"
     y2="23.852699"
     fill="none"
     stroke="#0000ff"
     stroke-width="0.0254"
     id="line172" />
  <path
     d="m 11.457701,23.852701 a 0.05,0.05 0 0 1 0.05,-0.05"
     fill="none"
     stroke="#0000ff"
     stroke-width="0.0254"
     id="path174" />
  <line
     x1="11.507701"
     y1="23.8027"
     x2="21.5077"
     y2="23.8027"
     fill="none"
     stroke="#0000ff"
     stroke-width="0.0254"
     id="line176" />
  <path
     d="m 21.507701,23.802701 a 0.05,0.05 0 0 1 0.05,0.05"
     fill="none"
     stroke="#0000ff"
     stroke-width="0.0254"
     id="path178" />
  <line
     x1="21.557701"
     y1="23.852699"
     x2="21.557701"
     y2="26.7027"
     fill="none"
     stroke="#0000ff"
     stroke-width="0.0254"
     id="line180" />
  <line
     x1="21.557701"
     y1="26.7027"
     x2="26.457701"
     y2="26.7027"
     fill="none"
     stroke="#0000ff"
     stroke-width="0.0254"
     id="line182" />
  <line
     x1="26.457701"
     y1="26.7027"
     x2="26.457701"
     y2="23.852699"
     fill="none"
     stroke="#0000ff"
     stroke-width="0.0254"
     id="line184" />
  <path
     d="m 26.457701,23.852701 a 0.05,0.05 0 0 1 0.05,-0.05"
     fill="none"
     stroke="#0000ff"
     stroke-width="0.0254"
     id="path186" />
  <line
     x1="26.5077"
     y1="23.8027"
     x2="28.3647"
     y2="23.8027"
     fill="none"
     stroke="#0000ff"
     stroke-width="0.0254"
     id="line188" />
  <path
     d="m 34.437701,19.352701 a 1.525,1.525 0 0 0 3.05,0"
     fill="none"
     stroke="#0000ff"
     stroke-width="0.0254"
     id="path190" />
  <path
     d="m 37.487701,19.352701 a 1.525,1.525 0 0 0 -3.05,0"
     fill="none"
     stroke="#0000ff"
     stroke-width="0.0254"
     id="path192" />
  <line
     x1="43.317699"
     y1="14.302701"
     x2="48.5177"
     y2="14.302701"
     fill="none"
     stroke="#0000ff"
     stroke-width="0.0254"
     id="line194" />
  <line
     x1="48.5177"
     y1="14.302701"
     x2="48.5177"
     y2="11.502702"
     fill="none"
     stroke="#0000ff"
     stroke-width="0.0254"
     id="line196" />
  <line
     x1="48.5177"
     y1="11.502702"
     x2="41.317699"
     y2="11.502702"
     fill="none"
     stroke="#0000ff"
     stroke-width="0.0254"
     id="line198" />
  <line
     x1="41.317699"
     y1="11.502702"
     x2="41.317699"
     y2="14.302701"
     fill="none"
     stroke="#0000ff"
     stroke-width="0.0254"
     id="line200" />
  <line
     x1="41.317699"
     y1="14.302701"
     x2="43.317699"
     y2="14.302701"
     fill="none"
     stroke="#0000ff"
     stroke-width="0.0254"
     id="line202" />
  <path
     d="m 52.917701,17.827701 a 1.525,1.525 0 0 0 0,3.05"
     fill="none"
     stroke="#0000ff"
     stroke-width="0.0254"
     id="path204" />
  <path
     d="m 52.917701,20.877701 a 1.525,1.525 0 0 0 0,-3.05"
     fill="none"
     stroke="#0000ff"
     stroke-width="0.0254"
     id="path206" />
  <line
     x1="55.922699"
     y1="17.313702"
     x2="55.922699"
     y2="22.852699"
     fill="none"
     stroke="#0000ff"
     stroke-width="0.0254"
     id="line208" />
  <path
     d="m 55.922701,22.852701 a 0.05,0.05 0 0 1 -0.05,0.05"
     fill="none"
     stroke="#0000ff"
     stroke-width="0.0254"
     id="path210" />
  <line
     x1="55.8727"
     y1="22.9027"
     x2="33.9627"
     y2="22.9027"
     fill="none"
     stroke="#0000ff"
     stroke-width="0.0254"
     id="line212" />
  <path
     d="m 33.962701,22.902701 a 0.05,0.05 0 0 1 -0.05,-0.05"
     fill="none"
     stroke="#0000ff"
     stroke-width="0.0254"
     id="path214" />
  <line
     x1="33.912701"
     y1="22.852699"
     x2="33.912701"
     y2="14.3527"
     fill="none"
     stroke="#0000ff"
     stroke-width="0.0254"
     id="line216" />
  <path
     d="m 33.912701,14.352701 a 0.05,0.05 0 0 1 0.05,-0.05"
     fill="none"
     stroke="#0000ff"
     stroke-width="0.0254"
     id="path218" />
  <line
     x1="33.9627"
     y1="14.302701"
     x2="36.217701"
     y2="14.302701"
     fill="none"
     stroke="#0000ff"
     stroke-width="0.0254"
     id="line220" />
  <line
     x1="36.217701"
     y1="14.302701"
     x2="36.217701"
     y2="11.502702"
     fill="none"
     stroke="#0000ff"
     stroke-width="0.0254"
     id="line222" />
  <line
     x1="36.217701"
     y1="11.502702"
     x2="33.9627"
     y2="11.502702"
     fill="none"
     stroke="#0000ff"
     stroke-width="0.0254"
     id="line224" />
  <path
     d="m 33.962701,11.502701 a 0.05,0.05 0 0 1 -0.05,-0.05"
     fill="none"
     stroke="#0000ff"
     stroke-width="0.0254"
     id="path226" />
  <line
     x1="33.912701"
     y1="11.452703"
     x2="33.912701"
     y2="7.1526995"
     fill="none"
     stroke="#0000ff"
     stroke-width="0.0254"
     id="line228" />
  <path
     d="m 33.912701,7.1527009 a 0.05,0.05 0 0 1 0.05,-0.05"
     fill="none"
     stroke="#0000ff"
     stroke-width="0.0254"
     id="path230" />
  <line
     x1="33.9627"
     y1="7.1027002"
     x2="39.201702"
     y2="7.1027002"
     fill="none"
     stroke="#0000ff"
     stroke-width="0.0254"
     id="line232" />
  <path
     d="m 39.201701,7.1027009 a 0.05,0.05 0 0 1 0.025,0.007"
     fill="none"
     stroke="#0000ff"
     stroke-width="0.0254"
     id="path234" />
  <line
     x1="39.2267"
     y1="7.1097002"
     x2="44.917702"
     y2="10.3947"
     fill="none"
     stroke="#0000ff"
     stroke-width="0.0254"
     id="line236" />
  <line
     x1="44.917702"
     y1="10.3947"
     x2="50.6087"
     y2="7.1097002"
     fill="none"
     stroke="#0000ff"
     stroke-width="0.0254"
     id="line238" />
  <path
     d="m 50.608701,7.1097009 a 0.05,0.05 0 0 1 0.025,-0.007"
     fill="none"
     stroke="#0000ff"
     stroke-width="0.0254"
     id="path240" />
  <line
     x1="50.633701"
     y1="7.1027002"
     x2="55.8727"
     y2="7.1027002"
     fill="none"
     stroke="#0000ff"
     stroke-width="0.0254"
     id="line242" />
  <path
     d="m 55.872701,7.1027009 a 0.05,0.05 0 0 1 0.05,0.05"
     fill="none"
     stroke="#0000ff"
     stroke-width="0.0254"
     id="path244" />
  <line
     x1="55.922699"
     y1="7.1526995"
     x2="55.922699"
     y2="11.452703"
     fill="none"
     stroke="#0000ff"
     stroke-width="0.0254"
     id="line246" />
  <path
     d="m 55.922701,11.452701 a 0.05,0.05 0 0 1 -0.05,0.05"
     fill="none"
     stroke="#0000ff"
     stroke-width="0.0254"
     id="path248" />
  <line
     x1="55.8727"
     y1="11.502702"
     x2="53.617702"
     y2="11.502702"
     fill="none"
     stroke="#0000ff"
     stroke-width="0.0254"
     id="line250" />
  <line
     x1="53.617702"
     y1="11.502702"
     x2="53.617702"
     y2="14.302701"
     fill="none"
     stroke="#0000ff"
     stroke-width="0.0254"
     id="line252" />
  <line
     x1="53.617702"
     y1="14.302701"
     x2="55.8727"
     y2="14.302701"
     fill="none"
     stroke="#0000ff"
     stroke-width="0.0254"
     id="line254" />
  <path
     d="m 55.872701,14.302701 a 0.05,0.05 0 0 1 0.05,0.05"
     fill="none"
     stroke="#0000ff"
     stroke-width="0.0254"
     id="path256" />
  <line
     x1="55.922699"
     y1="14.3527"
     x2="55.922699"
     y2="17.313702"
     fill="none"
     stroke="#0000ff"
     stroke-width="0.0254"
     id="line258" />
  <line
     x1="67.164703"
     y1="15.3877"
     x2="55.430702"
     y2="5.5416994"
     fill="none"
     stroke="#0000ff"
     stroke-width="0.0254"
     id="line260" />
  <path
     d="m 55.430701,5.5417009 a 0.05,0.05 0 0 1 -0.018,-0.038"
     fill="none"
     stroke="#0000ff"
     stroke-width="0.0254"
     id="path262" />
  <line
     x1="55.412701"
     y1="5.5037012"
     x2="55.412701"
     y2="3.5537004"
     fill="none"
     stroke="#0000ff"
     stroke-width="0.0254"
     id="line264" />
  <line
     x1="55.412701"
     y1="3.5537004"
     x2="52.562702"
     y2="3.5537004"
     fill="none"
     stroke="#0000ff"
     stroke-width="0.0254"
     id="line266" />
  <path
     d="m 52.562701,3.5537009 a 0.05,0.05 0 0 1 -0.05,-0.05"
     fill="none"
     stroke="#0000ff"
     stroke-width="0.0254"
     id="path268" />
  <line
     x1="52.512699"
     y1="3.5037012"
     x2="52.512699"
     y2="0.062699236"
     fill="none"
     stroke="#0000ff"
     stroke-width="0.0254"
     id="line270" />
  <path
     d="m 52.512701,0.06270092 a 0.05,0.05 0 0 1 0.05,-0.05"
     fill="none"
     stroke="#0000ff"
     stroke-width="0.0254"
     id="path272" />
  <line
     x1="52.562702"
     y1="0.0127"
     x2="70.862701"
     y2="0.0127"
     fill="none"
     stroke="#0000ff"
     stroke-width="0.0254"
     id="line274" />
  <path
     d="m 70.862701,0.01270092 a 0.05,0.05 0 0 1 0.05,0.05"
     fill="none"
     stroke="#0000ff"
     stroke-width="0.0254"
     id="path276" />
  <line
     x1="70.912704"
     y1="0.062699236"
     x2="70.912704"
     y2="5.1747026"
     fill="none"
     stroke="#0000ff"
     stroke-width="0.0254"
     id="line278" />
  <path
     d="m 70.912701,5.1747009 a 0.05,0.05 0 0 1 -0.05,0.05"
     fill="none"
     stroke="#0000ff"
     stroke-width="0.0254"
     id="path280" />
  <line
     x1="70.862701"
     y1="5.2247019"
     x2="68.012703"
     y2="5.2247019"
     fill="none"
     stroke="#0000ff"
     stroke-width="0.0254"
     id="line282" />
  <line
     x1="68.012703"
     y1="5.2247019"
     x2="68.012703"
     y2="9.8877001"
     fill="none"
     stroke="#0000ff"
     stroke-width="0.0254"
     id="line284" />
  <line
     x1="68.012703"
     y1="9.8877001"
     x2="70.862701"
     y2="9.8877001"
     fill="none"
     stroke="#0000ff"
     stroke-width="0.0254"
     id="line286" />
  <path
     d="m 70.862701,9.8877009 a 0.05,0.05 0 0 1 0.05,0.05"
     fill="none"
     stroke="#0000ff"
     stroke-width="0.0254"
     id="path288" />
  <line
     x1="70.912704"
     y1="9.9376993"
     x2="70.912704"
     y2="15.9917"
     fill="none"
     stroke="#0000ff"
     stroke-width="0.0254"
     id="line290" />
  <path
     d="m 70.912701,15.991701 a 0.05,0.05 0 0 1 -0.05,0.05"
     fill="none"
     stroke="#0000ff"
     stroke-width="0.0254"
     id="path292" />
  <line
     x1="70.862701"
     y1="16.041698"
     x2="67.9627"
     y2="16.041698"
     fill="none"
     stroke="#0000ff"
     stroke-width="0.0254"
     id="line294" />
  <path
     d="m 67.962701,16.041701 a 0.05,0.05 0 0 1 -0.032,-0.011"
     fill="none"
     stroke="#0000ff"
     stroke-width="0.0254"
     id="path296" />
  <line
     x1="67.930702"
     y1="16.030701"
     x2="67.164703"
     y2="15.3877"
     fill="none"
     stroke="#0000ff"
     stroke-width="0.0254"
     id="line298" />
  <path
     d="m 66.977701,45.943701 a 1.5253134,1.5253134 0 0 0 1.86,2.418"
     fill="none"
     stroke="#0000ff"
     stroke-width="0.0254"
     id="path300" />
  <path
     d="m 68.837701,48.361701 a 1.5253134,1.5253134 0 0 0 -1.86,-2.418"
     fill="none"
     stroke="#0000ff"
     stroke-width="0.0254"
     id="path302" />
  <line
     x1="60.307701"
     y1="42.102699"
     x2="63.507702"
     y2="42.102699"
     fill="none"
     stroke="#0000ff"
     stroke-width="0.0254"
     id="line304" />
  <line
     x1="63.507702"
     y1="42.102699"
     x2="63.507702"
     y2="39.3027"
     fill="none"
     stroke="#0000ff"
     stroke-width="0.0254"
     id="line306" />
  <line
     x1="63.507702"
     y1="39.3027"
     x2="56.307701"
     y2="39.3027"
     fill="none"
     stroke="#0000ff"
     stroke-width="0.0254"
     id="line308" />
  <line
     x1="56.307701"
     y1="39.3027"
     x2="56.307701"
     y2="42.102699"
     fill="none"
     stroke="#0000ff"
     stroke-width="0.0254"
     id="line310" />
  <line
     x1="56.307701"
     y1="42.102699"
     x2="60.307701"
     y2="42.102699"
     fill="none"
     stroke="#0000ff"
     stroke-width="0.0254"
     id="line312" />
  <path
     d="m 50.952701,45.627701 a 1.525,1.525 0 0 0 0,3.05"
     fill="none"
     stroke="#0000ff"
     stroke-width="0.0254"
     id="path314" />
  <path
     d="m 50.952701,48.677701 a 1.525,1.525 0 0 0 0,-3.05"
     fill="none"
     stroke="#0000ff"
     stroke-width="0.0254"
     id="path316" />
  <line
     x1="48.902699"
     y1="45.693699"
     x2="48.902699"
     y2="42.152702"
     fill="none"
     stroke="#0000ff"
     stroke-width="0.0254"
     id="line318" />
  <path
     d="m 48.902701,42.152701 a 0.05,0.05 0 0 1 0.05,-0.05"
     fill="none"
     stroke="#0000ff"
     stroke-width="0.0254"
     id="path320" />
  <line
     x1="48.952702"
     y1="42.102699"
     x2="51.207699"
     y2="42.102699"
     fill="none"
     stroke="#0000ff"
     stroke-width="0.0254"
     id="line322" />
  <line
     x1="51.207699"
     y1="42.102699"
     x2="51.207699"
     y2="39.3027"
     fill="none"
     stroke="#0000ff"
     stroke-width="0.0254"
     id="line324" />
  <line
     x1="51.207699"
     y1="39.3027"
     x2="48.952702"
     y2="39.3027"
     fill="none"
     stroke="#0000ff"
     stroke-width="0.0254"
     id="line326" />
  <path
     d="m 48.952701,39.302701 a 0.05,0.05 0 0 1 -0.05,-0.05"
     fill="none"
     stroke="#0000ff"
     stroke-width="0.0254"
     id="path328" />
  <line
     x1="48.902699"
     y1="39.252701"
     x2="48.902699"
     y2="34.952702"
     fill="none"
     stroke="#0000ff"
     stroke-width="0.0254"
     id="line330" />
  <path
     d="m 48.902701,34.952701 a 0.05,0.05 0 0 1 0.05,-0.05"
     fill="none"
     stroke="#0000ff"
     stroke-width="0.0254"
     id="path332" />
  <line
     x1="48.952702"
     y1="34.902702"
     x2="54.1917"
     y2="34.902702"
     fill="none"
     stroke="#0000ff"
     stroke-width="0.0254"
     id="line334" />
  <path
     d="m 54.191701,34.902701 a 0.05,0.05 0 0 1 0.025,0.007"
     fill="none"
     stroke="#0000ff"
     stroke-width="0.0254"
     id="path336" />
  <line
     x1="54.216702"
     y1="34.909702"
     x2="59.9077"
     y2="38.194702"
     fill="none"
     stroke="#0000ff"
     stroke-width="0.0254"
     id="line338" />
  <line
     x1="59.9077"
     y1="38.194702"
     x2="65.598701"
     y2="34.909702"
     fill="none"
     stroke="#0000ff"
     stroke-width="0.0254"
     id="line340" />
  <path
     d="m 65.598701,34.909701 a 0.05,0.05 0 0 1 0.025,-0.007"
     fill="none"
     stroke="#0000ff"
     stroke-width="0.0254"
     id="path342" />
  <line
     x1="65.623703"
     y1="34.902702"
     x2="70.862701"
     y2="34.902702"
     fill="none"
     stroke="#0000ff"
     stroke-width="0.0254"
     id="line344" />
  <path
     d="m 70.862701,34.902701 a 0.05,0.05 0 0 1 0.05,0.05"
     fill="none"
     stroke="#0000ff"
     stroke-width="0.0254"
     id="path346" />
  <line
     x1="70.912704"
     y1="34.952702"
     x2="70.912704"
     y2="39.252701"
     fill="none"
     stroke="#0000ff"
     stroke-width="0.0254"
     id="line348" />
  <path
     d="m 70.912701,39.252701 a 0.05,0.05 0 0 1 -0.05,0.05"
     fill="none"
     stroke="#0000ff"
     stroke-width="0.0254"
     id="path350" />
  <line
     x1="70.862701"
     y1="39.3027"
     x2="68.607704"
     y2="39.3027"
     fill="none"
     stroke="#0000ff"
     stroke-width="0.0254"
     id="line352" />
  <line
     x1="68.607704"
     y1="39.3027"
     x2="68.607704"
     y2="42.102699"
     fill="none"
     stroke="#0000ff"
     stroke-width="0.0254"
     id="line354" />
  <line
     x1="68.607704"
     y1="42.102699"
     x2="70.862701"
     y2="42.102699"
     fill="none"
     stroke="#0000ff"
     stroke-width="0.0254"
     id="line356" />
  <path
     d="m 70.862701,42.102701 a 0.05,0.05 0 0 1 0.05,0.05"
     fill="none"
     stroke="#0000ff"
     stroke-width="0.0254"
     id="path358" />
  <line
     x1="70.912704"
     y1="42.152702"
     x2="70.912704"
     y2="50.652702"
     fill="none"
     stroke="#0000ff"
     stroke-width="0.0254"
     id="line360" />
  <path
     d="m 70.912701,50.652701 a 0.05,0.05 0 0 1 -0.05,0.05"
     fill="none"
     stroke="#0000ff"
     stroke-width="0.0254"
     id="path362" />
  <line
     x1="70.862701"
     y1="50.702702"
     x2="48.952702"
     y2="50.702702"
     fill="none"
     stroke="#0000ff"
     stroke-width="0.0254"
     id="line364" />
  <path
     d="m 48.952701,50.702701 a 0.05,0.05 0 0 1 -0.05,-0.05"
     fill="none"
     stroke="#0000ff"
     stroke-width="0.0254"
     id="path366" />
  <line
     x1="48.902699"
     y1="50.652702"
     x2="48.902699"
     y2="45.693699"
     fill="none"
     stroke="#0000ff"
     stroke-width="0.0254"
     id="line368" />
  <path
     d="m 32.091701,46.230701 a 1.4502301,1.4502301 0 0 0 -2.238,1.845"
     fill="none"
     stroke="#0000ff"
     stroke-width="0.0254"
     id="path370" />
  <path
     d="m 29.853701,48.075701 a 1.4502301,1.4502301 0 0 0 2.238,-1.845"
     fill="none"
     stroke="#0000ff"
     stroke-width="0.0254"
     id="path372" />
  <path
     d="m 14.940701,48.271701 a 1.4501625,1.4501625 0 0 0 -1.846,-2.237"
     fill="none"
     stroke="#0000ff"
     stroke-width="0.0254"
     id="path374" />
  <path
     d="m 13.094701,46.034701 a 1.4501625,1.4501625 0 0 0 1.846,2.237"
     fill="none"
     stroke="#0000ff"
     stroke-width="0.0254"
     id="path376" />
  <line
     x1="14.136701"
     y1="50.702702"
     x2="0.062699236"
     y2="50.702702"
     fill="none"
     stroke="#0000ff"
     stroke-width="0.0254"
     id="line378" />
  <path
     d="m 0.06270076,50.702701 a 0.05,0.05 0 0 1 -0.05,-0.05"
     fill="none"
     stroke="#0000ff"
     stroke-width="0.0254"
     id="path380" />
  <line
     x1="0.0127"
     y1="50.652702"
     x2="0.0127"
     y2="37.752701"
     fill="none"
     stroke="#0000ff"
     stroke-width="0.0254"
     id="line382" />
  <path
     d="m 0.01270076,37.752701 a 0.05,0.05 0 0 1 0.05,-0.05"
     fill="none"
     stroke="#0000ff"
     stroke-width="0.0254"
     id="path384" />
  <line
     x1="0.062699236"
     y1="37.702702"
     x2="6.5077009"
     y2="37.702702"
     fill="none"
     stroke="#0000ff"
     stroke-width="0.0254"
     id="line386" />
  <path
     d="m 6.5077008,37.702701 a 0.05,0.05 0 0 1 0.05,0.05"
     fill="none"
     stroke="#0000ff"
     stroke-width="0.0254"
     id="path388" />
  <line
     x1="6.5577002"
     y1="37.752701"
     x2="6.5577002"
     y2="40.602699"
     fill="none"
     stroke="#0000ff"
     stroke-width="0.0254"
     id="line390" />
  <line
     x1="6.5577002"
     y1="40.602699"
     x2="11.457702"
     y2="40.602699"
     fill="none"
     stroke="#0000ff"
     stroke-width="0.0254"
     id="line392" />
  <line
     x1="11.457702"
     y1="40.602699"
     x2="11.457702"
     y2="37.752701"
     fill="none"
     stroke="#0000ff"
     stroke-width="0.0254"
     id="line394" />
  <path
     d="m 11.457701,37.752701 a 0.05,0.05 0 0 1 0.05,-0.05"
     fill="none"
     stroke="#0000ff"
     stroke-width="0.0254"
     id="path396" />
  <line
     x1="11.507701"
     y1="37.702702"
     x2="21.5077"
     y2="37.702702"
     fill="none"
     stroke="#0000ff"
     stroke-width="0.0254"
     id="line398" />
  <path
     d="m 21.507701,37.702701 a 0.05,0.05 0 0 1 0.05,0.05"
     fill="none"
     stroke="#0000ff"
     stroke-width="0.0254"
     id="path400" />
  <line
     x1="21.557701"
     y1="37.752701"
     x2="21.557701"
     y2="40.602699"
     fill="none"
     stroke="#0000ff"
     stroke-width="0.0254"
     id="line402" />
  <line
     x1="21.557701"
     y1="40.602699"
     x2="26.457701"
     y2="40.602699"
     fill="none"
     stroke="#0000ff"
     stroke-width="0.0254"
     id="line404" />
  <line
     x1="26.457701"
     y1="40.602699"
     x2="26.457701"
     y2="37.752701"
     fill="none"
     stroke="#0000ff"
     stroke-width="0.0254"
     id="line406" />
  <path
     d="m 26.457701,37.752701 a 0.05,0.05 0 0 1 0.05,-0.05"
     fill="none"
     stroke="#0000ff"
     stroke-width="0.0254"
     id="path408" />
  <line
     x1="26.5077"
     y1="37.702702"
     x2="36.507702"
     y2="37.702702"
     fill="none"
     stroke="#0000ff"
     stroke-width="0.0254"
     id="line410" />
  <path
     d="m 36.507701,37.702701 a 0.05,0.05 0 0 1 0.05,0.05"
     fill="none"
     stroke="#0000ff"
     stroke-width="0.0254"
     id="path412" />
  <line
     x1="36.557701"
     y1="37.752701"
     x2="36.557701"
     y2="40.602699"
     fill="none"
     stroke="#0000ff"
     stroke-width="0.0254"
     id="line414" />
  <line
     x1="36.557701"
     y1="40.602699"
     x2="41.457699"
     y2="40.602699"
     fill="none"
     stroke="#0000ff"
     stroke-width="0.0254"
     id="line416" />
  <line
     x1="41.457699"
     y1="40.602699"
     x2="41.457699"
     y2="37.752701"
     fill="none"
     stroke="#0000ff"
     stroke-width="0.0254"
     id="line418" />
  <path
     d="m 41.457701,37.752701 a 0.05,0.05 0 0 1 0.05,-0.05"
     fill="none"
     stroke="#0000ff"
     stroke-width="0.0254"
     id="path420" />
  <line
     x1="41.507702"
     y1="37.702702"
     x2="47.952702"
     y2="37.702702"
     fill="none"
     stroke="#0000ff"
     stroke-width="0.0254"
     id="line422" />
  <path
     d="m 47.952701,37.702701 a 0.05,0.05 0 0 1 0.05,0.05"
     fill="none"
     stroke="#0000ff"
     stroke-width="0.0254"
     id="path424" />
  <line
     x1="48.002701"
     y1="37.752701"
     x2="48.002701"
     y2="50.652702"
     fill="none"
     stroke="#0000ff"
     stroke-width="0.0254"
     id="line426" />
  <path
     d="m 48.002701,50.652701 a 0.05,0.05 0 0 1 -0.05,0.05"
     fill="none"
     stroke="#0000ff"
     stroke-width="0.0254"
     id="path428" />
  <line
     x1="47.952702"
     y1="50.702702"
     x2="14.136701"
     y2="50.702702"
     fill="none"
     stroke="#0000ff"
     stroke-width="0.0254"
     id="line430" />
  <path
     d="m 11.620701,58.320701 a 7.44,7.44 0 0 0 9.264,11.644"
     fill="none"
     stroke="#0000ff"
     stroke-width="0.0254"
     id="path432" />
  <path
     d="m 20.884701,69.964701 a 7.44,7.44 0 0 0 -9.264,-11.644"
     fill="none"
     stroke="#0000ff"
     stroke-width="0.0254"
     id="path434" />
  <line
     x1="5.7127008"
     y1="63.047699"
     x2="5.8127012"
     y2="63.047699"
     fill="none"
     stroke="#0000ff"
     stroke-width="0.0254"
     id="line436" />
  <line
     x1="5.8127012"
     y1="63.047699"
     x2="5.8127012"
     y2="56.702702"
     fill="none"
     stroke="#0000ff"
     stroke-width="0.0254"
     id="line438" />
  <line
     x1="5.8127012"
     y1="56.702702"
     x2="3.0127001"
     y2="56.702702"
     fill="none"
     stroke="#0000ff"
     stroke-width="0.0254"
     id="line440" />
  <line
     x1="3.0127001"
     y1="56.702702"
     x2="3.0127001"
     y2="63.047699"
     fill="none"
     stroke="#0000ff"
     stroke-width="0.0254"
     id="line442" />
  <line
     x1="3.0127001"
     y1="63.047699"
     x2="5.7127008"
     y2="63.047699"
     fill="none"
     stroke="#0000ff"
     stroke-width="0.0254"
     id="line444" />
  <line
     x1="5.8127012"
     y1="77.947701"
     x2="5.8127012"
     y2="68.147697"
     fill="none"
     stroke="#0000ff"
     stroke-width="0.0254"
     id="line446" />
  <line
     x1="5.8127012"
     y1="68.147697"
     x2="3.0127001"
     y2="68.147697"
     fill="none"
     stroke="#0000ff"
     stroke-width="0.0254"
     id="line448" />
  <line
     x1="3.0127001"
     y1="68.147697"
     x2="3.0127001"
     y2="78.047699"
     fill="none"
     stroke="#0000ff"
     stroke-width="0.0254"
     id="line450" />
  <line
     x1="3.0127001"
     y1="78.047699"
     x2="5.8127012"
     y2="78.047699"
     fill="none"
     stroke="#0000ff"
     stroke-width="0.0254"
     id="line452" />
  <line
     x1="5.8127012"
     y1="78.047699"
     x2="5.8127012"
     y2="77.947701"
     fill="none"
     stroke="#0000ff"
     stroke-width="0.0254"
     id="line454" />
  <line
     x1="5.8127012"
     y1="92.947701"
     x2="5.8127012"
     y2="83.147697"
     fill="none"
     stroke="#0000ff"
     stroke-width="0.0254"
     id="line456" />
  <line
     x1="5.8127012"
     y1="83.147697"
     x2="3.0127001"
     y2="83.147697"
     fill="none"
     stroke="#0000ff"
     stroke-width="0.0254"
     id="line458" />
  <line
     x1="3.0127001"
     y1="83.147697"
     x2="3.0127001"
     y2="93.047699"
     fill="none"
     stroke="#0000ff"
     stroke-width="0.0254"
     id="line460" />
  <line
     x1="3.0127001"
     y1="93.047699"
     x2="5.8127012"
     y2="93.047699"
     fill="none"
     stroke="#0000ff"
     stroke-width="0.0254"
     id="line462" />
  <line
     x1="5.8127012"
     y1="93.047699"
     x2="5.8127012"
     y2="92.947701"
     fill="none"
     stroke="#0000ff"
     stroke-width="0.0254"
     id="line464" />
  <line
     x1="5.7127008"
     y1="98.147705"
     x2="3.0127001"
     y2="98.147705"
     fill="none"
     stroke="#0000ff"
     stroke-width="0.0254"
     id="line466" />
  <line
     x1="3.0127001"
     y1="98.147705"
     x2="3.0127001"
     y2="104.4927"
     fill="none"
     stroke="#0000ff"
     stroke-width="0.0254"
     id="line468" />
  <line
     x1="3.0127001"
     y1="104.4927"
     x2="5.8127012"
     y2="104.4927"
     fill="none"
     stroke="#0000ff"
     stroke-width="0.0254"
     id="line470" />
  <line
     x1="5.8127012"
     y1="104.4927"
     x2="5.8127012"
     y2="98.147705"
     fill="none"
     stroke="#0000ff"
     stroke-width="0.0254"
     id="line472" />
  <line
     x1="5.8127012"
     y1="98.147705"
     x2="5.7127008"
     y2="98.147705"
     fill="none"
     stroke="#0000ff"
     stroke-width="0.0254"
     id="line474" />
  <path
     d="m 10.802701,99.042701 a 5.45,5.45 0 0 0 10.9,0"
     fill="none"
     stroke="#0000ff"
     stroke-width="0.0254"
     id="path476" />
  <path
     d="m 21.702701,99.042701 a 5.45,5.45 0 0 0 -10.9,0"
     fill="none"
     stroke="#0000ff"
     stroke-width="0.0254"
     id="path478" />
  <line
     x1="24.852701"
     y1="101.5747"
     x2="24.852701"
     y2="107.4287"
     fill="none"
     stroke="#0000ff"
     stroke-width="0.0254"
     id="line480" />
  <line
     x1="24.852701"
     y1="107.4287"
     x2="27.6527"
     y2="107.4287"
     fill="none"
     stroke="#0000ff"
     stroke-width="0.0254"
     id="line482" />
  <line
     x1="27.6527"
     y1="107.4287"
     x2="27.6527"
     y2="101.4747"
     fill="none"
     stroke="#0000ff"
     stroke-width="0.0254"
     id="line484" />
  <line
     x1="27.6527"
     y1="101.4747"
     x2="24.852701"
     y2="101.4747"
     fill="none"
     stroke="#0000ff"
     stroke-width="0.0254"
     id="line486" />
  <line
     x1="24.852701"
     y1="101.4747"
     x2="24.852701"
     y2="101.5747"
     fill="none"
     stroke="#0000ff"
     stroke-width="0.0254"
     id="line488" />
  <line
     x1="27.6527"
     y1="91.6987"
     x2="27.6527"
     y2="91.598701"
     fill="none"
     stroke="#0000ff"
     stroke-width="0.0254"
     id="line490" />
  <line
     x1="27.6527"
     y1="91.598701"
     x2="24.852701"
     y2="91.598701"
     fill="none"
     stroke="#0000ff"
     stroke-width="0.0254"
     id="line492" />
  <line
     x1="24.852701"
     y1="91.598701"
     x2="24.852701"
     y2="96.611702"
     fill="none"
     stroke="#0000ff"
     stroke-width="0.0254"
     id="line494" />
  <line
     x1="24.852701"
     y1="96.611702"
     x2="27.6527"
     y2="96.611702"
     fill="none"
     stroke="#0000ff"
     stroke-width="0.0254"
     id="line496" />
  <line
     x1="27.6527"
     y1="96.611702"
     x2="27.6527"
     y2="91.6987"
     fill="none"
     stroke="#0000ff"
     stroke-width="0.0254"
     id="line498" />
  <line
     x1="28.845701"
     y1="87.482704"
     x2="28.845701"
     y2="87.582703"
     fill="none"
     stroke="#0000ff"
     stroke-width="0.0254"
     id="line500" />
  <line
     x1="28.845701"
     y1="87.582703"
     x2="51.745701"
     y2="87.582703"
     fill="none"
     stroke="#0000ff"
     stroke-width="0.0254"
     id="line502" />
  <line
     x1="51.745701"
     y1="87.582703"
     x2="51.745701"
     y2="75.682701"
     fill="none"
     stroke="#0000ff"
     stroke-width="0.0254"
     id="line504" />
  <line
     x1="51.745701"
     y1="75.682701"
     x2="28.845701"
     y2="75.682701"
     fill="none"
     stroke="#0000ff"
     stroke-width="0.0254"
     id="line506" />
  <line
     x1="28.845701"
     y1="75.682701"
     x2="28.845701"
     y2="87.482704"
     fill="none"
     stroke="#0000ff"
     stroke-width="0.0254"
     id="line508" />
  <path
     d="m 27.188701,81.731701 a 0.70003571,0.70003571 0 0 0 -1.386,-0.198"
     fill="none"
     stroke="#0000ff"
     stroke-width="0.0254"
     id="path510" />
  <path
     d="m 25.802701,81.533701 a 0.70003571,0.70003571 0 0 0 1.386,0.198"
     fill="none"
     stroke="#0000ff"
     stroke-width="0.0254"
     id="path512" />
  <path
     d="m 54.095701,82.332701 a 0.7,0.7 0 0 0 0,-1.4"
     fill="none"
     stroke="#0000ff"
     stroke-width="0.0254"
     id="path514" />
  <path
     d="m 54.095701,80.932701 a 0.7,0.7 0 0 0 0,1.4"
     fill="none"
     stroke="#0000ff"
     stroke-width="0.0254"
     id="path516" />
  <line
     x1="63.945702"
     y1="93.047699"
     x2="66.645699"
     y2="93.047699"
     fill="none"
     stroke="#0000ff"
     stroke-width="0.0254"
     id="line518" />
  <line
     x1="66.645699"
     y1="93.047699"
     x2="66.645699"
     y2="83.147697"
     fill="none"
     stroke="#0000ff"
     stroke-width="0.0254"
     id="line520" />
  <line
     x1="66.645699"
     y1="83.147697"
     x2="63.845699"
     y2="83.147697"
     fill="none"
     stroke="#0000ff"
     stroke-width="0.0254"
     id="line522" />
  <line
     x1="63.845699"
     y1="83.147697"
     x2="63.845699"
     y2="93.047699"
     fill="none"
     stroke="#0000ff"
     stroke-width="0.0254"
     id="line524" />
  <line
     x1="63.845699"
     y1="93.047699"
     x2="63.945702"
     y2="93.047699"
     fill="none"
     stroke="#0000ff"
     stroke-width="0.0254"
     id="line526" />
  <line
     x1="63.845699"
     y1="98.247704"
     x2="63.845699"
     y2="104.4927"
     fill="none"
     stroke="#0000ff"
     stroke-width="0.0254"
     id="line528" />
  <line
     x1="63.845699"
     y1="104.4927"
     x2="66.645699"
     y2="104.4927"
     fill="none"
     stroke="#0000ff"
     stroke-width="0.0254"
     id="line530" />
  <line
     x1="66.645699"
     y1="104.4927"
     x2="66.645699"
     y2="98.147705"
     fill="none"
     stroke="#0000ff"
     stroke-width="0.0254"
     id="line532" />
  <line
     x1="66.645699"
     y1="98.147705"
     x2="63.845699"
     y2="98.147705"
     fill="none"
     stroke="#0000ff"
     stroke-width="0.0254"
     id="line534" />
  <line
     x1="63.845699"
     y1="98.147705"
     x2="63.845699"
     y2="98.247704"
     fill="none"
     stroke="#0000ff"
     stroke-width="0.0254"
     id="line536" />
  <line
     x1="63.945702"
     y1="68.147697"
     x2="63.845699"
     y2="68.147697"
     fill="none"
     stroke="#0000ff"
     stroke-width="0.0254"
     id="line538" />
  <line
     x1="63.845699"
     y1="68.147697"
     x2="63.845699"
     y2="78.047699"
     fill="none"
     stroke="#0000ff"
     stroke-width="0.0254"
     id="line540" />
  <line
     x1="63.845699"
     y1="78.047699"
     x2="66.645699"
     y2="78.047699"
     fill="none"
     stroke="#0000ff"
     stroke-width="0.0254"
     id="line542" />
  <line
     x1="66.645699"
     y1="78.047699"
     x2="66.645699"
     y2="68.147697"
     fill="none"
     stroke="#0000ff"
     stroke-width="0.0254"
     id="line544" />
  <line
     x1="66.645699"
     y1="68.147697"
     x2="63.945702"
     y2="68.147697"
     fill="none"
     stroke="#0000ff"
     stroke-width="0.0254"
     id="line546" />
  <line
     x1="63.945702"
     y1="63.047699"
     x2="66.645699"
     y2="63.047699"
     fill="none"
     stroke="#0000ff"
     stroke-width="0.0254"
     id="line548" />
  <line
     x1="66.645699"
     y1="63.047699"
     x2="66.645699"
     y2="56.702702"
     fill="none"
     stroke="#0000ff"
     stroke-width="0.0254"
     id="line550" />
  <line
     x1="66.645699"
     y1="56.702702"
     x2="63.845699"
     y2="56.702702"
     fill="none"
     stroke="#0000ff"
     stroke-width="0.0254"
     id="line552" />
  <line
     x1="63.845699"
     y1="56.702702"
     x2="63.845699"
     y2="63.047699"
     fill="none"
     stroke="#0000ff"
     stroke-width="0.0254"
     id="line554" />
  <line
     x1="63.845699"
     y1="63.047699"
     x2="63.945702"
     y2="63.047699"
     fill="none"
     stroke="#0000ff"
     stroke-width="0.0254"
     id="line556" />
  <line
     x1="69.645699"
     y1="63.047699"
     x2="69.645699"
     y2="109.5427"
     fill="none"
     stroke="#0000ff"
     stroke-width="0.0254"
     id="line558" />
  <path
     d="m 69.645701,109.5427 a 0.05,0.05 0 0 1 -0.05,0.05"
     fill="none"
     stroke="#0000ff"
     stroke-width="0.0254"
     id="path560" />
  <line
     x1="69.595703"
     y1="109.5927"
     x2="0.062699236"
     y2="109.5927"
     fill="none"
     stroke="#0000ff"
     stroke-width="0.0254"
     id="line562" />
  <path
     d="m 0.06270076,109.5927 a 0.05,0.05 0 0 1 -0.05,-0.05"
     fill="none"
     stroke="#0000ff"
     stroke-width="0.0254"
     id="path564" />
  <line
     x1="0.0127"
     y1="109.5427"
     x2="0.0127"
     y2="51.652702"
     fill="none"
     stroke="#0000ff"
     stroke-width="0.0254"
     id="line566" />
  <path
     d="m 0.01270076,51.652701 a 0.05,0.05 0 0 1 0.05,-0.05"
     fill="none"
     stroke="#0000ff"
     stroke-width="0.0254"
     id="path568" />
  <line
     x1="0.062699236"
     y1="51.602699"
     x2="69.595703"
     y2="51.602699"
     fill="none"
     stroke="#0000ff"
     stroke-width="0.0254"
     id="line570" />
  <path
     d="m 69.595701,51.602701 a 0.05,0.05 0 0 1 0.05,0.05"
     fill="none"
     stroke="#0000ff"
     stroke-width="0.0254"
     id="path572" />
  <line
     x1="69.645699"
     y1="51.652702"
     x2="69.645699"
     y2="63.047699"
     fill="none"
     stroke="#0000ff"
     stroke-width="0.0254"
     id="line574" />
</svg>
